SplineFontDB: 3.2
FontName: RisingSun-ExtraBoldItalic
FullName: Rising Sun ExtraBold Italic
FamilyName: Rising Sun ExtraBold
Weight: Heavy
Copyright: Copyright (c) 2012, The Raleway Project Authors (matt@pixelspread.com)
Version: 4.322
ItalicAngle: -12
UnderlinePosition: -125
UnderlineWidth: 50
Ascent: 800
Descent: 200
InvalidEm: 0
sfntRevision: 0x0004526e
LayerCount: 2
Layer: 0 1 "Back" 1
Layer: 1 1 "Fore" 0
XUID: [1021 158 994486733 12438635]
StyleMap: 0x0001
FSType: 0
OS2Version: 4
OS2_WeightWidthSlopeOnly: 0
OS2_UseTypoMetrics: 1
CreationTime: 1683073834
ModificationTime: 1710186833
PfmFamily: 81
TTFWeight: 800
TTFWidth: 5
LineGap: 21
VLineGap: 0
Panose: 0 0 0 0 0 0 0 0 0 0
OS2TypoAscent: 923
OS2TypoAOffset: 0
OS2TypoDescent: -213
OS2TypoDOffset: 0
OS2TypoLinegap: 21
OS2WinAscent: 944
OS2WinAOffset: 0
OS2WinDescent: 234
OS2WinDOffset: 0
HheadAscent: 923
HheadAOffset: 0
HheadDescent: -213
HheadDOffset: 0
OS2SubXSize: 650
OS2SubYSize: 600
OS2SubXOff: 0
OS2SubYOff: 75
OS2SupXSize: 650
OS2SupYSize: 600
OS2SupXOff: 0
OS2SupYOff: 350
OS2StrikeYSize: 50
OS2StrikeYPos: 300
OS2CapHeight: 710
OS2XHeight: 525
OS2Vendor: '    '
OS2CodePages: 2000019f.00000000
OS2UnicodeRanges: a00002ff.4000205b.00000000.00000000
Lookup: 1 0 0 "'aalt' Access All Alternates lookup 0" { "'aalt' Access All Alternates lookup 0 subtable"  } ['aalt' ('DFLT' <'dflt' > 'cyrl' <'BGR ' 'MKD ' 'SRB ' 'dflt' > 'latn' <'AZE ' 'CAT ' 'CRT ' 'KAZ ' 'MOL ' 'ROM ' 'TAT ' 'TRK ' 'dflt' > ) ]
Lookup: 3 0 0 "'aalt' Access All Alternates lookup 1" { "'aalt' Access All Alternates lookup 1 subtable"  } ['aalt' ('DFLT' <'dflt' > 'cyrl' <'BGR ' 'MKD ' 'SRB ' 'dflt' > 'latn' <'AZE ' 'CAT ' 'CRT ' 'KAZ ' 'MOL ' 'ROM ' 'TAT ' 'TRK ' 'dflt' > ) ]

StartChar: .notdef
Encoding: 65536 -1 0
Width: 608
GlyphClass: 1
Flags: W
LayerCount: 2
Fore
SplineSet
558 689 m 2,0,1
 558 699 558 699 553 704.5 c 128,-1,2
 548 710 548 710 540 710 c 2,3,-1
 69 710 l 2,4,5
 61 710 61 710 55.5 704 c 128,-1,6
 50 698 50 698 50 687 c 2,7,-1
 50 25 l 2,8,9
 50 12 50 12 55.5 6 c 128,-1,10
 61 0 61 0 77 0 c 2,11,-1
 525 0 l 2,12,13
 542 0 542 0 550 6.5 c 128,-1,14
 558 13 558 13 558 29 c 2,15,-1
 558 689 l 2,0,1
506 74 m 2,16,17
 506 61 506 61 499 55.5 c 128,-1,18
 492 50 492 50 478 50 c 2,19,-1
 125 50 l 2,20,21
 111 50 111 50 106.5 55 c 128,-1,22
 102 60 102 60 102 71 c 2,23,-1
 102 641 l 2,24,25
 102 650 102 650 106.5 655 c 128,-1,26
 111 660 111 660 118 660 c 2,27,-1
 491 660 l 2,28,29
 498 660 498 660 502 655 c 128,-1,30
 506 650 506 650 506 642 c 2,31,-1
 506 74 l 2,16,17
538 33 m 1,32,-1
 123 696 l 1,33,-1
 71 669 l 1,34,-1
 478 28 l 1,35,-1
 538 33 l 1,32,-1
EndSplineSet
EndChar

StartChar: exclam
Encoding: 33 33 4
Width: 316
GlyphClass: 1
Flags: W
LayerCount: 2
Fore
SplineSet
13 93 m 256,0,1
 8 72 8 72 12.5 53.5 c 128,-1,2
 17 35 17 35 28 20.5 c 128,-1,3
 39 6 39 6 56 -2 c 128,-1,4
 73 -10 73 -10 94 -10 c 256,5,6
 115 -10 115 -10 135.5 -2 c 128,-1,7
 156 6 156 6 173 20.5 c 128,-1,8
 190 35 190 35 202 53.5 c 128,-1,9
 214 72 214 72 219 93 c 0,10,11
 223 114 223 114 219 132.5 c 128,-1,12
 215 151 215 151 204 165 c 128,-1,13
 193 179 193 179 176 187 c 128,-1,14
 159 195 159 195 138 195 c 256,15,16
 117 195 117 195 96.5 187 c 128,-1,17
 76 179 76 179 58.5 165 c 128,-1,18
 41 151 41 151 29.5 132.5 c 128,-1,19
 18 114 18 114 13 93 c 256,0,1
217 288 m 1,20,-1
 296 540 l 1,21,-1
 333 717 l 1,22,-1
 164 717 l 1,23,-1
 127 540 l 1,24,-1
 99 288 l 1,25,-1
 217 288 l 1,20,-1
EndSplineSet
EndChar

StartChar: quotedbl
Encoding: 34 34 5
Width: 493
GlyphClass: 1
Flags: W
LayerCount: 2
Fore
SplineSet
120 499 m 1,0,-1
 194 499 l 1,1,-1
 360 728 l 1,2,-1
 218 728 l 1,3,-1
 120 499 l 1,0,-1
296 499 m 1,4,-1
 370 499 l 1,5,-1
 536 728 l 1,6,-1
 394 728 l 1,7,-1
 296 499 l 1,4,-1
EndSplineSet
EndChar

StartChar: numbersign
Encoding: 35 35 6
Width: 714
GlyphClass: 1
Flags: W
LayerCount: 2
Fore
SplineSet
726 524 m 1,0,-1
 606 524 l 1,1,-1
 690 710 l 1,2,-1
 555 710 l 1,3,-1
 473 524 l 1,4,-1
 404 524 l 1,5,-1
 487 710 l 1,6,-1
 352 710 l 1,7,-1
 270 524 l 1,8,-1
 130 524 l 1,9,-1
 105 407 l 1,10,-1
 216 407 l 1,11,-1
 172 302 l 1,12,-1
 36 302 l 1,13,-1
 9 176 l 1,14,-1
 115 176 l 1,15,-1
 37 0 l 1,16,-1
 172 0 l 1,17,-1
 249 176 l 1,18,-1
 318 176 l 1,19,-1
 240 0 l 1,20,-1
 375 0 l 1,21,-1
 452 176 l 1,22,-1
 605 176 l 1,23,-1
 632 302 l 1,24,-1
 510 302 l 1,25,-1
 553 407 l 1,26,-1
 701 407 l 1,27,-1
 726 524 l 1,0,-1
307 302 m 1,28,-1
 350 407 l 1,29,-1
 419 407 l 1,30,-1
 375 302 l 1,31,-1
 307 302 l 1,28,-1
EndSplineSet
EndChar

StartChar: dollar
Encoding: 36 36 7
Width: 623
GlyphClass: 1
Flags: W
LayerCount: 2
Fore
SplineSet
188 -125 m 1,0,-1
 261 -125 l 1,1,-1
 304 84 l 1,2,-1
 233 84 l 1,3,-1
 188 -125 l 1,0,-1
296 102 m 1,4,-1
 405 616 l 1,5,-1
 355 603 l 1,6,-1
 249 104 l 1,7,-1
 296 102 l 1,4,-1
346 620 m 1,8,-1
 421 633 l 1,9,-1
 460 815 l 1,10,-1
 388 815 l 1,11,-1
 346 620 l 1,8,-1
633 638 m 1,12,13
 614 651 614 651 588.5 665 c 128,-1,14
 563 679 563 679 533.5 690 c 128,-1,15
 504 701 504 701 470.5 708.5 c 128,-1,16
 437 716 437 716 401 716 c 0,17,18
 343 716 343 716 288 697.5 c 128,-1,19
 233 679 233 679 190 643.5 c 128,-1,20
 147 608 147 608 120.5 557 c 128,-1,21
 94 506 94 506 94 441 c 0,22,23
 94 412 94 412 103 388.5 c 128,-1,24
 112 365 112 365 129.5 346.5 c 128,-1,25
 147 328 147 328 173 313 c 128,-1,26
 199 298 199 298 233 285 c 0,27,28
 261 275 261 275 286 267 c 128,-1,29
 311 259 311 259 330 250 c 128,-1,30
 349 241 349 241 360 230 c 128,-1,31
 371 219 371 219 371 203 c 0,32,33
 371 192 371 192 367 182 c 128,-1,34
 363 172 363 172 354 164.5 c 128,-1,35
 345 157 345 157 330.5 152.5 c 128,-1,36
 316 148 316 148 294 148 c 0,37,38
 256 148 256 148 219.5 159.5 c 128,-1,39
 183 171 183 171 155.5 185.5 c 128,-1,40
 128 200 128 200 111.5 213 c 128,-1,41
 95 226 95 226 93 230 c 1,42,-1
 -15 78 l 1,43,44
 12 58 12 58 44 42 c 128,-1,45
 76 26 76 26 111 15 c 128,-1,46
 146 4 146 4 183.5 -2.5 c 128,-1,47
 221 -9 221 -9 259 -9 c 0,48,49
 314 -9 314 -9 369 5.5 c 128,-1,50
 424 20 424 20 468 51 c 128,-1,51
 512 82 512 82 539.5 132.5 c 128,-1,52
 567 183 567 183 567 255 c 0,53,54
 567 292 567 292 555 319 c 128,-1,55
 543 346 543 346 521 366 c 128,-1,56
 499 386 499 386 468.5 401 c 128,-1,57
 438 416 438 416 400 428 c 0,58,59
 374 437 374 437 352.5 444.5 c 128,-1,60
 331 452 331 452 316 459.5 c 128,-1,61
 301 467 301 467 293 476.5 c 128,-1,62
 285 486 285 486 285 500 c 0,63,64
 285 515 285 515 290.5 526.5 c 128,-1,65
 296 538 296 538 306 545.5 c 128,-1,66
 316 553 316 553 330.5 557 c 128,-1,67
 345 561 345 561 363 561 c 0,68,69
 393 561 393 561 422 552 c 128,-1,70
 451 543 451 543 474.5 531 c 128,-1,71
 498 519 498 519 512.5 508 c 128,-1,72
 527 497 527 497 527 495 c 1,73,-1
 633 638 l 1,12,13
EndSplineSet
EndChar

StartChar: percent
Encoding: 37 37 8
Width: 801
GlyphClass: 1
Flags: W
LayerCount: 2
Fore
SplineSet
224 409 m 0,0,1
 264 409 264 409 300.5 423.5 c 128,-1,2
 337 438 337 438 365 463 c 128,-1,3
 393 488 393 488 410 521 c 128,-1,4
 427 554 427 554 427 590 c 0,5,6
 427 618 427 618 417 641.5 c 128,-1,7
 407 665 407 665 389 682.5 c 128,-1,8
 371 700 371 700 346 710 c 128,-1,9
 321 720 321 720 290 720 c 0,10,11
 251 720 251 720 214 705.5 c 128,-1,12
 177 691 177 691 149 666 c 128,-1,13
 121 641 121 641 104 608.5 c 128,-1,14
 87 576 87 576 87 539 c 0,15,16
 87 511 87 511 97 487.5 c 128,-1,17
 107 464 107 464 125 446.5 c 128,-1,18
 143 429 143 429 168 419 c 128,-1,19
 193 409 193 409 224 409 c 0,0,1
241 490 m 0,20,21
 224 490 224 490 214 506.5 c 128,-1,22
 204 523 204 523 204 546 c 0,23,24
 204 564 204 564 210.5 581 c 128,-1,25
 217 598 217 598 226.5 610.5 c 128,-1,26
 236 623 236 623 248.5 630.5 c 128,-1,27
 261 638 261 638 273 638 c 0,28,29
 290 638 290 638 300 622 c 128,-1,30
 310 606 310 606 310 583 c 0,31,32
 310 565 310 565 303.5 548 c 128,-1,33
 297 531 297 531 287.5 518.5 c 128,-1,34
 278 506 278 506 265.5 498 c 128,-1,35
 253 490 253 490 241 490 c 0,20,21
534 -10 m 0,36,37
 574 -10 574 -10 610.5 4.5 c 128,-1,38
 647 19 647 19 675 44 c 128,-1,39
 703 69 703 69 720 102 c 128,-1,40
 737 135 737 135 737 171 c 0,41,42
 737 199 737 199 727.5 222.5 c 128,-1,43
 718 246 718 246 699.5 263.5 c 128,-1,44
 681 281 681 281 656 291 c 128,-1,45
 631 301 631 301 600 301 c 0,46,47
 562 301 562 301 525 286.5 c 128,-1,48
 488 272 488 272 460 247 c 128,-1,49
 432 222 432 222 415 189.5 c 128,-1,50
 398 157 398 157 398 120 c 0,51,52
 398 92 398 92 407.5 68.5 c 128,-1,53
 417 45 417 45 435 27.5 c 128,-1,54
 453 10 453 10 478 0 c 128,-1,55
 503 -10 503 -10 534 -10 c 0,36,37
552 72 m 0,56,57
 535 72 535 72 524.5 88 c 128,-1,58
 514 104 514 104 514 127 c 0,59,60
 514 146 514 146 520.5 162.5 c 128,-1,61
 527 179 527 179 537 191.5 c 128,-1,62
 547 204 547 204 559 212 c 128,-1,63
 571 220 571 220 583 220 c 0,64,65
 600 220 600 220 609.5 203.5 c 128,-1,66
 619 187 619 187 619 164 c 0,67,68
 619 146 619 146 613 129 c 128,-1,69
 607 112 607 112 597.5 99.5 c 128,-1,70
 588 87 588 87 576 79.5 c 128,-1,71
 564 72 564 72 552 72 c 0,56,57
118 -9 m 1,72,-1
 442 338 l 1,73,-1
 767 652 l 1,74,-1
 706 720 l 1,75,-1
 395 381 l 1,76,-1
 57 59 l 1,77,-1
 118 -9 l 1,72,-1
EndSplineSet
EndChar

StartChar: ampersand
Encoding: 38 38 9
Width: 717
GlyphClass: 1
Flags: W
LayerCount: 2
Fore
SplineSet
205 -10 m 0,0,1
 267 -10 267 -10 334 16.5 c 128,-1,2
 401 43 401 43 461 96.5 c 128,-1,3
 521 150 521 150 568.5 229.5 c 128,-1,4
 616 309 616 309 639 416 c 1,5,-1
 501 416 l 1,6,7
 491 346 491 346 464.5 291 c 128,-1,8
 438 236 438 236 403.5 197.5 c 128,-1,9
 369 159 369 159 329 139 c 128,-1,10
 289 119 289 119 252 119 c 0,11,12
 220 119 220 119 199 136 c 128,-1,13
 178 153 178 153 178 189 c 0,14,15
 178 210 178 210 187 226.5 c 128,-1,16
 196 243 196 243 215 258.5 c 128,-1,17
 234 274 234 274 264.5 291 c 128,-1,18
 295 308 295 308 340 327 c 1,19,-1
 266 439 l 1,20,21
 219 412 219 412 174 386.5 c 128,-1,22
 129 361 129 361 93 330.5 c 128,-1,23
 57 300 57 300 35 262 c 128,-1,24
 13 224 13 224 13 172 c 0,25,26
 13 136 13 136 24.5 103.5 c 128,-1,27
 36 71 36 71 60 46 c 128,-1,28
 84 21 84 21 120 5.5 c 128,-1,29
 156 -10 156 -10 205 -10 c 0,0,1
426 0 m 1,30,-1
 646 0 l 1,31,-1
 346 433 l 2,32,33
 330 457 330 457 318 473 c 128,-1,34
 306 489 306 489 298.5 500.5 c 128,-1,35
 291 512 291 512 287 521.5 c 128,-1,36
 283 531 283 531 283 541 c 0,37,38
 283 554 283 554 288.5 564 c 128,-1,39
 294 574 294 574 303 581.5 c 128,-1,40
 312 589 312 589 323 592.5 c 128,-1,41
 334 596 334 596 345 596 c 0,42,43
 368 596 368 596 388.5 578.5 c 128,-1,44
 409 561 409 561 418 524 c 1,45,-1
 538 575 l 1,46,47
 530 612 530 612 512.5 639.5 c 128,-1,48
 495 667 495 667 470.5 684.5 c 128,-1,49
 446 702 446 702 416.5 710.5 c 128,-1,50
 387 719 387 719 355 719 c 0,51,52
 311 719 311 719 269.5 703.5 c 128,-1,53
 228 688 228 688 195.5 661 c 128,-1,54
 163 634 163 634 144 596 c 128,-1,55
 125 558 125 558 125 512 c 0,56,57
 125 492 125 492 129 474 c 128,-1,58
 133 456 133 456 141.5 435.5 c 128,-1,59
 150 415 150 415 163.5 393 c 128,-1,60
 177 371 177 371 195 344 c 2,61,-1
 426 0 l 1,30,-1
497 299 m 1,62,-1
 671 299 l 1,63,-1
 686 416 l 1,64,-1
 512 416 l 1,65,-1
 497 299 l 1,62,-1
EndSplineSet
EndChar

StartChar: quotesingle
Encoding: 39 39 10
Width: 255
GlyphClass: 1
Flags: W
LayerCount: 2
Fore
SplineSet
139 498 m 1,0,-1
 305 727 l 1,1,-1
 162 727 l 1,2,-1
 64 498 l 1,3,-1
 139 498 l 1,0,-1
EndSplineSet
EndChar

StartChar: parenleft
Encoding: 40 40 11
Width: 324
GlyphClass: 1
Flags: W
LayerCount: 2
Fore
SplineSet
29 265 m 0,0,1
 29 224 29 224 35 181 c 128,-1,2
 41 138 41 138 50.5 96 c 128,-1,3
 60 54 60 54 73 14 c 128,-1,4
 86 -26 86 -26 101 -61 c 1,5,-1
 237 -1 l 1,6,7
 227 34 227 34 217.5 69.5 c 128,-1,8
 208 105 208 105 201.5 140 c 128,-1,9
 195 175 195 175 191.5 209 c 128,-1,10
 188 243 188 243 188 274 c 0,11,12
 188 319 188 319 202 369.5 c 128,-1,13
 216 420 216 420 242 475 c 128,-1,14
 268 530 268 530 306.5 590 c 128,-1,15
 345 650 345 650 393 714 c 1,16,-1
 275 766 l 1,17,18
 224 700 224 700 179 638 c 128,-1,19
 134 576 134 576 101 515 c 128,-1,20
 68 454 68 454 48.5 392 c 128,-1,21
 29 330 29 330 29 265 c 0,0,1
EndSplineSet
EndChar

StartChar: parenright
Encoding: 41 41 12
Width: 324
GlyphClass: 1
Flags: W
LayerCount: 2
Fore
SplineSet
314 430 m 0,0,1
 314 509 314 509 294.5 596.5 c 128,-1,2
 275 684 275 684 247 766 c 1,3,-1
 106 714 l 1,4,5
 112 698 112 698 120.5 667 c 128,-1,6
 129 636 129 636 136.5 597 c 128,-1,7
 144 558 144 558 149.5 513 c 128,-1,8
 155 468 155 468 155 425 c 0,9,10
 155 367 155 367 140 315 c 128,-1,11
 125 263 125 263 98.5 211.5 c 128,-1,12
 72 160 72 160 36 108 c 128,-1,13
 0 56 0 56 -42 -1 c 1,14,-1
 69 -61 l 1,15,16
 116 -6 116 -6 160 52.5 c 128,-1,17
 204 111 204 111 238.5 172 c 128,-1,18
 273 233 273 233 293.5 297.5 c 128,-1,19
 314 362 314 362 314 430 c 0,0,1
EndSplineSet
EndChar

StartChar: asterisk
Encoding: 42 42 13
Width: 349
GlyphClass: 1
Flags: W
LayerCount: 2
Fore
SplineSet
165 466 m 1,0,-1
 227 546 l 1,1,-1
 255 466 l 1,2,-1
 326 507 l 1,3,-1
 296 582 l 1,4,-1
 368 603 l 1,5,-1
 362 673 l 1,6,-1
 284 639 l 1,7,-1
 307 720 l 1,8,-1
 221 720 l 1,9,-1
 210 639 l 1,10,-1
 146 673 l 1,11,-1
 110 603 l 1,12,-1
 173 582 l 1,13,-1
 112 507 l 1,14,-1
 165 466 l 1,0,-1
EndSplineSet
EndChar

StartChar: plus
Encoding: 43 43 14
Width: 435
GlyphClass: 1
Flags: W
LayerCount: 2
Fore
SplineSet
303 422 m 1,0,-1
 303 524 l 1,1,-1
 151 524 l 1,2,-1
 151 422 l 1,3,-1
 60 422 l 1,4,-1
 60 288 l 1,5,-1
 151 288 l 1,6,-1
 151 186 l 1,7,-1
 303 186 l 1,8,-1
 303 288 l 1,9,-1
 395 288 l 1,10,-1
 395 422 l 1,11,-1
 303 422 l 1,0,-1
EndSplineSet
EndChar

StartChar: comma
Encoding: 44 44 15
Width: 248
GlyphClass: 1
Flags: W
LayerCount: 2
Fore
SplineSet
59 -160 m 1,0,-1
 240 100 l 1,1,-1
 98 100 l 1,2,-1
 -15 -160 l 1,3,-1
 59 -160 l 1,0,-1
EndSplineSet
EndChar

StartChar: hyphen
Encoding: 45 45 16
Width: 400
GlyphClass: 1
Flags: W
LayerCount: 2
Fore
SplineSet
326 199 m 1,0,-1
 358 351 l 1,1,-1
 63 351 l 1,2,-1
 30 199 l 1,3,-1
 326 199 l 1,0,-1
EndSplineSet
EndChar

StartChar: period
Encoding: 46 46 17
Width: 244
GlyphClass: 1
Flags: W
LayerCount: 2
Fore
SplineSet
34 76 m 0,0,1
 27 41 27 41 46.5 15.5 c 128,-1,2
 66 -10 66 -10 102 -10 c 256,3,4
 138 -10 138 -10 169 15.5 c 128,-1,5
 200 41 200 41 207 76 c 0,6,7
 214 112 214 112 194.5 137.5 c 128,-1,8
 175 163 175 163 139 163 c 256,9,10
 103 163 103 163 72.5 137.5 c 128,-1,11
 42 112 42 112 34 76 c 0,0,1
EndSplineSet
EndChar

StartChar: slash
Encoding: 47 47 18
Width: 742
GlyphClass: 1
Flags: W
LayerCount: 2
Fore
SplineSet
609 710 m 1,0,-1
 -28 0 l 1,1,-1
 159 0 l 1,2,-1
 796 710 l 1,3,-1
 609 710 l 1,0,-1
EndSplineSet
Substitution2: "'frac' Diagonal Fractions lookup 23 subtable" fraction
Substitution2: "'aalt' Access All Alternates lookup 0 subtable" fraction
EndChar

StartChar: zero
Encoding: 48 48 19
Width: 684
GlyphClass: 1
Flags: W
LayerCount: 2
Fore
SplineSet
276 -10 m 0,0,1
 357 -10 357 -10 427.5 29 c 128,-1,2
 498 68 498 68 551 130 c 128,-1,3
 604 192 604 192 634 268 c 128,-1,4
 664 344 664 344 664 417 c 0,5,6
 664 468 664 468 651 520.5 c 128,-1,7
 638 573 638 573 609 615 c 128,-1,8
 580 657 580 657 535.5 683.5 c 128,-1,9
 491 710 491 710 429 710 c 0,10,11
 349 710 349 710 278 670.5 c 128,-1,12
 207 631 207 631 154.5 568.5 c 128,-1,13
 102 506 102 506 71 430 c 128,-1,14
 40 354 40 354 40 280 c 0,15,16
 40 228 40 228 54 176.5 c 128,-1,17
 68 125 68 125 96.5 83.5 c 128,-1,18
 125 42 125 42 169.5 16 c 128,-1,19
 214 -10 214 -10 276 -10 c 0,0,1
309 145 m 0,20,21
 283 145 283 145 266 155.5 c 128,-1,22
 249 166 249 166 238 183.5 c 128,-1,23
 227 201 227 201 222 225 c 128,-1,24
 217 249 217 249 217 275 c 0,25,26
 217 313 217 313 228.5 361.5 c 128,-1,27
 240 410 240 410 263 453 c 128,-1,28
 286 496 286 496 319.5 525.5 c 128,-1,29
 353 555 353 555 396 555 c 0,30,31
 421 555 421 555 438 542.5 c 128,-1,32
 455 530 455 530 466 510 c 128,-1,33
 477 490 477 490 482 463.5 c 128,-1,34
 487 437 487 437 487 410 c 0,35,36
 487 372 487 372 475.5 326 c 128,-1,37
 464 280 464 280 441 239.5 c 128,-1,38
 418 199 418 199 384.5 172 c 128,-1,39
 351 145 351 145 309 145 c 0,20,21
EndSplineSet
Substitution2: "'frac' Diagonal Fractions lookup 24 subtable" zero.numr
Substitution2: "'dnom' Denominators lookup 22 subtable" zero.dnom
Substitution2: "'numr' Numerators lookup 21 subtable" zero.numr
Substitution2: "'sups' Superscript lookup 20 subtable" uni2070
Substitution2: "'sinf' Scientific Inferiors lookup 19 subtable" zero.subs
Substitution2: "'subs' Subscript lookup 18 subtable" uni2080
AlternateSubs2: "'aalt' Access All Alternates lookup 1 subtable" uni2080 zero.subs uni2070 zero.numr zero.dnom
EndChar

StartChar: one
Encoding: 49 49 20
Width: 461
GlyphClass: 1
Flags: W
LayerCount: 2
Fore
SplineSet
134 0 m 1,0,-1
 307 0 l 1,1,-1
 459 716 l 1,2,-1
 285 716 l 2,3,4
 284 715 284 715 266.5 699.5 c 128,-1,5
 249 684 249 684 222.5 666.5 c 128,-1,6
 196 649 196 649 165.5 634.5 c 128,-1,7
 135 620 135 620 109 620 c 1,8,-1
 76 465 l 1,9,10
 95 465 95 465 121 474 c 128,-1,11
 147 483 147 483 172.5 496.5 c 128,-1,12
 198 510 198 510 219.5 524.5 c 128,-1,13
 241 539 241 539 251 551 c 1,14,-1
 134 0 l 1,0,-1
EndSplineSet
Substitution2: "'frac' Diagonal Fractions lookup 24 subtable" one.numr
Substitution2: "'dnom' Denominators lookup 22 subtable" one.dnom
Substitution2: "'numr' Numerators lookup 21 subtable" one.numr
Substitution2: "'sups' Superscript lookup 20 subtable" onesuperior
Substitution2: "'sinf' Scientific Inferiors lookup 19 subtable" one.subs
Substitution2: "'subs' Subscript lookup 18 subtable" uni2081
AlternateSubs2: "'aalt' Access All Alternates lookup 1 subtable" uni2081 one.subs onesuperior one.numr one.dnom
EndChar

StartChar: two
Encoding: 50 50 21
Width: 604
GlyphClass: 1
Flags: W
LayerCount: 2
Fore
SplineSet
-24 0 m 1,0,-1
 490 0 l 1,1,-1
 522 152 l 1,2,-1
 217 152 l 1,3,4
 221 172 221 172 241 189 c 128,-1,5
 261 206 261 206 289 221 c 128,-1,6
 317 236 317 236 349 250 c 128,-1,7
 381 264 381 264 408 278 c 0,8,9
 456 305 456 305 492 330 c 128,-1,10
 528 355 528 355 552 385 c 128,-1,11
 576 415 576 415 588.5 453.5 c 128,-1,12
 601 492 601 492 601 543 c 0,13,14
 601 584 601 584 588 616.5 c 128,-1,15
 575 649 575 649 550 671.5 c 128,-1,16
 525 694 525 694 488 706 c 128,-1,17
 451 718 451 718 403 718 c 256,18,19
 355 718 355 718 311 708 c 128,-1,20
 267 698 267 698 228.5 681 c 128,-1,21
 190 664 190 664 158.5 644 c 128,-1,22
 127 624 127 624 105 604 c 1,23,-1
 186 491 l 1,24,25
 203 505 203 505 222 518.5 c 128,-1,26
 241 532 241 532 262.5 543 c 128,-1,27
 284 554 284 554 305.5 560.5 c 128,-1,28
 327 567 327 567 347 567 c 0,29,30
 359 567 359 567 369 563.5 c 128,-1,31
 379 560 379 560 386.5 553 c 128,-1,32
 394 546 394 546 398.5 535.5 c 128,-1,33
 403 525 403 525 403 511 c 0,34,35
 403 476 403 476 387.5 450.5 c 128,-1,36
 372 425 372 425 346 406 c 128,-1,37
 320 387 320 387 286.5 371 c 128,-1,38
 253 355 253 355 215 337 c 0,39,40
 156 311 156 311 117 281 c 128,-1,41
 78 251 78 251 51.5 211.5 c 128,-1,42
 25 172 25 172 8 120.5 c 128,-1,43
 -9 69 -9 69 -24 0 c 1,0,-1
EndSplineSet
Substitution2: "'frac' Diagonal Fractions lookup 24 subtable" two.numr
Substitution2: "'dnom' Denominators lookup 22 subtable" two.dnom
Substitution2: "'numr' Numerators lookup 21 subtable" two.numr
Substitution2: "'sups' Superscript lookup 20 subtable" twosuperior
Substitution2: "'sinf' Scientific Inferiors lookup 19 subtable" two.subs
Substitution2: "'subs' Subscript lookup 18 subtable" uni2082
AlternateSubs2: "'aalt' Access All Alternates lookup 1 subtable" uni2082 two.subs twosuperior two.numr two.dnom
EndChar

StartChar: three
Encoding: 51 51 22
Width: 553
GlyphClass: 1
Flags: W
LayerCount: 2
Fore
SplineSet
185 -9 m 0,0,1
 255 -9 255 -9 312.5 8 c 128,-1,2
 370 25 370 25 411.5 57 c 128,-1,3
 453 89 453 89 476 133.5 c 128,-1,4
 499 178 499 178 499 233 c 256,5,6
 499 288 499 288 472.5 327 c 128,-1,7
 446 366 446 366 399 375 c 1,8,9
 431 381 431 381 460 399 c 128,-1,10
 489 417 489 417 511.5 443 c 128,-1,11
 534 469 534 469 547 500.5 c 128,-1,12
 560 532 560 532 560 566 c 0,13,14
 560 599 560 599 546.5 626.5 c 128,-1,15
 533 654 533 654 507.5 673.5 c 128,-1,16
 482 693 482 693 445 703.5 c 128,-1,17
 408 714 408 714 362 714 c 0,18,19
 324 714 324 714 285.5 707 c 128,-1,20
 247 700 247 700 212.5 687.5 c 128,-1,21
 178 675 178 675 148.5 658 c 128,-1,22
 119 641 119 641 98 620 c 1,23,-1
 179 496 l 1,24,25
 208 532 208 532 242.5 550.5 c 128,-1,26
 277 569 277 569 312 569 c 0,27,28
 340 569 340 569 354.5 556.5 c 128,-1,29
 369 544 369 544 369 521 c 0,30,31
 369 500 369 500 360 483.5 c 128,-1,32
 351 467 351 467 334.5 454.5 c 128,-1,33
 318 442 318 442 295.5 435 c 128,-1,34
 273 428 273 428 246 428 c 2,35,-1
 205 428 l 1,36,-1
 179 308 l 1,37,-1
 217 308 l 2,38,39
 274 308 274 308 300.5 291 c 128,-1,40
 327 274 327 274 327 241 c 0,41,42
 327 218 327 218 320 200.5 c 128,-1,43
 313 183 313 183 298.5 170.5 c 128,-1,44
 284 158 284 158 262 152 c 128,-1,45
 240 146 240 146 209 146 c 0,46,47
 167 146 167 146 138 159 c 128,-1,48
 109 172 109 172 88 199 c 1,49,-1
 -26 77 l 1,50,51
 9 34 9 34 60.5 12.5 c 128,-1,52
 112 -9 112 -9 185 -9 c 0,0,1
EndSplineSet
Substitution2: "'frac' Diagonal Fractions lookup 24 subtable" three.numr
Substitution2: "'dnom' Denominators lookup 22 subtable" three.dnom
Substitution2: "'numr' Numerators lookup 21 subtable" three.numr
Substitution2: "'sups' Superscript lookup 20 subtable" threesuperior
Substitution2: "'sinf' Scientific Inferiors lookup 19 subtable" three.subs
Substitution2: "'subs' Subscript lookup 18 subtable" uni2083
AlternateSubs2: "'aalt' Access All Alternates lookup 1 subtable" uni2083 three.subs threesuperior three.numr three.dnom
EndChar

StartChar: four
Encoding: 52 52 23
Width: 571
GlyphClass: 1
Flags: W
LayerCount: 2
Fore
SplineSet
385 1 m 1,0,-1
 416 146 l 1,1,-1
 500 146 l 1,2,-1
 532 298 l 1,3,-1
 448 298 l 1,4,-1
 536 711 l 1,5,-1
 420 711 l 1,6,-1
 26 298 l 1,7,-1
 -6 146 l 1,8,-1
 246 146 l 1,9,-1
 216 1 l 1,10,-1
 385 1 l 1,0,-1
194 298 m 1,11,-1
 332 457 l 1,12,-1
 298 298 l 1,13,-1
 194 298 l 1,11,-1
EndSplineSet
Substitution2: "'frac' Diagonal Fractions lookup 24 subtable" four.numr
Substitution2: "'dnom' Denominators lookup 22 subtable" four.dnom
Substitution2: "'numr' Numerators lookup 21 subtable" four.numr
Substitution2: "'sups' Superscript lookup 20 subtable" uni2074
Substitution2: "'sinf' Scientific Inferiors lookup 19 subtable" four.subs
Substitution2: "'subs' Subscript lookup 18 subtable" uni2084
AlternateSubs2: "'aalt' Access All Alternates lookup 1 subtable" uni2084 four.subs uni2074 four.numr four.dnom
EndChar

StartChar: five
Encoding: 53 53 24
Width: 553
GlyphClass: 1
Flags: W
LayerCount: 2
Fore
SplineSet
190 -9 m 0,0,1
 256 -9 256 -9 313.5 12.5 c 128,-1,2
 371 34 371 34 414 73 c 128,-1,3
 457 112 457 112 482 164.5 c 128,-1,4
 507 217 507 217 507 280 c 0,5,6
 507 321 507 321 494.5 354.5 c 128,-1,7
 482 388 482 388 458 412 c 128,-1,8
 434 436 434 436 400.5 449.5 c 128,-1,9
 367 463 367 463 326 463 c 0,10,11
 301 463 301 463 287 458.5 c 128,-1,12
 273 454 273 454 270 449 c 1,13,-1
 307 556 l 1,14,-1
 521 556 l 1,15,-1
 554 711 l 1,16,-1
 217 711 l 1,17,18
 205 681 205 681 190.5 646.5 c 128,-1,19
 176 612 176 612 161.5 573.5 c 128,-1,20
 147 535 147 535 131.5 495.5 c 128,-1,21
 116 456 116 456 101.5 417.5 c 128,-1,22
 87 379 87 379 72.5 343 c 128,-1,23
 58 307 58 307 45 276 c 1,24,-1
 191 276 l 1,25,26
 205 296 205 296 226.5 307.5 c 128,-1,27
 248 319 248 319 270 319 c 0,28,29
 284 319 284 319 295 314 c 128,-1,30
 306 309 306 309 313 300 c 128,-1,31
 320 291 320 291 324 278.5 c 128,-1,32
 328 266 328 266 328 251 c 0,33,34
 328 227 328 227 320.5 206.5 c 128,-1,35
 313 186 313 186 298.5 171 c 128,-1,36
 284 156 284 156 265 147.5 c 128,-1,37
 246 139 246 139 222 139 c 0,38,39
 188 139 188 139 157 158.5 c 128,-1,40
 126 178 126 178 107 213 c 1,41,-1
 -9 107 l 1,42,43
 11 52 11 52 63.5 21.5 c 128,-1,44
 116 -9 116 -9 190 -9 c 0,0,1
EndSplineSet
Substitution2: "'frac' Diagonal Fractions lookup 24 subtable" five.numr
Substitution2: "'dnom' Denominators lookup 22 subtable" five.dnom
Substitution2: "'numr' Numerators lookup 21 subtable" five.numr
Substitution2: "'sups' Superscript lookup 20 subtable" uni2075
Substitution2: "'sinf' Scientific Inferiors lookup 19 subtable" five.subs
Substitution2: "'subs' Subscript lookup 18 subtable" uni2085
AlternateSubs2: "'aalt' Access All Alternates lookup 1 subtable" uni2085 five.subs uni2075 five.numr five.dnom
EndChar

StartChar: six
Encoding: 54 54 25
Width: 593
GlyphClass: 1
Flags: W
LayerCount: 2
Fore
SplineSet
235 -10 m 0,0,1
 187 -10 187 -10 151 6.5 c 128,-1,2
 115 23 115 23 90.5 54.5 c 128,-1,3
 66 86 66 86 53.5 130 c 128,-1,4
 41 174 41 174 41 230 c 0,5,6
 41 332 41 332 67.5 420.5 c 128,-1,7
 94 509 94 509 142 574.5 c 128,-1,8
 190 640 190 640 257.5 678 c 128,-1,9
 325 716 325 716 407 716 c 0,10,11
 469 716 469 716 517 690 c 128,-1,12
 565 664 565 664 598 614 c 1,13,-1
 480 506 l 1,14,15
 462 536 462 536 434.5 552.5 c 128,-1,16
 407 569 407 569 373 569 c 0,17,18
 347 569 347 569 324.5 559.5 c 128,-1,19
 302 550 302 550 283.5 531 c 128,-1,20
 265 512 265 512 250.5 485 c 128,-1,21
 236 458 236 458 227 423 c 1,22,23
 239 436 239 436 253 445 c 128,-1,24
 267 454 267 454 283.5 460.5 c 128,-1,25
 300 467 300 467 317 470 c 128,-1,26
 334 473 334 473 352 473 c 0,27,28
 395 473 395 473 431.5 458.5 c 128,-1,29
 468 444 468 444 493 418.5 c 128,-1,30
 518 393 518 393 531.5 358 c 128,-1,31
 545 323 545 323 545 281 c 0,32,33
 545 223 545 223 519.5 170 c 128,-1,34
 494 117 494 117 451 77 c 128,-1,35
 408 37 408 37 352 13.5 c 128,-1,36
 296 -10 296 -10 235 -10 c 0,0,1
265 132 m 0,37,38
 286 132 286 132 306.5 142.5 c 128,-1,39
 327 153 327 153 343.5 170.5 c 128,-1,40
 360 188 360 188 370 211 c 128,-1,41
 380 234 380 234 380 259 c 0,42,43
 380 276 380 276 375 291 c 128,-1,44
 370 306 370 306 360.5 317 c 128,-1,45
 351 328 351 328 338 334 c 128,-1,46
 325 340 325 340 309 340 c 0,47,48
 288 340 288 340 267.5 330 c 128,-1,49
 247 320 247 320 231 303.5 c 128,-1,50
 215 287 215 287 205.5 265 c 128,-1,51
 196 243 196 243 196 219 c 0,52,53
 196 201 196 201 201 185 c 128,-1,54
 206 169 206 169 215 157.5 c 128,-1,55
 224 146 224 146 237 139 c 128,-1,56
 250 132 250 132 265 132 c 0,37,38
EndSplineSet
Substitution2: "'frac' Diagonal Fractions lookup 24 subtable" six.numr
Substitution2: "'dnom' Denominators lookup 22 subtable" six.dnom
Substitution2: "'numr' Numerators lookup 21 subtable" six.numr
Substitution2: "'sups' Superscript lookup 20 subtable" uni2076
Substitution2: "'sinf' Scientific Inferiors lookup 19 subtable" six.subs
Substitution2: "'subs' Subscript lookup 18 subtable" uni2086
AlternateSubs2: "'aalt' Access All Alternates lookup 1 subtable" uni2086 six.subs uni2076 six.numr six.dnom
EndChar

StartChar: seven
Encoding: 55 55 26
Width: 571
GlyphClass: 1
Flags: W
LayerCount: 2
Fore
SplineSet
-16 1 m 1,0,-1
 176 1 l 1,1,-1
 658 711 l 1,2,-1
 123 711 l 1,3,-1
 90 556 l 1,4,-1
 358 556 l 1,5,-1
 -16 1 l 1,0,-1
EndSplineSet
Substitution2: "'frac' Diagonal Fractions lookup 24 subtable" seven.numr
Substitution2: "'dnom' Denominators lookup 22 subtable" seven.dnom
Substitution2: "'numr' Numerators lookup 21 subtable" seven.numr
Substitution2: "'sups' Superscript lookup 20 subtable" uni2077
Substitution2: "'sinf' Scientific Inferiors lookup 19 subtable" seven.subs
Substitution2: "'subs' Subscript lookup 18 subtable" uni2087
AlternateSubs2: "'aalt' Access All Alternates lookup 1 subtable" uni2087 seven.subs uni2077 seven.numr seven.dnom
EndChar

StartChar: eight
Encoding: 56 56 27
Width: 588
GlyphClass: 1
Flags: W
LayerCount: 2
Fore
SplineSet
532 250 m 0,0,1
 532 295 532 295 514.5 328 c 128,-1,2
 497 361 497 361 475 379 c 1,3,4
 494 389 494 389 512 405.5 c 128,-1,5
 530 422 530 422 544 442.5 c 128,-1,6
 558 463 558 463 566.5 488 c 128,-1,7
 575 513 575 513 575 538 c 0,8,9
 575 580 575 580 557.5 612 c 128,-1,10
 540 644 540 644 512 666 c 128,-1,11
 484 688 484 688 449 699 c 128,-1,12
 414 710 414 710 380 710 c 0,13,14
 337 710 337 710 288 694.5 c 128,-1,15
 239 679 239 679 197 649.5 c 128,-1,16
 155 620 155 620 127.5 577 c 128,-1,17
 100 534 100 534 100 479 c 0,18,19
 100 449 100 449 112 421.5 c 128,-1,20
 124 394 124 394 144 379 c 1,21,22
 124 367 124 367 102 348.5 c 128,-1,23
 80 330 80 330 61 306 c 128,-1,24
 42 282 42 282 30 251.5 c 128,-1,25
 18 221 18 221 18 183 c 0,26,27
 18 139 18 139 34 104 c 128,-1,28
 50 69 50 69 78 43.5 c 128,-1,29
 106 18 106 18 144.5 4 c 128,-1,30
 183 -10 183 -10 227 -10 c 0,31,32
 286 -10 286 -10 341.5 9.5 c 128,-1,33
 397 29 397 29 439 63.5 c 128,-1,34
 481 98 481 98 506.5 146 c 128,-1,35
 532 194 532 194 532 250 c 0,0,1
360 244 m 0,36,37
 360 224 360 224 352 205.5 c 128,-1,38
 344 187 344 187 330 173.5 c 128,-1,39
 316 160 316 160 298 152.5 c 128,-1,40
 280 145 280 145 260 145 c 0,41,42
 245 145 245 145 233.5 149.5 c 128,-1,43
 222 154 222 154 213.5 163 c 128,-1,44
 205 172 205 172 200 184 c 128,-1,45
 195 196 195 196 195 211 c 0,46,47
 195 233 195 233 203 250.5 c 128,-1,48
 211 268 211 268 224.5 281 c 128,-1,49
 238 294 238 294 256.5 301.5 c 128,-1,50
 275 309 275 309 295 309 c 0,51,52
 309 309 309 309 321.5 305 c 128,-1,53
 334 301 334 301 342 293 c 128,-1,54
 350 285 350 285 355 272.5 c 128,-1,55
 360 260 360 260 360 244 c 0,36,37
272 486 m 0,56,57
 272 502 272 502 278.5 516 c 128,-1,58
 285 530 285 530 295 539.5 c 128,-1,59
 305 549 305 549 319 555 c 128,-1,60
 333 561 333 561 348 561 c 0,61,62
 360 561 360 561 369.5 557 c 128,-1,63
 379 553 379 553 385.5 547 c 128,-1,64
 392 541 392 541 395.5 531.5 c 128,-1,65
 399 522 399 522 399 511 c 0,66,67
 399 493 399 493 391.5 479 c 128,-1,68
 384 465 384 465 373 455.5 c 128,-1,69
 362 446 362 446 348 441 c 128,-1,70
 334 436 334 436 321 436 c 0,71,72
 312 436 312 436 303.5 439 c 128,-1,73
 295 442 295 442 288 448.5 c 128,-1,74
 281 455 281 455 276.5 464.5 c 128,-1,75
 272 474 272 474 272 486 c 0,56,57
EndSplineSet
Substitution2: "'frac' Diagonal Fractions lookup 24 subtable" eight.numr
Substitution2: "'dnom' Denominators lookup 22 subtable" eight.dnom
Substitution2: "'numr' Numerators lookup 21 subtable" eight.numr
Substitution2: "'sups' Superscript lookup 20 subtable" uni2078
Substitution2: "'sinf' Scientific Inferiors lookup 19 subtable" eight.subs
Substitution2: "'subs' Subscript lookup 18 subtable" uni2088
AlternateSubs2: "'aalt' Access All Alternates lookup 1 subtable" uni2088 eight.subs uni2078 eight.numr eight.dnom
EndChar

StartChar: nine
Encoding: 57 57 28
Width: 574
GlyphClass: 1
Flags: W
LayerCount: 2
Fore
SplineSet
208 -9 m 0,0,1
 146 -9 146 -9 98 16.5 c 128,-1,2
 50 42 50 42 16 93 c 1,3,-1
 134 201 l 1,4,5
 152 171 152 171 180 154 c 128,-1,6
 208 137 208 137 242 137 c 0,7,8
 267 137 267 137 290 147 c 128,-1,9
 313 157 313 157 332 175.5 c 128,-1,10
 351 194 351 194 365.5 221 c 128,-1,11
 380 248 380 248 388 283 c 1,12,13
 376 271 376 271 361.5 262 c 128,-1,14
 347 253 347 253 331 246.5 c 128,-1,15
 315 240 315 240 297.5 236.5 c 128,-1,16
 280 233 280 233 263 233 c 0,17,18
 219 233 219 233 183.5 247.5 c 128,-1,19
 148 262 148 262 122.5 288 c 128,-1,20
 97 314 97 314 83.5 349 c 128,-1,21
 70 384 70 384 70 425 c 0,22,23
 70 484 70 484 95.5 537 c 128,-1,24
 121 590 121 590 163.5 630 c 128,-1,25
 206 670 206 670 262 693 c 128,-1,26
 318 716 318 716 379 716 c 0,27,28
 427 716 427 716 463 700 c 128,-1,29
 499 684 499 684 523.5 653 c 128,-1,30
 548 622 548 622 561 577 c 128,-1,31
 574 532 574 532 574 476 c 0,32,33
 574 374 574 374 547 285.5 c 128,-1,34
 520 197 520 197 472 131.5 c 128,-1,35
 424 66 424 66 357 28.5 c 128,-1,36
 290 -9 290 -9 208 -9 c 0,0,1
305 367 m 0,37,38
 327 367 327 367 347 376.5 c 128,-1,39
 367 386 367 386 383 402.5 c 128,-1,40
 399 419 399 419 409 441 c 128,-1,41
 419 463 419 463 419 487 c 0,42,43
 419 506 419 506 413.5 521.5 c 128,-1,44
 408 537 408 537 399 548.5 c 128,-1,45
 390 560 390 560 377 567 c 128,-1,46
 364 574 364 574 349 574 c 0,47,48
 329 574 329 574 308 563.5 c 128,-1,49
 287 553 287 553 271 535.5 c 128,-1,50
 255 518 255 518 244.5 495.5 c 128,-1,51
 234 473 234 473 234 448 c 0,52,53
 234 431 234 431 239 416 c 128,-1,54
 244 401 244 401 253.5 390 c 128,-1,55
 263 379 263 379 276 373 c 128,-1,56
 289 367 289 367 305 367 c 0,37,38
EndSplineSet
Substitution2: "'frac' Diagonal Fractions lookup 24 subtable" nine.numr
Substitution2: "'dnom' Denominators lookup 22 subtable" nine.dnom
Substitution2: "'numr' Numerators lookup 21 subtable" nine.numr
Substitution2: "'sups' Superscript lookup 20 subtable" uni2079
Substitution2: "'sinf' Scientific Inferiors lookup 19 subtable" nine.subs
Substitution2: "'subs' Subscript lookup 18 subtable" uni2089
AlternateSubs2: "'aalt' Access All Alternates lookup 1 subtable" uni2089 nine.subs uni2079 nine.numr nine.dnom
EndChar

StartChar: less
Encoding: 60 60 31
Width: 553
GlyphClass: 1
Flags: W
LayerCount: 2
Fore
SplineSet
28 215 m 1,0,-1
 452 -35 l 1,1,-1
 452 154 l 1,2,-1
 275 259 l 1,3,-1
 452 371 l 1,4,-1
 452 551 l 1,5,-1
 28 294 l 1,6,-1
 28 215 l 1,0,-1
EndSplineSet
EndChar

StartChar: equal
Encoding: 61 61 32
Width: 489
GlyphClass: 1
Flags: W
LayerCount: 2
Fore
SplineSet
398 117 m 1,0,-1
 398 225 l 1,1,-1
 79 225 l 1,2,-1
 79 117 l 1,3,-1
 398 117 l 1,0,-1
398 327 m 1,4,-1
 398 435 l 1,5,-1
 79 435 l 1,6,-1
 79 327 l 1,7,-1
 398 327 l 1,4,-1
EndSplineSet
EndChar

StartChar: greater
Encoding: 62 62 33
Width: 553
GlyphClass: 1
Flags: W
LayerCount: 2
Fore
SplineSet
505 294 m 1,0,-1
 82 551 l 1,1,-1
 82 371 l 1,2,-1
 259 259 l 1,3,-1
 82 154 l 1,4,-1
 82 -35 l 1,5,-1
 505 215 l 1,6,-1
 505 294 l 1,0,-1
EndSplineSet
EndChar

StartChar: question
Encoding: 63 63 34
Width: 478
GlyphClass: 1
Flags: W
LayerCount: 2
Fore
SplineSet
222 249 m 1,0,1
 225 270 225 270 239.5 283.5 c 128,-1,2
 254 297 254 297 274 309 c 128,-1,3
 294 321 294 321 317.5 332 c 128,-1,4
 341 343 341 343 364 357 c 0,5,6
 389 371 389 371 409 388 c 128,-1,7
 429 405 429 405 443.5 425 c 128,-1,8
 458 445 458 445 468.5 468 c 128,-1,9
 479 491 479 491 485 517 c 0,10,11
 496 572 496 572 485.5 610.5 c 128,-1,12
 475 649 475 649 451 673 c 128,-1,13
 427 697 427 697 392.5 708 c 128,-1,14
 358 719 358 719 322 719 c 0,15,16
 287 719 287 719 254.5 710 c 128,-1,17
 222 701 222 701 192 684.5 c 128,-1,18
 162 668 162 668 136.5 644 c 128,-1,19
 111 620 111 620 93 590 c 1,20,-1
 180 513 l 1,21,22
 189 523 189 523 199.5 535 c 128,-1,23
 210 547 210 547 223 557.5 c 128,-1,24
 236 568 236 568 252 575 c 128,-1,25
 268 582 268 582 286 582 c 0,26,27
 300 582 300 582 311.5 577.5 c 128,-1,28
 323 573 323 573 331 565 c 128,-1,29
 339 557 339 557 342.5 545 c 128,-1,30
 346 533 346 533 342 519 c 0,31,32
 338 495 338 495 319.5 476.5 c 128,-1,33
 301 458 301 458 278.5 443 c 128,-1,34
 256 428 256 428 233.5 417.5 c 128,-1,35
 211 407 211 407 197 400 c 0,36,37
 169 386 169 386 150 369 c 128,-1,38
 131 352 131 352 119 333 c 128,-1,39
 107 314 107 314 100 293 c 128,-1,40
 93 272 93 272 88 249 c 1,41,-1
 222 249 l 1,0,1
39 76 m 0,42,43
 31 41 31 41 49.5 15.5 c 128,-1,44
 68 -10 68 -10 103 -10 c 0,45,46
 120 -10 120 -10 137 -3 c 128,-1,47
 154 4 154 4 167.5 15.5 c 128,-1,48
 181 27 181 27 191 43 c 128,-1,49
 201 59 201 59 205 76 c 0,50,51
 212 112 212 112 193.5 137.5 c 128,-1,52
 175 163 175 163 140 163 c 0,53,54
 122 163 122 163 105.5 156 c 128,-1,55
 89 149 89 149 75.5 137.5 c 128,-1,56
 62 126 62 126 52 110.5 c 128,-1,57
 42 95 42 95 39 76 c 0,42,43
EndSplineSet
EndChar

StartChar: at
Encoding: 64 64 35
Width: 818
GlyphClass: 1
Flags: W
LayerCount: 2
Fore
SplineSet
584 57 m 0,0,1
 569 57 569 57 560.5 67 c 128,-1,2
 552 77 552 77 552 95 c 0,3,4
 552 102 552 102 553 110.5 c 128,-1,5
 554 119 554 119 556 128 c 2,6,-1
 618 450 l 1,7,-1
 541 450 l 1,8,-1
 529 388 l 1,9,10
 521 423 521 423 490 444.5 c 128,-1,11
 459 466 459 466 411 466 c 0,12,13
 362 466 362 466 316 442.5 c 128,-1,14
 270 419 270 419 235 379.5 c 128,-1,15
 200 340 200 340 179 288 c 128,-1,16
 158 236 158 236 158 179 c 0,17,18
 158 139 158 139 169.5 105 c 128,-1,19
 181 71 181 71 202 46.5 c 128,-1,20
 223 22 223 22 253 8.5 c 128,-1,21
 283 -5 283 -5 320 -5 c 0,22,23
 359 -5 359 -5 396.5 11.5 c 128,-1,24
 434 28 434 28 474 63 c 1,25,26
 473 60 473 60 473 56.5 c 128,-1,27
 473 53 473 53 473 49 c 0,28,29
 473 17 473 17 495 0.5 c 128,-1,30
 517 -16 517 -16 551 -16 c 0,31,32
 584 -16 584 -16 612.5 -2 c 128,-1,33
 641 12 641 12 665 35.5 c 128,-1,34
 689 59 689 59 708 91 c 128,-1,35
 727 123 727 123 740 159.5 c 128,-1,36
 753 196 753 196 759.5 235 c 128,-1,37
 766 274 766 274 766 312 c 0,38,39
 766 378 766 378 744.5 432 c 128,-1,40
 723 486 723 486 684.5 524 c 128,-1,41
 646 562 646 562 590.5 582.5 c 128,-1,42
 535 603 535 603 466 603 c 0,43,44
 376 603 376 603 294.5 568.5 c 128,-1,45
 213 534 213 534 151.5 474 c 128,-1,46
 90 414 90 414 54 332 c 128,-1,47
 18 250 18 250 18 156 c 0,48,49
 18 87 18 87 38 31.5 c 128,-1,50
 58 -24 58 -24 94.5 -63.5 c 128,-1,51
 131 -103 131 -103 183 -124.5 c 128,-1,52
 235 -146 235 -146 299 -146 c 0,53,54
 343 -146 343 -146 386.5 -136 c 128,-1,55
 430 -126 430 -126 472 -106 c 1,56,-1
 465 -44 l 1,57,58
 421 -63 421 -63 385 -72.5 c 128,-1,59
 349 -82 349 -82 312 -82 c 0,60,61
 259 -82 259 -82 217.5 -64.5 c 128,-1,62
 176 -47 176 -47 146.5 -15 c 128,-1,63
 117 17 117 17 101.5 62.5 c 128,-1,64
 86 108 86 108 86 164 c 0,65,66
 86 242 86 242 115 310.5 c 128,-1,67
 144 379 144 379 193.5 429.5 c 128,-1,68
 243 480 243 480 309 509.5 c 128,-1,69
 375 539 375 539 450 539 c 0,70,71
 508 539 508 539 554 521 c 128,-1,72
 600 503 600 503 631.5 470.5 c 128,-1,73
 663 438 663 438 680.5 393 c 128,-1,74
 698 348 698 348 698 293 c 0,75,76
 698 252 698 252 688.5 210 c 128,-1,77
 679 168 679 168 663.5 134 c 128,-1,78
 648 100 648 100 627.5 78.5 c 128,-1,79
 607 57 607 57 584 57 c 0,0,1
353 75 m 0,80,81
 328 75 328 75 310 84 c 128,-1,82
 292 93 292 93 280.5 108.5 c 128,-1,83
 269 124 269 124 263 144.5 c 128,-1,84
 257 165 257 165 257 189 c 0,85,86
 257 227 257 227 270 260.5 c 128,-1,87
 283 294 283 294 304 319 c 128,-1,88
 325 344 325 344 351 358 c 128,-1,89
 377 372 377 372 404 372 c 0,90,91
 439 372 439 372 461 348 c 128,-1,92
 483 324 483 324 488 287 c 1,93,-1
 471 168 l 1,94,95
 462 147 462 147 450 130 c 128,-1,96
 438 113 438 113 423.5 100.5 c 128,-1,97
 409 88 409 88 391 81.5 c 128,-1,98
 373 75 373 75 353 75 c 0,80,81
EndSplineSet
EndChar

StartChar: A
Encoding: 65 65 36
Width: 639
GlyphClass: 1
Flags: W
LayerCount: 2
Fore
SplineSet
-58 0 m 1,0,-1
 120 0 l 1,1,-1
 196 153 l 1,2,-1
 388 153 l 1,3,-1
 400 0 l 1,4,-1
 578 0 l 1,5,-1
 490 710 l 1,6,-1
 332 710 l 1,7,-1
 -58 0 l 1,0,-1
248 271 m 1,8,-1
 369 512 l 1,9,-1
 385 271 l 1,10,-1
 248 271 l 1,8,-1
EndSplineSet
Substitution2: "Single Substitution lookup 46 subtable" ordfeminine
Substitution2: "'aalt' Access All Alternates lookup 0 subtable" ordfeminine
EndChar

StartChar: B
Encoding: 66 66 37
Width: 663
GlyphClass: 1
Flags: W
LayerCount: 2
Fore
SplineSet
2 0 m 1,0,-1
 332 0 l 2,1,2
 387 0 387 0 438 13.5 c 128,-1,3
 489 27 489 27 528 54.5 c 128,-1,4
 567 82 567 82 590.5 124 c 128,-1,5
 614 166 614 166 614 224 c 0,6,7
 614 278 614 278 589.5 314 c 128,-1,8
 565 350 565 350 521 364 c 1,9,10
 553 378 553 378 578.5 399.5 c 128,-1,11
 604 421 604 421 621.5 448 c 128,-1,12
 639 475 639 475 648.5 504.5 c 128,-1,13
 658 534 658 534 658 564 c 0,14,15
 658 592 658 592 650.5 618.5 c 128,-1,16
 643 645 643 645 628 665 c 128,-1,17
 613 685 613 685 590.5 697.5 c 128,-1,18
 568 710 568 710 538 710 c 2,19,-1
 153 710 l 1,20,-1
 2 0 l 1,0,-1
207 147 m 1,21,-1
 237 291 l 1,22,-1
 400 291 l 2,23,24
 410 291 410 291 417.5 286.5 c 128,-1,25
 425 282 425 282 430.5 274.5 c 128,-1,26
 436 267 436 267 438.5 257 c 128,-1,27
 441 247 441 247 441 235 c 0,28,29
 441 216 441 216 434.5 199.5 c 128,-1,30
 428 183 428 183 417.5 171.5 c 128,-1,31
 407 160 407 160 392.5 153.5 c 128,-1,32
 378 147 378 147 363 147 c 2,33,-1
 207 147 l 1,21,-1
266 427 m 1,34,-1
 295 562 l 1,35,-1
 437 562 l 2,36,37
 445 562 445 562 452.5 559 c 128,-1,38
 460 556 460 556 465 549.5 c 128,-1,39
 470 543 470 543 473 534 c 128,-1,40
 476 525 476 525 476 513 c 0,41,42
 476 490 476 490 469.5 474 c 128,-1,43
 463 458 463 458 452.5 447.5 c 128,-1,44
 442 437 442 437 429 432 c 128,-1,45
 416 427 416 427 403 427 c 2,46,-1
 266 427 l 1,34,-1
EndSplineSet
EndChar

StartChar: C
Encoding: 67 67 38
Width: 662
GlyphClass: 1
Flags: W
LayerCount: 2
Fore
SplineSet
300 -6 m 0,0,1
 342 -6 342 -6 388.5 5 c 128,-1,2
 435 16 435 16 478.5 36.5 c 128,-1,3
 522 57 522 57 559 88 c 128,-1,4
 596 119 596 119 619 159 c 1,5,-1
 495 243 l 1,6,7
 480 218 480 218 461 200 c 128,-1,8
 442 182 442 182 421 170.5 c 128,-1,9
 400 159 400 159 377.5 154 c 128,-1,10
 355 149 355 149 336 149 c 0,11,12
 304 149 304 149 280 161.5 c 128,-1,13
 256 174 256 174 240.5 196 c 128,-1,14
 225 218 225 218 217 247 c 128,-1,15
 209 276 209 276 209 309 c 0,16,17
 209 350 209 350 222.5 394 c 128,-1,18
 236 438 236 438 262.5 475 c 128,-1,19
 289 512 289 512 328.5 535.5 c 128,-1,20
 368 559 368 559 420 559 c 0,21,22
 439 559 439 559 459.5 555 c 128,-1,23
 480 551 480 551 497.5 540.5 c 128,-1,24
 515 530 515 530 527.5 511.5 c 128,-1,25
 540 493 540 493 545 466 c 1,26,-1
 697 559 l 1,27,28
 687 594 687 594 666.5 622.5 c 128,-1,29
 646 651 646 651 615 671.5 c 128,-1,30
 584 692 584 692 544 703 c 128,-1,31
 504 714 504 714 455 714 c 0,32,33
 362 714 362 714 284.5 676.5 c 128,-1,34
 207 639 207 639 151 579 c 128,-1,35
 95 519 95 519 63 444.5 c 128,-1,36
 31 370 31 370 31 296 c 0,37,38
 31 239 31 239 49 184 c 128,-1,39
 67 129 67 129 101.5 87 c 128,-1,40
 136 45 136 45 186 19.5 c 128,-1,41
 236 -6 236 -6 300 -6 c 0,0,1
EndSplineSet
EndChar

StartChar: D
Encoding: 68 68 39
Width: 693
GlyphClass: 1
Flags: W
LayerCount: 2
Fore
SplineSet
2 0 m 1,0,-1
 258 0 l 2,1,2
 349 0 349 0 426.5 32.5 c 128,-1,3
 504 65 504 65 561 123 c 128,-1,4
 618 181 618 181 650 260.5 c 128,-1,5
 682 340 682 340 682 434 c 0,6,7
 682 492 682 492 666 542 c 128,-1,8
 650 592 650 592 616 629.5 c 128,-1,9
 582 667 582 667 530.5 688.5 c 128,-1,10
 479 710 479 710 409 710 c 2,11,-1
 153 710 l 1,12,-1
 2 0 l 1,0,-1
208 152 m 1,13,-1
 294 558 l 1,14,-1
 377 558 l 2,15,16
 408 558 408 558 431.5 547.5 c 128,-1,17
 455 537 455 537 471 517 c 128,-1,18
 487 497 487 497 495 469.5 c 128,-1,19
 503 442 503 442 503 409 c 0,20,21
 503 357 503 357 487.5 311 c 128,-1,22
 472 265 472 265 444 229.5 c 128,-1,23
 416 194 416 194 377 173 c 128,-1,24
 338 152 338 152 290 152 c 2,25,-1
 208 152 l 1,13,-1
EndSplineSet
EndChar

StartChar: E
Encoding: 69 69 40
Width: 576
GlyphClass: 1
Flags: W
LayerCount: 2
Fore
SplineSet
2 0 m 1,0,-1
 480 0 l 1,1,-1
 512 152 l 1,2,-1
 208 152 l 1,3,-1
 237 291 l 1,4,-1
 490 291 l 1,5,-1
 521 432 l 1,6,-1
 268 432 l 1,7,-1
 294 558 l 1,8,-1
 590 558 l 1,9,-1
 622 710 l 1,10,-1
 153 710 l 1,11,-1
 2 0 l 1,0,-1
EndSplineSet
EndChar

StartChar: F
Encoding: 70 70 41
Width: 550
GlyphClass: 1
Flags: W
LayerCount: 2
Fore
SplineSet
2 0 m 1,0,-1
 176 0 l 1,1,-1
 234 275 l 1,2,-1
 469 275 l 1,3,-1
 499 416 l 1,4,-1
 264 416 l 1,5,-1
 294 558 l 1,6,-1
 581 558 l 1,7,-1
 613 710 l 1,8,-1
 153 710 l 1,9,-1
 2 0 l 1,0,-1
EndSplineSet
EndChar

StartChar: G
Encoding: 71 71 42
Width: 704
GlyphClass: 1
Flags: W
LayerCount: 2
Fore
SplineSet
290 -5 m 0,0,1
 331 -5 331 -5 367 -0.5 c 128,-1,2
 403 4 403 4 439.5 16 c 128,-1,3
 476 28 476 28 514.5 49 c 128,-1,4
 553 70 553 70 597 104 c 1,5,-1
 658 390 l 1,6,-1
 355 390 l 1,7,-1
 328 246 l 1,8,-1
 456 246 l 1,9,-1
 442 177 l 1,10,11
 424 168 424 168 412 161.5 c 128,-1,12
 400 155 400 155 387.5 152 c 128,-1,13
 375 149 375 149 360.5 147.5 c 128,-1,14
 346 146 346 146 323 146 c 0,15,16
 281 146 281 146 254.5 166 c 128,-1,17
 228 186 228 186 215 216 c 128,-1,18
 202 246 202 246 201 283.5 c 128,-1,19
 200 321 200 321 208 356 c 0,20,21
 217 394 217 394 234 430.5 c 128,-1,22
 251 467 251 467 277 496 c 128,-1,23
 303 525 303 525 335.5 542.5 c 128,-1,24
 368 560 368 560 407 560 c 0,25,26
 440 560 440 560 461.5 548 c 128,-1,27
 483 536 483 536 496 519.5 c 128,-1,28
 509 503 509 503 515.5 486 c 128,-1,29
 522 469 522 469 524 460 c 1,30,-1
 680 569 l 1,31,32
 657 639 657 639 597.5 677 c 128,-1,33
 538 715 538 715 450 715 c 0,34,35
 372 715 372 715 304 685.5 c 128,-1,36
 236 656 236 656 182 606.5 c 128,-1,37
 128 557 128 557 91 491.5 c 128,-1,38
 54 426 54 426 39 356 c 0,39,40
 24 287 24 287 32 222 c 128,-1,41
 40 157 40 157 71 106.5 c 128,-1,42
 102 56 102 56 157 25.5 c 128,-1,43
 212 -5 212 -5 290 -5 c 0,0,1
EndSplineSet
Substitution2: "'ss11' Style Set 11 lookup 42 subtable" G.ss11
Substitution2: "'aalt' Access All Alternates lookup 0 subtable" G.ss11
EndChar

StartChar: H
Encoding: 72 72 43
Width: 722
GlyphClass: 1
Flags: W
LayerCount: 2
Fore
SplineSet
2 0 m 1,0,-1
 176 0 l 1,1,-1
 237 287 l 1,2,-1
 479 287 l 1,3,-1
 418 0 l 1,4,-1
 592 0 l 1,5,-1
 743 710 l 1,6,-1
 569 710 l 1,7,-1
 511 439 l 1,8,-1
 269 439 l 1,9,-1
 327 710 l 1,10,-1
 153 710 l 1,11,-1
 2 0 l 1,0,-1
EndSplineSet
EndChar

StartChar: I
Encoding: 73 73 44
Width: 305
GlyphClass: 1
Flags: W
LayerCount: 2
Fore
SplineSet
2 0 m 1,0,-1
 176 0 l 1,1,-1
 327 710 l 1,2,-1
 153 710 l 1,3,-1
 2 0 l 1,0,-1
EndSplineSet
EndChar

StartChar: J
Encoding: 74 74 45
Width: 576
GlyphClass: 2
Flags: W
LayerCount: 2
Fore
SplineSet
145 236 m 1,0,1
 150 221 150 221 157 205.5 c 128,-1,2
 164 190 164 190 174.5 177.5 c 128,-1,3
 185 165 185 165 198.5 157 c 128,-1,4
 212 149 212 149 231 149 c 0,5,6
 254 149 254 149 271.5 159.5 c 128,-1,7
 289 170 289 170 300.5 187 c 128,-1,8
 312 204 312 204 320 224.5 c 128,-1,9
 328 245 328 245 331 265 c 2,10,-1
 420 710 l 1,11,-1
 592 710 l 1,12,-1
 499 246 l 2,13,14
 489 193 489 193 462 146.5 c 128,-1,15
 435 100 435 100 395.5 66 c 128,-1,16
 356 32 356 32 306 12.5 c 128,-1,17
 256 -7 256 -7 201 -7 c 0,18,19
 159 -7 159 -7 124.5 6.5 c 128,-1,20
 90 20 90 20 64.5 44 c 128,-1,21
 39 68 39 68 21 101 c 128,-1,22
 3 134 3 134 -6 173 c 1,23,-1
 145 236 l 1,0,1
EndSplineSet
EndChar

StartChar: K
Encoding: 75 75 46
Width: 657
GlyphClass: 1
Flags: W
LayerCount: 2
Fore
SplineSet
2 0 m 1,0,-1
 176 0 l 1,1,-1
 220 207 l 1,2,-1
 293 278 l 1,3,-1
 410 0 l 1,4,-1
 610 0 l 1,5,-1
 428 393 l 1,6,-1
 744 710 l 1,7,-1
 548 710 l 1,8,-1
 264 415 l 1,9,-1
 327 710 l 1,10,-1
 153 710 l 1,11,-1
 2 0 l 1,0,-1
EndSplineSet
EndChar

StartChar: L
Encoding: 76 76 47
Width: 563
GlyphClass: 1
Flags: W
LayerCount: 2
Fore
SplineSet
2 0 m 1,0,-1
 489 0 l 1,1,-1
 522 152 l 1,2,-1
 208 152 l 1,3,-1
 327 710 l 1,4,-1
 153 710 l 1,5,-1
 2 0 l 1,0,-1
EndSplineSet
EndChar

StartChar: M
Encoding: 77 77 48
Width: 824
GlyphClass: 1
Flags: W
LayerCount: 2
Fore
SplineSet
2 0 m 1,0,-1
 176 0 l 1,1,-1
 263 409 l 1,2,-1
 326 114 l 1,3,-1
 418 114 l 1,4,-1
 607 409 l 1,5,-1
 520 0 l 1,6,-1
 694 0 l 1,7,-1
 845 710 l 1,8,-1
 657 710 l 1,9,-1
 422 351 l 1,10,-1
 342 710 l 1,11,-1
 153 710 l 1,12,-1
 2 0 l 1,0,-1
EndSplineSet
EndChar

StartChar: N
Encoding: 78 78 49
Width: 728
GlyphClass: 1
Flags: W
LayerCount: 2
Fore
SplineSet
2 0 m 1,0,-1
 176 0 l 1,1,-1
 258 388 l 1,2,-1
 460 0 l 1,3,-1
 598 0 l 1,4,-1
 749 710 l 1,5,-1
 575 710 l 1,6,-1
 491 311 l 1,7,-1
 288 710 l 1,8,-1
 153 710 l 1,9,-1
 2 0 l 1,0,-1
EndSplineSet
EndChar

StartChar: O
Encoding: 79 79 50
Width: 735
GlyphClass: 1
Flags: W
LayerCount: 2
Fore
SplineSet
301 -6 m 0,0,1
 386 -6 386 -6 463 30 c 128,-1,2
 540 66 540 66 598.5 125 c 128,-1,3
 657 184 657 184 691.5 260.5 c 128,-1,4
 726 337 726 337 726 417 c 0,5,6
 726 475 726 475 708.5 528 c 128,-1,7
 691 581 691 581 657 622.5 c 128,-1,8
 623 664 623 664 573 689 c 128,-1,9
 523 714 523 714 458 714 c 0,10,11
 374 714 374 714 296.5 678.5 c 128,-1,12
 219 643 219 643 160 584 c 128,-1,13
 101 525 101 525 66 448.5 c 128,-1,14
 31 372 31 372 31 291 c 0,15,16
 31 233 31 233 49 179.5 c 128,-1,17
 67 126 67 126 101 85 c 128,-1,18
 135 44 135 44 186 19 c 128,-1,19
 237 -6 237 -6 301 -6 c 0,0,1
335 149 m 0,20,21
 303 149 303 149 279 161.5 c 128,-1,22
 255 174 255 174 240 196 c 128,-1,23
 225 218 225 218 217.5 246 c 128,-1,24
 210 274 210 274 210 305 c 0,25,26
 210 348 210 348 224.5 393 c 128,-1,27
 239 438 239 438 266 475 c 128,-1,28
 293 512 293 512 332.5 535.5 c 128,-1,29
 372 559 372 559 422 559 c 0,30,31
 455 559 455 559 479 547 c 128,-1,32
 503 535 503 535 518.5 513.5 c 128,-1,33
 534 492 534 492 541.5 464 c 128,-1,34
 549 436 549 436 549 405 c 0,35,36
 549 362 549 362 534.5 317 c 128,-1,37
 520 272 520 272 492.5 234.5 c 128,-1,38
 465 197 465 197 425.5 173 c 128,-1,39
 386 149 386 149 335 149 c 0,20,21
EndSplineSet
Substitution2: "Single Substitution lookup 46 subtable" ordmasculine
Substitution2: "'aalt' Access All Alternates lookup 0 subtable" ordmasculine
EndChar

StartChar: P
Encoding: 80 80 51
Width: 602
GlyphClass: 1
Flags: W
LayerCount: 2
Fore
SplineSet
2 0 m 1,0,-1
 176 0 l 1,1,-1
 223 225 l 1,2,-1
 344 225 l 2,3,4
 401 225 401 225 451 250.5 c 128,-1,5
 501 276 501 276 538.5 316 c 128,-1,6
 576 356 576 356 598.5 406.5 c 128,-1,7
 621 457 621 457 621 508 c 0,8,9
 621 547 621 547 608.5 583.5 c 128,-1,10
 596 620 596 620 573 648 c 128,-1,11
 550 676 550 676 517.5 693 c 128,-1,12
 485 710 485 710 443 710 c 2,13,-1
 153 710 l 1,14,-1
 2 0 l 1,0,-1
256 377 m 1,15,-1
 294 558 l 1,16,-1
 398 558 l 2,17,18
 407 558 407 558 414.5 554.5 c 128,-1,19
 422 551 422 551 428.5 543 c 128,-1,20
 435 535 435 535 438.5 523 c 128,-1,21
 442 511 442 511 442 494 c 0,22,23
 442 466 442 466 435 444.5 c 128,-1,24
 428 423 428 423 417 408 c 128,-1,25
 406 393 406 393 392 385 c 128,-1,26
 378 377 378 377 365 377 c 2,27,-1
 256 377 l 1,15,-1
EndSplineSet
EndChar

StartChar: Q
Encoding: 81 81 52
Width: 735
GlyphClass: 1
Flags: W
LayerCount: 2
Fore
SplineSet
301 -6 m 0,0,1
 386 -6 386 -6 463 30 c 128,-1,2
 540 66 540 66 598.5 125 c 128,-1,3
 657 184 657 184 691.5 260.5 c 128,-1,4
 726 337 726 337 726 417 c 0,5,6
 726 475 726 475 708.5 528 c 128,-1,7
 691 581 691 581 657 622.5 c 128,-1,8
 623 664 623 664 573 689 c 128,-1,9
 523 714 523 714 458 714 c 0,10,11
 374 714 374 714 296.5 678.5 c 128,-1,12
 219 643 219 643 160 584 c 128,-1,13
 101 525 101 525 66 448.5 c 128,-1,14
 31 372 31 372 31 291 c 0,15,16
 31 233 31 233 49 179.5 c 128,-1,17
 67 126 67 126 101 85 c 128,-1,18
 135 44 135 44 186 19 c 128,-1,19
 237 -6 237 -6 301 -6 c 0,0,1
335 149 m 0,20,21
 303 149 303 149 279 161.5 c 128,-1,22
 255 174 255 174 240 196 c 128,-1,23
 225 218 225 218 217.5 246 c 128,-1,24
 210 274 210 274 210 305 c 0,25,26
 210 348 210 348 224.5 393 c 128,-1,27
 239 438 239 438 266 475 c 128,-1,28
 293 512 293 512 332.5 535.5 c 128,-1,29
 372 559 372 559 422 559 c 0,30,31
 455 559 455 559 479 547 c 128,-1,32
 503 535 503 535 518.5 513.5 c 128,-1,33
 534 492 534 492 541.5 464 c 128,-1,34
 549 436 549 436 549 405 c 0,35,36
 549 362 549 362 534.5 317 c 128,-1,37
 520 272 520 272 492.5 234.5 c 128,-1,38
 465 197 465 197 425.5 173 c 128,-1,39
 386 149 386 149 335 149 c 0,20,21
559 -26 m 1,40,-1
 659 58 l 1,41,-1
 437 347 l 1,42,-1
 339 263 l 1,43,-1
 559 -26 l 1,40,-1
EndSplineSet
EndChar

StartChar: R
Encoding: 82 82 53
Width: 649
GlyphClass: 1
Flags: W
LayerCount: 2
Fore
SplineSet
176 0 m 1,0,-1
 223 225 l 1,1,-1
 305 225 l 1,2,-1
 380 0 l 1,3,-1
 576 0 l 1,4,-1
 487 263 l 1,5,6
 521 282 521 282 548.5 309 c 128,-1,7
 576 336 576 336 596 368.5 c 128,-1,8
 616 401 616 401 627 436.5 c 128,-1,9
 638 472 638 472 638 508 c 0,10,11
 638 547 638 547 626 583.5 c 128,-1,12
 614 620 614 620 591.5 648 c 128,-1,13
 569 676 569 676 535.5 693 c 128,-1,14
 502 710 502 710 460 710 c 2,15,-1
 153 710 l 1,16,-1
 2 0 l 1,17,-1
 176 0 l 1,0,-1
256 377 m 1,18,-1
 294 558 l 1,19,-1
 416 558 l 2,20,21
 425 558 425 558 432.5 553.5 c 128,-1,22
 440 549 440 549 446 540 c 128,-1,23
 452 531 452 531 455.5 518.5 c 128,-1,24
 459 506 459 506 459 490 c 0,25,26
 459 467 459 467 451.5 446.5 c 128,-1,27
 444 426 444 426 433 410.5 c 128,-1,28
 422 395 422 395 408.5 386 c 128,-1,29
 395 377 395 377 383 377 c 2,30,-1
 256 377 l 1,18,-1
EndSplineSet
EndChar

StartChar: S
Encoding: 83 83 54
Width: 594
GlyphClass: 1
Flags: W
LayerCount: 2
Fore
SplineSet
244 -9 m 0,0,1
 300 -9 300 -9 355 5.5 c 128,-1,2
 410 20 410 20 454 51 c 128,-1,3
 498 82 498 82 525.5 132.5 c 128,-1,4
 553 183 553 183 553 255 c 0,5,6
 553 292 553 292 541 319 c 128,-1,7
 529 346 529 346 507 366 c 128,-1,8
 485 386 485 386 454 401 c 128,-1,9
 423 416 423 416 386 428 c 0,10,11
 359 437 359 437 338 444.5 c 128,-1,12
 317 452 317 452 302 459.5 c 128,-1,13
 287 467 287 467 279 476.5 c 128,-1,14
 271 486 271 486 271 500 c 0,15,16
 271 515 271 515 276.5 526.5 c 128,-1,17
 282 538 282 538 292 545.5 c 128,-1,18
 302 553 302 553 316.5 557 c 128,-1,19
 331 561 331 561 348 561 c 0,20,21
 378 561 378 561 407.5 552 c 128,-1,22
 437 543 437 543 460 531 c 128,-1,23
 483 519 483 519 498 508 c 128,-1,24
 513 497 513 497 513 495 c 1,25,-1
 619 638 l 1,26,27
 599 651 599 651 574 665 c 128,-1,28
 549 679 549 679 519.5 690 c 128,-1,29
 490 701 490 701 456.5 708.5 c 128,-1,30
 423 716 423 716 387 716 c 0,31,32
 329 716 329 716 274 697.5 c 128,-1,33
 219 679 219 679 175.5 643.5 c 128,-1,34
 132 608 132 608 106 557 c 128,-1,35
 80 506 80 506 80 441 c 0,36,37
 80 412 80 412 88.5 388.5 c 128,-1,38
 97 365 97 365 115 346.5 c 128,-1,39
 133 328 133 328 159 313 c 128,-1,40
 185 298 185 298 219 285 c 0,41,42
 247 275 247 275 272 267 c 128,-1,43
 297 259 297 259 315.5 250 c 128,-1,44
 334 241 334 241 345.5 230 c 128,-1,45
 357 219 357 219 357 203 c 0,46,47
 357 192 357 192 353 182 c 128,-1,48
 349 172 349 172 340 164.5 c 128,-1,49
 331 157 331 157 316.5 152.5 c 128,-1,50
 302 148 302 148 280 148 c 0,51,52
 241 148 241 148 205 159.5 c 128,-1,53
 169 171 169 171 141.5 185.5 c 128,-1,54
 114 200 114 200 97 213 c 128,-1,55
 80 226 80 226 79 230 c 1,56,-1
 -29 78 l 1,57,58
 -3 58 -3 58 29 42 c 128,-1,59
 61 26 61 26 96.5 15 c 128,-1,60
 132 4 132 4 169.5 -2.5 c 128,-1,61
 207 -9 207 -9 244 -9 c 0,0,1
EndSplineSet
EndChar

StartChar: T
Encoding: 84 84 55
Width: 597
GlyphClass: 1
Flags: W
LayerCount: 2
Fore
SplineSet
148 0 m 1,0,-1
 322 0 l 1,1,-1
 441 558 l 1,2,-1
 639 558 l 1,3,-1
 671 710 l 1,4,-1
 100 710 l 1,5,-1
 68 558 l 1,6,-1
 267 558 l 1,7,-1
 148 0 l 1,0,-1
EndSplineSet
EndChar

StartChar: U
Encoding: 85 85 56
Width: 715
GlyphClass: 1
Flags: W
LayerCount: 2
Fore
SplineSet
292 -6 m 0,0,1
 370 -6 370 -6 433 21.5 c 128,-1,2
 496 49 496 49 543.5 96.5 c 128,-1,3
 591 144 591 144 622.5 208.5 c 128,-1,4
 654 273 654 273 670 346 c 2,5,-1
 747 710 l 1,6,-1
 573 710 l 1,7,-1
 496 346 l 2,8,9
 488 309 488 309 473.5 273 c 128,-1,10
 459 237 459 237 437.5 209.5 c 128,-1,11
 416 182 416 182 388.5 165.5 c 128,-1,12
 361 149 361 149 325 149 c 0,13,14
 299 149 299 149 281.5 158 c 128,-1,15
 264 167 264 167 252 183 c 128,-1,16
 240 199 240 199 235 221 c 128,-1,17
 230 243 230 243 230 269 c 0,18,19
 230 287 230 287 232.5 306.5 c 128,-1,20
 235 326 235 326 239 346 c 2,21,-1
 317 710 l 1,22,-1
 143 710 l 1,23,-1
 65 346 l 2,24,25
 59 318 59 318 56 290.5 c 128,-1,26
 53 263 53 263 53 237 c 0,27,28
 53 185 53 185 66 141 c 128,-1,29
 79 97 79 97 108 64 c 128,-1,30
 137 31 137 31 182.5 12.5 c 128,-1,31
 228 -6 228 -6 292 -6 c 0,0,1
EndSplineSet
EndChar

StartChar: V
Encoding: 86 86 57
Width: 643
GlyphClass: 1
Flags: W
LayerCount: 2
Fore
SplineSet
182 0 m 1,0,-1
 327 0 l 1,1,-1
 729 710 l 1,2,-1
 546 710 l 1,3,-1
 301 219 l 1,4,-1
 264 710 l 1,5,-1
 80 710 l 1,6,-1
 182 0 l 1,0,-1
EndSplineSet
EndChar

StartChar: W
Encoding: 87 87 58
Width: 998
GlyphClass: 1
Flags: W
LayerCount: 2
Fore
SplineSet
142 0 m 1,0,-1
 296 0 l 1,1,-1
 530 456 l 1,2,-1
 591 1 l 1,3,-1
 743 1 l 1,4,-1
 1070 710 l 1,5,-1
 907 710 l 1,6,-1
 694 223 l 1,7,-1
 661 709 l 1,8,-1
 500 709 l 1,9,-1
 277 221 l 1,10,-1
 253 709 l 1,11,-1
 90 709 l 1,12,-1
 142 0 l 1,0,-1
EndSplineSet
Substitution2: "'ss09' Style Set 9 lookup 40 subtable" W.ss09
Substitution2: "'aalt' Access All Alternates lookup 0 subtable" W.ss09
EndChar

StartChar: X
Encoding: 88 88 59
Width: 627
GlyphClass: 1
Flags: W
LayerCount: 2
Fore
SplineSet
-63 0 m 1,0,-1
 126 0 l 1,1,-1
 298 228 l 1,2,-1
 373 0 l 1,3,-1
 561 0 l 1,4,-1
 415 350 l 1,5,-1
 720 710 l 1,6,-1
 532 710 l 1,7,-1
 350 472 l 1,8,-1
 269 710 l 1,9,-1
 80 710 l 1,10,-1
 232 350 l 1,11,-1
 -63 0 l 1,0,-1
EndSplineSet
EndChar

StartChar: Y
Encoding: 89 89 60
Width: 624
GlyphClass: 1
Flags: W
LayerCount: 2
Fore
SplineSet
156 0 m 1,0,-1
 329 0 l 1,1,-1
 380 240 l 1,2,-1
 716 710 l 1,3,-1
 527 710 l 1,4,-1
 326 390 l 1,5,-1
 264 710 l 1,6,-1
 75 710 l 1,7,-1
 208 242 l 1,8,-1
 156 0 l 1,0,-1
EndSplineSet
EndChar

StartChar: Z
Encoding: 90 90 61
Width: 594
GlyphClass: 1
Flags: W
LayerCount: 2
Fore
SplineSet
-36 0 m 1,0,-1
 499 0 l 1,1,-1
 531 152 l 1,2,-1
 214 152 l 1,3,-1
 617 580 l 1,4,-1
 645 710 l 1,5,-1
 128 710 l 1,6,-1
 96 558 l 1,7,-1
 411 558 l 1,8,-1
 -9 130 l 1,9,-1
 -36 0 l 1,0,-1
EndSplineSet
EndChar

StartChar: bracketleft
Encoding: 91 91 62
Width: 330
GlyphClass: 1
Flags: W
LayerCount: 2
Fore
SplineSet
216 -40 m 1,0,-1
 244 94 l 1,1,-1
 179 94 l 1,2,-1
 288 606 l 1,3,-1
 352 606 l 1,4,-1
 381 740 l 1,5,-1
 160 740 l 1,6,-1
 -6 -40 l 1,7,-1
 216 -40 l 1,0,-1
EndSplineSet
EndChar

StartChar: backslash
Encoding: 92 92 63
Width: 642
GlyphClass: 1
Flags: W
LayerCount: 2
Fore
SplineSet
106 710 m 1,0,-1
 369 0 l 1,1,-1
 556 0 l 1,2,-1
 294 710 l 1,3,-1
 106 710 l 1,0,-1
EndSplineSet
EndChar

StartChar: bracketright
Encoding: 93 93 64
Width: 331
GlyphClass: 1
Flags: W
LayerCount: 2
Fore
SplineSet
192 -40 m 1,0,-1
 357 740 l 1,1,-1
 136 740 l 1,2,-1
 107 606 l 1,3,-1
 173 606 l 1,4,-1
 64 94 l 1,5,-1
 -2 94 l 1,6,-1
 -30 -40 l 1,7,-1
 192 -40 l 1,0,-1
EndSplineSet
EndChar

StartChar: asciicircum
Encoding: 94 94 65
Width: 615
GlyphClass: 1
Flags: W
LayerCount: 2
Fore
SplineSet
181 303 m 1,0,-1
 314 571 l 1,1,-1
 444 303 l 1,2,-1
 582 303 l 1,3,-1
 385 710 l 1,4,-1
 243 710 l 1,5,-1
 45 303 l 1,6,-1
 181 303 l 1,0,-1
EndSplineSet
EndChar

StartChar: underscore
Encoding: 95 95 66
Width: 435
GlyphClass: 1
Flags: W
LayerCount: 2
Fore
SplineSet
290 -152 m 1,0,-1
 322 0 l 1,1,-1
 -16 0 l 1,2,-1
 -48 -152 l 1,3,-1
 290 -152 l 1,0,-1
EndSplineSet
EndChar

StartChar: a
Encoding: 97 97 68
Width: 622
GlyphClass: 1
Flags: W
LayerCount: 2
Fore
SplineSet
196 -10 m 0,0,1
 246 -10 246 -10 284.5 11.5 c 128,-1,2
 323 33 323 33 353 75 c 1,3,-1
 337 0 l 1,4,-1
 506 0 l 1,5,-1
 616 518 l 1,6,-1
 446 518 l 1,7,-1
 430 442 l 1,8,9
 417 486 417 486 381.5 510.5 c 128,-1,10
 346 535 346 535 295 535 c 0,11,12
 239 535 239 535 187 508.5 c 128,-1,13
 135 482 135 482 96 436 c 128,-1,14
 57 390 57 390 33.5 330.5 c 128,-1,15
 10 271 10 271 10 204 c 0,16,17
 10 157 10 157 23 117.5 c 128,-1,18
 36 78 36 78 60 50 c 128,-1,19
 84 22 84 22 118.5 6 c 128,-1,20
 153 -10 153 -10 196 -10 c 0,0,1
271 133 m 0,21,22
 252 133 252 133 236.5 140.5 c 128,-1,23
 221 148 221 148 210.5 161 c 128,-1,24
 200 174 200 174 194.5 192 c 128,-1,25
 189 210 189 210 189 231 c 0,26,27
 189 261 189 261 200 290 c 128,-1,28
 211 319 211 319 229.5 341.5 c 128,-1,29
 248 364 248 364 271 378 c 128,-1,30
 294 392 294 392 319 392 c 0,31,32
 335 392 335 392 348.5 385.5 c 128,-1,33
 362 379 362 379 372.5 368 c 128,-1,34
 383 357 383 357 390.5 340.5 c 128,-1,35
 398 324 398 324 401 304 c 1,36,-1
 379 200 l 1,37,38
 366 184 366 184 353.5 171.5 c 128,-1,39
 341 159 341 159 327.5 150.5 c 128,-1,40
 314 142 314 142 300 137.5 c 128,-1,41
 286 133 286 133 271 133 c 0,21,22
EndSplineSet
Substitution2: "Single Substitution lookup 46 subtable" ordfeminine
Substitution2: "'ss02' Style Set 2 lookup 33 subtable" a.ss02
Substitution2: "'ss01' Style Set 1 lookup 32 subtable" a.ss01
Substitution2: "'salt' Stylistic Alternatives lookup 31 subtable" a.ss01
AlternateSubs2: "'aalt' Access All Alternates lookup 1 subtable" ordfeminine a.ss01 a.ss02
EndChar

StartChar: b
Encoding: 98 98 69
Width: 621
GlyphClass: 1
Flags: W
LayerCount: 2
Fore
SplineSet
297 -10 m 0,0,1
 355 -10 355 -10 409 16 c 128,-1,2
 463 42 463 42 504.5 87.5 c 128,-1,3
 546 133 546 133 570.5 193.5 c 128,-1,4
 595 254 595 254 595 324 c 0,5,6
 595 369 595 369 584 408 c 128,-1,7
 573 447 573 447 551.5 475 c 128,-1,8
 530 503 530 503 498.5 519 c 128,-1,9
 467 535 467 535 426 535 c 0,10,11
 374 535 374 535 328 510 c 128,-1,12
 282 485 282 485 252 442 c 1,13,-1
 313 730 l 1,14,-1
 143 730 l 1,15,-1
 -12 0 l 1,16,-1
 136 0 l 1,17,-1
 154 85 l 1,18,19
 161 63 161 63 173.5 45 c 128,-1,20
 186 27 186 27 204 15 c 128,-1,21
 222 3 222 3 245.5 -3.5 c 128,-1,22
 269 -10 269 -10 297 -10 c 0,0,1
282 133 m 0,23,24
 266 133 266 133 253.5 137.5 c 128,-1,25
 241 142 241 142 230.5 150.5 c 128,-1,26
 220 159 220 159 213 171.5 c 128,-1,27
 206 184 206 184 200 200 c 1,28,-1
 222 305 l 1,29,30
 234 324 234 324 248 340 c 128,-1,31
 262 356 262 356 277.5 367.5 c 128,-1,32
 293 379 293 379 309.5 385.5 c 128,-1,33
 326 392 326 392 342 392 c 0,34,35
 360 392 360 392 373.5 384 c 128,-1,36
 387 376 387 376 396.5 362.5 c 128,-1,37
 406 349 406 349 411.5 330 c 128,-1,38
 417 311 417 311 417 290 c 0,39,40
 417 258 417 258 405.5 229.5 c 128,-1,41
 394 201 394 201 375.5 179.5 c 128,-1,42
 357 158 357 158 333 145.5 c 128,-1,43
 309 133 309 133 282 133 c 0,23,24
EndSplineSet
EndChar

StartChar: c
Encoding: 99 99 70
Width: 550
GlyphClass: 1
Flags: W
LayerCount: 2
Fore
SplineSet
231 -10 m 0,0,1
 275 -10 275 -10 314.5 0.5 c 128,-1,2
 354 11 354 11 388.5 29.5 c 128,-1,3
 423 48 423 48 451 74 c 128,-1,4
 479 100 479 100 500 131 c 1,5,-1
 346 181 l 1,6,7
 338 170 338 170 328 161 c 128,-1,8
 318 152 318 152 306.5 146 c 128,-1,9
 295 140 295 140 283.5 136.5 c 128,-1,10
 272 133 272 133 260 133 c 0,11,12
 243 133 243 133 229.5 140 c 128,-1,13
 216 147 216 147 206.5 159.5 c 128,-1,14
 197 172 197 172 191.5 190 c 128,-1,15
 186 208 186 208 186 230 c 0,16,17
 186 265 186 265 196.5 295 c 128,-1,18
 207 325 207 325 225.5 346.5 c 128,-1,19
 244 368 244 368 267 380 c 128,-1,20
 290 392 290 392 315 392 c 0,21,22
 339 392 339 392 355.5 380 c 128,-1,23
 372 368 372 368 381 345 c 1,24,-1
 556 395 l 1,25,26
 539 457 539 457 487.5 496 c 128,-1,27
 436 535 436 535 346 535 c 0,28,29
 270 535 270 535 208 507.5 c 128,-1,30
 146 480 146 480 101.5 434.5 c 128,-1,31
 57 389 57 389 33 330.5 c 128,-1,32
 9 272 9 272 9 211 c 0,33,34
 9 166 9 166 23 126 c 128,-1,35
 37 86 37 86 64.5 56 c 128,-1,36
 92 26 92 26 134 8 c 128,-1,37
 176 -10 176 -10 231 -10 c 0,0,1
EndSplineSet
EndChar

StartChar: d
Encoding: 100 100 71
Width: 622
GlyphClass: 1
Flags: W
LayerCount: 2
Fore
SplineSet
196 -10 m 0,0,1
 221 -10 221 -10 243 -4.5 c 128,-1,2
 265 1 265 1 284 11 c 128,-1,3
 303 21 303 21 320 37 c 128,-1,4
 337 53 337 53 352 74 c 1,5,-1
 337 0 l 1,6,-1
 505 0 l 1,7,-1
 660 730 l 1,8,-1
 491 730 l 1,9,-1
 429 442 l 1,10,11
 423 464 423 464 411 480.5 c 128,-1,12
 399 497 399 497 381.5 509.5 c 128,-1,13
 364 522 364 522 341.5 528.5 c 128,-1,14
 319 535 319 535 294 535 c 0,15,16
 238 535 238 535 187 508.5 c 128,-1,17
 136 482 136 482 96.5 436 c 128,-1,18
 57 390 57 390 33.5 330 c 128,-1,19
 10 270 10 270 10 203 c 0,20,21
 10 157 10 157 23 117.5 c 128,-1,22
 36 78 36 78 60 50 c 128,-1,23
 84 22 84 22 118.5 6 c 128,-1,24
 153 -10 153 -10 196 -10 c 0,0,1
271 133 m 0,25,26
 253 133 253 133 237 140.5 c 128,-1,27
 221 148 221 148 210.5 161 c 128,-1,28
 200 174 200 174 194.5 192 c 128,-1,29
 189 210 189 210 189 231 c 0,30,31
 189 261 189 261 199.5 290.5 c 128,-1,32
 210 320 210 320 228.5 342 c 128,-1,33
 247 364 247 364 270 378 c 128,-1,34
 293 392 293 392 318 392 c 0,35,36
 334 392 334 392 347.5 385.5 c 128,-1,37
 361 379 361 379 372.5 368 c 128,-1,38
 384 357 384 357 391.5 341 c 128,-1,39
 399 325 399 325 402 305 c 1,40,-1
 380 200 l 1,41,42
 368 185 368 185 355 172 c 128,-1,43
 342 159 342 159 328 150.5 c 128,-1,44
 314 142 314 142 300 137.5 c 128,-1,45
 286 133 286 133 271 133 c 0,25,26
EndSplineSet
Substitution2: "'ss03' Style Set 3 lookup 34 subtable" d.ss03
Substitution2: "'aalt' Access All Alternates lookup 0 subtable" d.ss03
EndChar

StartChar: e
Encoding: 101 101 72
Width: 561
GlyphClass: 1
Flags: W
LayerCount: 2
Fore
SplineSet
232 -10 m 0,0,1
 272 -10 272 -10 312 0 c 128,-1,2
 352 10 352 10 388.5 28.5 c 128,-1,3
 425 47 425 47 455.5 73 c 128,-1,4
 486 99 486 99 507 130 c 1,5,-1
 374 173 l 1,6,7
 365 158 365 158 353 147 c 128,-1,8
 341 136 341 136 327 128 c 128,-1,9
 313 120 313 120 297 116 c 128,-1,10
 281 112 281 112 264 112 c 0,11,12
 243 112 243 112 228.5 118 c 128,-1,13
 214 124 214 124 204.5 135.5 c 128,-1,14
 195 147 195 147 190.5 164.5 c 128,-1,15
 186 182 186 182 186 205 c 0,16,17
 186 245 186 245 196 283 c 128,-1,18
 206 321 206 321 224 350 c 128,-1,19
 242 379 242 379 267 396.5 c 128,-1,20
 292 414 292 414 323 414 c 0,21,22
 336 414 336 414 347.5 410.5 c 128,-1,23
 359 407 359 407 367 401.5 c 128,-1,24
 375 396 375 396 379.5 387.5 c 128,-1,25
 384 379 384 379 384 368 c 0,26,27
 384 354 384 354 376 343.5 c 128,-1,28
 368 333 368 333 350 326 c 128,-1,29
 332 319 332 319 303 315.5 c 128,-1,30
 274 312 274 312 233 312 c 0,31,32
 203 312 203 312 175 313.5 c 128,-1,33
 147 315 147 315 119 318 c 1,34,-1
 95 216 l 1,35,36
 131 212 131 212 166.5 210.5 c 128,-1,37
 202 209 202 209 233 209 c 0,38,39
 390 209 390 209 469 253 c 128,-1,40
 548 297 548 297 548 384 c 0,41,42
 548 420 548 420 534.5 448 c 128,-1,43
 521 476 521 476 495.5 495.5 c 128,-1,44
 470 515 470 515 433.5 525 c 128,-1,45
 397 535 397 535 351 535 c 0,46,47
 280 535 280 535 217.5 509.5 c 128,-1,48
 155 484 155 484 109 440 c 128,-1,49
 63 396 63 396 36.5 338 c 128,-1,50
 10 280 10 280 10 213 c 0,51,52
 10 163 10 163 25.5 122 c 128,-1,53
 41 81 41 81 70 51.5 c 128,-1,54
 99 22 99 22 140 6 c 128,-1,55
 181 -10 181 -10 232 -10 c 0,0,1
EndSplineSet
EndChar

StartChar: f
Encoding: 102 102 73
Width: 382
GlyphClass: 1
Flags: W
LayerCount: 2
Fore
SplineSet
-25 -213 m 1,0,-1
 144 -213 l 1,1,-1
 264 348 l 1,2,-1
 375 348 l 1,3,-1
 403 476 l 1,4,-1
 291 476 l 1,5,-1
 302 530 l 2,6,7
 309 564 309 564 325 580.5 c 128,-1,8
 341 597 341 597 365 597 c 0,9,10
 380 597 380 597 398 592.5 c 128,-1,11
 416 588 416 588 430 581 c 1,12,-1
 487 710 l 1,13,14
 454 725 454 725 421.5 732.5 c 128,-1,15
 389 740 389 740 358 740 c 0,16,17
 317 740 317 740 280.5 725 c 128,-1,18
 244 710 244 710 214 681.5 c 128,-1,19
 184 653 184 653 163 613.5 c 128,-1,20
 142 574 142 574 132 524 c 2,21,-1
 122 476 l 1,22,-1
 60 476 l 1,23,-1
 32 348 l 1,24,-1
 94 348 l 1,25,-1
 -25 -213 l 1,0,-1
EndSplineSet
EndChar

StartChar: g
Encoding: 103 103 74
Width: 621
GlyphClass: 1
Flags: W
LayerCount: 2
Fore
SplineSet
160 -223 m 0,0,1
 227 -223 227 -223 285.5 -204.5 c 128,-1,2
 344 -186 344 -186 390.5 -152 c 128,-1,3
 437 -118 437 -118 469 -69.5 c 128,-1,4
 501 -21 501 -21 513 40 c 2,5,-1
 617 525 l 1,6,-1
 469 525 l 1,7,-1
 451 442 l 1,8,9
 444 464 444 464 431 481 c 128,-1,10
 418 498 418 498 400 510.5 c 128,-1,11
 382 523 382 523 359 529 c 128,-1,12
 336 535 336 535 309 535 c 0,13,14
 249 535 249 535 195 509 c 128,-1,15
 141 483 141 483 100 438 c 128,-1,16
 59 393 59 393 35 332.5 c 128,-1,17
 11 272 11 272 11 205 c 0,18,19
 11 161 11 161 22 123 c 128,-1,20
 33 85 33 85 55 58 c 128,-1,21
 77 31 77 31 109 15 c 128,-1,22
 141 -1 141 -1 181 -1 c 0,23,24
 205 -1 205 -1 229 4.5 c 128,-1,25
 253 10 253 10 276 21 c 128,-1,26
 299 32 299 32 318.5 48 c 128,-1,27
 338 64 338 64 353 85 c 1,28,-1
 344 40 l 2,29,30
 336 3 336 3 320.5 -23 c 128,-1,31
 305 -49 305 -49 284 -65 c 128,-1,32
 263 -81 263 -81 237.5 -89 c 128,-1,33
 212 -97 212 -97 186 -97 c 0,34,35
 142 -97 142 -97 106.5 -77.5 c 128,-1,36
 71 -58 71 -58 50 -27 c 1,37,-1
 -60 -119 l 1,38,39
 -43 -144 -43 -144 -21.5 -163.5 c 128,-1,40
 0 -183 0 -183 27 -196 c 128,-1,41
 54 -209 54 -209 87 -216 c 128,-1,42
 120 -223 120 -223 160 -223 c 0,0,1
270 133 m 0,43,44
 252 133 252 133 236 140.5 c 128,-1,45
 220 148 220 148 209.5 161 c 128,-1,46
 199 174 199 174 193 192 c 128,-1,47
 187 210 187 210 187 231 c 0,48,49
 187 261 187 261 198 290 c 128,-1,50
 209 319 209 319 227.5 341.5 c 128,-1,51
 246 364 246 364 269 378 c 128,-1,52
 292 392 292 392 317 392 c 0,53,54
 333 392 333 392 347 385.5 c 128,-1,55
 361 379 361 379 371.5 368 c 128,-1,56
 382 357 382 357 389.5 341 c 128,-1,57
 397 325 397 325 400 305 c 1,58,-1
 378 200 l 1,59,60
 366 185 366 185 353.5 172.5 c 128,-1,61
 341 160 341 160 327 151.5 c 128,-1,62
 313 143 313 143 299 138 c 128,-1,63
 285 133 285 133 270 133 c 0,43,44
EndSplineSet
EndChar

StartChar: h
Encoding: 104 104 75
Width: 594
GlyphClass: 1
Flags: W
LayerCount: 2
Fore
SplineSet
-12 0 m 1,0,-1
 158 0 l 1,1,-1
 222 299 l 1,2,3
 232 319 232 319 246.5 335 c 128,-1,4
 261 351 261 351 276.5 362.5 c 128,-1,5
 292 374 292 374 307 380 c 128,-1,6
 322 386 322 386 332 386 c 0,7,8
 354 386 354 386 367 373 c 128,-1,9
 380 360 380 360 380 330 c 0,10,11
 380 323 380 323 379.5 314.5 c 128,-1,12
 379 306 379 306 376 295 c 2,13,-1
 313 0 l 1,14,-1
 483 0 l 1,15,-1
 555 339 l 2,16,17
 559 358 559 358 561.5 377.5 c 128,-1,18
 564 397 564 397 564 416 c 0,19,20
 564 440 564 440 558 461.5 c 128,-1,21
 552 483 552 483 538 499.5 c 128,-1,22
 524 516 524 516 500.5 525.5 c 128,-1,23
 477 535 477 535 440 535 c 0,24,25
 413 535 413 535 387 529 c 128,-1,26
 361 523 361 523 337 510.5 c 128,-1,27
 313 498 313 498 291.5 480.5 c 128,-1,28
 270 463 270 463 251 440 c 1,29,-1
 313 730 l 1,30,-1
 143 730 l 1,31,-1
 -12 0 l 1,0,-1
EndSplineSet
EndChar

StartChar: k
Encoding: 107 107 78
Width: 574
GlyphClass: 1
Flags: W
LayerCount: 2
Fore
SplineSet
320 0 m 1,0,-1
 499 0 l 1,1,-1
 415 195 l 1,2,3
 481 232 481 232 516.5 288 c 128,-1,4
 552 344 552 344 552 411 c 0,5,6
 552 468 552 468 523 499.5 c 128,-1,7
 494 531 494 531 439 531 c 0,8,9
 407 531 407 531 376.5 520 c 128,-1,10
 346 509 346 509 318.5 487.5 c 128,-1,11
 291 466 291 466 267 435 c 128,-1,12
 243 404 243 404 223 365 c 1,13,-1
 195 203 l 1,14,15
 205 240 205 240 222.5 273 c 128,-1,16
 240 306 240 306 262.5 331.5 c 128,-1,17
 285 357 285 357 309.5 372 c 128,-1,18
 334 387 334 387 356 387 c 0,19,20
 376 387 376 387 388 375 c 128,-1,21
 400 363 400 363 400 342 c 0,22,23
 400 302 400 302 356.5 270 c 128,-1,24
 313 238 313 238 236 223 c 1,25,-1
 320 0 l 1,0,-1
-12 0 m 1,26,-1
 156 0 l 1,27,-1
 311 730 l 1,28,-1
 143 730 l 1,29,-1
 -12 0 l 1,26,-1
EndSplineSet
EndChar

StartChar: l
Encoding: 108 108 79
Width: 332
GlyphClass: 1
Flags: W
LayerCount: 2
Fore
SplineSet
128 -9 m 0,0,1
 162 -9 162 -9 203.5 -1 c 128,-1,2
 245 7 245 7 278 22 c 1,3,-1
 283 148 l 1,4,5
 270 142 270 142 256 138 c 128,-1,6
 242 134 242 134 231 134 c 0,7,8
 212 134 212 134 202.5 144 c 128,-1,9
 193 154 193 154 193 173 c 0,10,11
 193 178 193 178 193.5 183 c 128,-1,12
 194 188 194 188 196 194 c 2,13,-1
 310 730 l 1,14,-1
 140 730 l 1,15,-1
 14 134 l 2,16,17
 11 123 11 123 10 112.5 c 128,-1,18
 9 102 9 102 9 92 c 0,19,20
 9 43 9 43 39 17 c 128,-1,21
 69 -9 69 -9 128 -9 c 0,0,1
EndSplineSet
Substitution2: "'ss05' Style Set 5 lookup 36 subtable" l.ss05
Substitution2: "'aalt' Access All Alternates lookup 0 subtable" l.ss05
EndChar

StartChar: m
Encoding: 109 109 80
Width: 899
GlyphClass: 1
Flags: W
LayerCount: 2
Fore
SplineSet
-12 0 m 1,0,-1
 158 0 l 1,1,-1
 222 299 l 1,2,3
 231 317 231 317 244 333.5 c 128,-1,4
 257 350 257 350 272 361.5 c 128,-1,5
 287 373 287 373 302 379.5 c 128,-1,6
 317 386 317 386 330 386 c 0,7,8
 348 386 348 386 359 373.5 c 128,-1,9
 370 361 370 361 370 333 c 0,10,11
 370 325 370 325 369.5 315.5 c 128,-1,12
 369 306 369 306 366 295 c 2,13,-1
 303 0 l 1,14,-1
 473 0 l 1,15,-1
 536 299 l 1,16,17
 546 318 546 318 559 333.5 c 128,-1,18
 572 349 572 349 586.5 361 c 128,-1,19
 601 373 601 373 616 379.5 c 128,-1,20
 631 386 631 386 644 386 c 0,21,22
 662 386 662 386 673 373 c 128,-1,23
 684 360 684 360 684 333 c 0,24,25
 684 325 684 325 683.5 315.5 c 128,-1,26
 683 306 683 306 680 295 c 2,27,-1
 617 0 l 1,28,-1
 787 0 l 1,29,-1
 860 339 l 2,30,31
 865 367 865 367 867 386 c 128,-1,32
 869 405 869 405 869 417 c 0,33,34
 869 440 869 440 864 461.5 c 128,-1,35
 859 483 859 483 845 499 c 128,-1,36
 831 515 831 515 809 525 c 128,-1,37
 787 535 787 535 751 535 c 0,38,39
 723 535 723 535 695.5 528.5 c 128,-1,40
 668 522 668 522 643 509.5 c 128,-1,41
 618 497 618 497 595 478.5 c 128,-1,42
 572 460 572 460 553 437 c 1,43,44
 552 457 552 457 545.5 475 c 128,-1,45
 539 493 539 493 525 506.5 c 128,-1,46
 511 520 511 520 488.5 527.5 c 128,-1,47
 466 535 466 535 434 535 c 0,48,49
 377 535 377 535 323.5 510.5 c 128,-1,50
 270 486 270 486 234 440 c 1,51,-1
 253 525 l 1,52,-1
 100 525 l 1,53,-1
 -12 0 l 1,0,-1
EndSplineSet
EndChar

StartChar: n
Encoding: 110 110 81
Width: 594
GlyphClass: 1
Flags: W
LayerCount: 2
Fore
SplineSet
-12 0 m 1,0,-1
 158 0 l 1,1,-1
 222 299 l 1,2,3
 232 319 232 319 246.5 334.5 c 128,-1,4
 261 350 261 350 276 361.5 c 128,-1,5
 291 373 291 373 306.5 379.5 c 128,-1,6
 322 386 322 386 335 386 c 0,7,8
 355 386 355 386 367.5 373 c 128,-1,9
 380 360 380 360 380 331 c 0,10,11
 380 323 380 323 379.5 314.5 c 128,-1,12
 379 306 379 306 376 295 c 2,13,-1
 313 0 l 1,14,-1
 483 0 l 1,15,-1
 555 339 l 2,16,17
 558 357 558 357 560.5 376.5 c 128,-1,18
 563 396 563 396 563 415 c 0,19,20
 563 439 563 439 558 460.5 c 128,-1,21
 553 482 553 482 539.5 498.5 c 128,-1,22
 526 515 526 515 503 525 c 128,-1,23
 480 535 480 535 445 535 c 0,24,25
 412 535 412 535 382 529 c 128,-1,26
 352 523 352 523 325.5 510.5 c 128,-1,27
 299 498 299 498 276 480.5 c 128,-1,28
 253 463 253 463 234 440 c 1,29,-1
 253 525 l 1,30,-1
 100 525 l 1,31,-1
 -12 0 l 1,0,-1
EndSplineSet
EndChar

StartChar: o
Encoding: 111 111 82
Width: 592
GlyphClass: 1
Flags: W
LayerCount: 2
Fore
SplineSet
238 -10 m 0,0,1
 313 -10 313 -10 373.5 16.5 c 128,-1,2
 434 43 434 43 477 87.5 c 128,-1,3
 520 132 520 132 543 190.5 c 128,-1,4
 566 249 566 249 566 312 c 0,5,6
 566 358 566 358 553 398.5 c 128,-1,7
 540 439 540 439 512.5 469.5 c 128,-1,8
 485 500 485 500 442 517.5 c 128,-1,9
 399 535 399 535 338 535 c 0,10,11
 263 535 263 535 202.5 508.5 c 128,-1,12
 142 482 142 482 99.5 438 c 128,-1,13
 57 394 57 394 33.5 335.5 c 128,-1,14
 10 277 10 277 10 213 c 0,15,16
 10 167 10 167 23 126.5 c 128,-1,17
 36 86 36 86 63.5 55.5 c 128,-1,18
 91 25 91 25 134 7.5 c 128,-1,19
 177 -10 177 -10 238 -10 c 0,0,1
262 133 m 0,20,21
 244 133 244 133 230 140 c 128,-1,22
 216 147 216 147 206 160 c 128,-1,23
 196 173 196 173 191.5 191 c 128,-1,24
 187 209 187 209 187 232 c 0,25,26
 187 266 187 266 197.5 295 c 128,-1,27
 208 324 208 324 225.5 345.5 c 128,-1,28
 243 367 243 367 266 379.5 c 128,-1,29
 289 392 289 392 314 392 c 0,30,31
 332 392 332 392 346 385 c 128,-1,32
 360 378 360 378 370 365 c 128,-1,33
 380 352 380 352 384.5 334 c 128,-1,34
 389 316 389 316 389 293 c 0,35,36
 389 259 389 259 378.5 229.5 c 128,-1,37
 368 200 368 200 350.5 179 c 128,-1,38
 333 158 333 158 310 145.5 c 128,-1,39
 287 133 287 133 262 133 c 0,20,21
EndSplineSet
Substitution2: "Single Substitution lookup 46 subtable" ordmasculine
Substitution2: "'aalt' Access All Alternates lookup 0 subtable" ordmasculine
EndChar

StartChar: p
Encoding: 112 112 83
Width: 621
GlyphClass: 1
Flags: W
LayerCount: 2
Fore
SplineSet
-58 -213 m 1,0,-1
 112 -213 l 1,1,-1
 175 83 l 1,2,3
 182 61 182 61 194 44 c 128,-1,4
 206 27 206 27 223.5 14.5 c 128,-1,5
 241 2 241 2 263.5 -4 c 128,-1,6
 286 -10 286 -10 314 -10 c 0,7,8
 369 -10 369 -10 419.5 17 c 128,-1,9
 470 44 470 44 509 89.5 c 128,-1,10
 548 135 548 135 571 195.5 c 128,-1,11
 594 256 594 256 594 322 c 0,12,13
 594 367 594 367 581.5 406.5 c 128,-1,14
 569 446 569 446 545.5 474 c 128,-1,15
 522 502 522 502 488.5 518.5 c 128,-1,16
 455 535 455 535 413 535 c 0,17,18
 385 535 385 535 359.5 528.5 c 128,-1,19
 334 522 334 522 311 510.5 c 128,-1,20
 288 499 288 499 267.5 481.5 c 128,-1,21
 247 464 247 464 229 442 c 1,22,-1
 247 525 l 1,23,-1
 99 525 l 1,24,-1
 -58 -213 l 1,0,-1
286 133 m 0,25,26
 271 133 271 133 257.5 140 c 128,-1,27
 244 147 244 147 233 159 c 128,-1,28
 222 171 222 171 215 187.5 c 128,-1,29
 208 204 208 204 204 223 c 1,30,-1
 227 325 l 1,31,32
 238 341 238 341 251 353.5 c 128,-1,33
 264 366 264 366 277.5 374 c 128,-1,34
 291 382 291 382 305 387 c 128,-1,35
 319 392 319 392 333 392 c 0,36,37
 353 392 353 392 368.5 384.5 c 128,-1,38
 384 377 384 377 394.5 364 c 128,-1,39
 405 351 405 351 411 333.5 c 128,-1,40
 417 316 417 316 417 294 c 0,41,42
 417 263 417 263 406 234 c 128,-1,43
 395 205 395 205 376.5 183 c 128,-1,44
 358 161 358 161 334.5 147 c 128,-1,45
 311 133 311 133 286 133 c 0,25,26
EndSplineSet
EndChar

StartChar: q
Encoding: 113 113 84
Width: 621
GlyphClass: 1
Flags: W
LayerCount: 2
Fore
SplineSet
290 -214 m 1,0,-1
 459 -214 l 1,1,-1
 616 525 l 1,2,-1
 469 525 l 1,3,-1
 451 441 l 1,4,5
 442 462 442 462 429.5 479.5 c 128,-1,6
 417 497 417 497 399 509.5 c 128,-1,7
 381 522 381 522 358.5 528.5 c 128,-1,8
 336 535 336 535 307 535 c 0,9,10
 250 535 250 535 196 509 c 128,-1,11
 142 483 142 483 100.5 437.5 c 128,-1,12
 59 392 59 392 34.5 331.5 c 128,-1,13
 10 271 10 271 10 201 c 0,14,15
 10 155 10 155 21.5 116.5 c 128,-1,16
 33 78 33 78 54 50 c 128,-1,17
 75 22 75 22 105.5 6 c 128,-1,18
 136 -10 136 -10 174 -10 c 0,19,20
 229 -10 229 -10 275 13.5 c 128,-1,21
 321 37 321 37 353 83 c 1,22,-1
 290 -214 l 1,0,-1
270 133 m 0,23,24
 251 133 251 133 235.5 140.5 c 128,-1,25
 220 148 220 148 209 160.5 c 128,-1,26
 198 173 198 173 192.5 191 c 128,-1,27
 187 209 187 209 187 231 c 0,28,29
 187 262 187 262 198 291 c 128,-1,30
 209 320 209 320 227.5 342 c 128,-1,31
 246 364 246 364 270 378 c 128,-1,32
 294 392 294 392 319 392 c 0,33,34
 334 392 334 392 347.5 385.5 c 128,-1,35
 361 379 361 379 372 367 c 128,-1,36
 383 355 383 355 390.5 339 c 128,-1,37
 398 323 398 323 400 304 c 1,38,-1
 378 199 l 1,39,40
 365 184 365 184 352 171.5 c 128,-1,41
 339 159 339 159 325.5 150.5 c 128,-1,42
 312 142 312 142 298 137.5 c 128,-1,43
 284 133 284 133 270 133 c 0,23,24
EndSplineSet
Substitution2: "'ss06' Style Set 6 lookup 37 subtable" q.ss06
Substitution2: "'aalt' Access All Alternates lookup 0 subtable" q.ss06
EndChar

StartChar: r
Encoding: 114 114 85
Width: 397
GlyphClass: 1
Flags: W
LayerCount: 2
Fore
SplineSet
-12 0 m 1,0,-1
 158 0 l 1,1,-1
 224 314 l 1,2,3
 252 348 252 348 299 364 c 128,-1,4
 346 380 346 380 399 380 c 1,5,-1
 431 532 l 2,6,7
 428 533 428 533 423.5 533 c 128,-1,8
 419 533 419 533 409 533 c 0,9,10
 363 533 363 533 317 503.5 c 128,-1,11
 271 474 271 474 233 421 c 1,12,-1
 256 525 l 1,13,-1
 100 525 l 1,14,-1
 -12 0 l 1,0,-1
EndSplineSet
EndChar

StartChar: s
Encoding: 115 115 86
Width: 483
GlyphClass: 1
Flags: W
LayerCount: 2
Fore
SplineSet
189 -10 m 0,0,1
 244 -10 244 -10 289.5 4.5 c 128,-1,2
 335 19 335 19 367.5 45.5 c 128,-1,3
 400 72 400 72 417.5 108.5 c 128,-1,4
 435 145 435 145 435 189 c 0,5,6
 435 215 435 215 426 234.5 c 128,-1,7
 417 254 417 254 397.5 270.5 c 128,-1,8
 378 287 378 287 347.5 300.5 c 128,-1,9
 317 314 317 314 274 326 c 0,10,11
 254 332 254 332 241 337 c 128,-1,12
 228 342 228 342 219.5 347 c 128,-1,13
 211 352 211 352 208 358.5 c 128,-1,14
 205 365 205 365 205 373 c 0,15,16
 205 384 205 384 209 392 c 128,-1,17
 213 400 213 400 220.5 406 c 128,-1,18
 228 412 228 412 238.5 415 c 128,-1,19
 249 418 249 418 261 418 c 0,20,21
 290 418 290 418 318 404.5 c 128,-1,22
 346 391 346 391 385 359 c 1,23,-1
 471 461 l 1,24,25
 431 504 431 504 385.5 520 c 128,-1,26
 340 536 340 536 284 536 c 0,27,28
 233 536 233 536 189 520 c 128,-1,29
 145 504 145 504 111.5 476.5 c 128,-1,30
 78 449 78 449 59 411.5 c 128,-1,31
 40 374 40 374 40 331 c 0,32,33
 40 307 40 307 49 289 c 128,-1,34
 58 271 58 271 77 256.5 c 128,-1,35
 96 242 96 242 125.5 229 c 128,-1,36
 155 216 155 216 197 202 c 0,37,38
 216 197 216 197 229 191.5 c 128,-1,39
 242 186 242 186 250.5 180 c 128,-1,40
 259 174 259 174 262.5 167.5 c 128,-1,41
 266 161 266 161 266 153 c 0,42,43
 266 143 266 143 262 135 c 128,-1,44
 258 127 258 127 251.5 121.5 c 128,-1,45
 245 116 245 116 234.5 113 c 128,-1,46
 224 110 224 110 210 110 c 0,47,48
 173 110 173 110 133 127.5 c 128,-1,49
 93 145 93 145 54 179 c 1,50,-1
 -26 76 l 1,51,52
 8 34 8 34 66 12 c 128,-1,53
 124 -10 124 -10 189 -10 c 0,0,1
EndSplineSet
EndChar

StartChar: t
Encoding: 116 116 87
Width: 400
GlyphClass: 1
Flags: W
LayerCount: 2
Fore
SplineSet
46 91 m 0,0,1
 46 36 46 36 80.5 13 c 128,-1,2
 115 -10 115 -10 166 -10 c 0,3,4
 187 -10 187 -10 208.5 -7 c 128,-1,5
 230 -4 230 -4 251.5 1 c 128,-1,6
 273 6 273 6 294.5 13 c 128,-1,7
 316 20 316 20 335 28 c 1,8,-1
 332 162 l 1,9,10
 324 159 324 159 314.5 155.5 c 128,-1,11
 305 152 305 152 296 150 c 128,-1,12
 287 148 287 148 278.5 146 c 128,-1,13
 270 144 270 144 263 144 c 0,14,15
 248 144 248 144 239 151.5 c 128,-1,16
 230 159 230 159 230 176 c 0,17,18
 230 180 230 180 230.5 184 c 128,-1,19
 231 188 231 188 232 193 c 2,20,-1
 276 397 l 1,21,-1
 375 397 l 1,22,-1
 402 525 l 1,23,-1
 303 525 l 1,24,-1
 339 692 l 1,25,-1
 169 692 l 1,26,-1
 134 525 l 1,27,-1
 71 525 l 1,28,-1
 44 397 l 1,29,-1
 106 397 l 1,30,-1
 50 134 l 2,31,32
 47 122 47 122 46.5 112 c 128,-1,33
 46 102 46 102 46 91 c 0,0,1
EndSplineSet
Substitution2: "'ss07' Style Set 7 lookup 38 subtable" t.ss07
Substitution2: "'aalt' Access All Alternates lookup 0 subtable" t.ss07
EndChar

StartChar: u
Encoding: 117 117 88
Width: 594
GlyphClass: 1
Flags: W
LayerCount: 2
Fore
SplineSet
147 -10 m 0,0,1
 172 -10 172 -10 197.5 -5 c 128,-1,2
 223 0 223 0 247 10.5 c 128,-1,3
 271 21 271 21 292.5 37.5 c 128,-1,4
 314 54 314 54 332 77 c 1,5,-1
 315 0 l 1,6,-1
 478 0 l 1,7,-1
 590 525 l 1,8,-1
 420 525 l 1,9,-1
 352 202 l 1,10,11
 337 183 337 183 322.5 170 c 128,-1,12
 308 157 308 157 294 148.5 c 128,-1,13
 280 140 280 140 268 136.5 c 128,-1,14
 256 133 256 133 246 133 c 0,15,16
 220 133 220 133 208 147.5 c 128,-1,17
 196 162 196 162 196 188 c 0,18,19
 196 196 196 196 197 204.5 c 128,-1,20
 198 213 198 213 201 224 c 2,21,-1
 264 525 l 1,22,-1
 95 525 l 1,23,-1
 22 186 l 2,24,25
 18 166 18 166 16 148.5 c 128,-1,26
 14 131 14 131 14 115 c 0,27,28
 14 84 14 84 22 61 c 128,-1,29
 30 38 30 38 46.5 22 c 128,-1,30
 63 6 63 6 88.5 -2 c 128,-1,31
 114 -10 114 -10 147 -10 c 0,0,1
EndSplineSet
Substitution2: "'ss08' Style Set 8 lookup 39 subtable" u.ss08
Substitution2: "'aalt' Access All Alternates lookup 0 subtable" u.ss08
EndChar

StartChar: v
Encoding: 118 118 89
Width: 540
GlyphClass: 1
Flags: W
LayerCount: 2
Fore
SplineSet
105 0 m 1,0,-1
 298 0 l 1,1,-1
 581 525 l 1,2,-1
 411 525 l 1,3,-1
 233 135 l 1,4,-1
 221 525 l 1,5,-1
 46 525 l 1,6,-1
 105 0 l 1,0,-1
EndSplineSet
EndChar

StartChar: w
Encoding: 119 119 90
Width: 855
GlyphClass: 1
Flags: W
LayerCount: 2
Fore
SplineSet
57 520 m 1,0,-1
 114 0 l 1,1,-1
 287 0 l 1,2,-1
 429 297 l 1,3,-1
 436 0 l 1,4,-1
 618 0 l 1,5,-1
 893 520 l 1,6,-1
 737 520 l 1,7,-1
 557 158 l 1,8,-1
 551 520 l 1,9,-1
 403 520 l 1,10,-1
 244 159 l 1,11,-1
 216 520 l 1,12,-1
 57 520 l 1,0,-1
EndSplineSet
Substitution2: "'ss09' Style Set 9 lookup 40 subtable" w.ss09
Substitution2: "'aalt' Access All Alternates lookup 0 subtable" w.ss09
EndChar

StartChar: x
Encoding: 120 120 91
Width: 526
GlyphClass: 1
Flags: W
LayerCount: 2
Fore
SplineSet
-66 0 m 1,0,-1
 107 0 l 1,1,-1
 220 141 l 1,2,-1
 233 160 l 1,3,-1
 237 141 l 1,4,-1
 291 0 l 1,5,-1
 464 0 l 1,6,-1
 346 262 l 1,7,-1
 572 525 l 1,8,-1
 401 525 l 1,9,-1
 289 384 l 1,10,-1
 276 364 l 1,11,-1
 271 384 l 1,12,-1
 222 525 l 1,13,-1
 50 525 l 1,14,-1
 163 262 l 1,15,-1
 -66 0 l 1,0,-1
EndSplineSet
EndChar

StartChar: y
Encoding: 121 121 92
Width: 522
GlyphClass: 1
Flags: W
LayerCount: 2
Fore
SplineSet
116 0 m 1,0,1
 102 -25 102 -25 87 -51.5 c 128,-1,2
 72 -78 72 -78 56.5 -105 c 128,-1,3
 41 -132 41 -132 24.5 -159 c 128,-1,4
 8 -186 8 -186 -8 -213 c 1,5,-1
 189 -213 l 1,6,-1
 565 525 l 1,7,-1
 406 525 l 1,8,-1
 240 145 l 1,9,-1
 226 525 l 1,10,-1
 43 525 l 1,11,-1
 116 0 l 1,0,1
EndSplineSet
Substitution2: "'ss10' Style Set 10 lookup 41 subtable" y.ss10
Substitution2: "'aalt' Access All Alternates lookup 0 subtable" y.ss10
EndChar

StartChar: z
Encoding: 122 122 93
Width: 472
GlyphClass: 1
Flags: W
LayerCount: 2
Fore
SplineSet
-41 0 m 1,0,-1
 382 0 l 1,1,-1
 407 117 l 1,2,-1
 163 117 l 1,3,-1
 465 424 l 1,4,-1
 486 525 l 1,5,-1
 85 525 l 1,6,-1
 60 408 l 1,7,-1
 283 408 l 1,8,-1
 -19 101 l 1,9,-1
 -41 0 l 1,0,-1
EndSplineSet
EndChar

StartChar: braceleft
Encoding: 123 123 94
Width: 341
GlyphClass: 1
Flags: W
LayerCount: 2
Fore
SplineSet
361 606 m 1,0,-1
 390 740 l 1,1,-1
 208 740 l 2,2,3
 202 740 202 740 192.5 734 c 128,-1,4
 183 728 183 728 179 710 c 2,5,-1
 133 491 l 2,6,7
 130 478 130 478 122 465.5 c 128,-1,8
 114 453 114 453 104.5 442.5 c 128,-1,9
 95 432 95 432 83.5 425.5 c 128,-1,10
 72 419 72 419 62 419 c 1,11,-1
 38 303 l 1,12,13
 53 299 53 299 66 284 c 128,-1,14
 79 269 79 269 79 246 c 0,15,16
 79 241 79 241 78.5 237.5 c 128,-1,17
 78 234 78 234 77 229 c 2,18,-1
 28 -1 l 2,19,20
 27 -4 27 -4 27 -6.5 c 128,-1,21
 27 -9 27 -9 27 -11 c 0,22,23
 27 -24 27 -24 32.5 -27.5 c 128,-1,24
 38 -31 38 -31 44 -31 c 2,25,-1
 226 -31 l 1,26,-1
 254 103 l 1,27,-1
 202 103 l 1,28,-1
 241 286 l 2,29,30
 242 291 242 291 242.5 295 c 128,-1,31
 243 299 243 299 243 304 c 0,32,33
 243 322 243 322 235.5 335.5 c 128,-1,34
 228 349 228 349 219 360 c 1,35,36
 237 374 237 374 252 391 c 128,-1,37
 267 408 267 408 272 434 c 2,38,-1
 309 606 l 1,39,-1
 361 606 l 1,0,-1
EndSplineSet
EndChar

StartChar: bar
Encoding: 124 124 95
Width: 347
GlyphClass: 1
Flags: W
LayerCount: 2
Fore
SplineSet
250 -130 m 1,0,-1
 250 775 l 1,1,-1
 107 775 l 1,2,-1
 107 -130 l 1,3,-1
 250 -130 l 1,0,-1
EndSplineSet
EndChar

StartChar: braceright
Encoding: 125 125 96
Width: 344
GlyphClass: 1
Flags: W
LayerCount: 2
Fore
SplineSet
166 606 m 1,0,-1
 130 434 l 2,1,2
 128 429 128 429 128 424.5 c 128,-1,3
 128 420 128 420 128 415 c 0,4,5
 128 398 128 398 135 384.5 c 128,-1,6
 142 371 142 371 151 360 c 1,7,8
 134 346 134 346 118.5 328.5 c 128,-1,9
 103 311 103 311 98 286 c 2,10,-1
 59 103 l 1,11,-1
 7 103 l 1,12,-1
 -22 -31 l 1,13,-1
 160 -31 l 2,14,15
 166 -31 166 -31 175.5 -25.5 c 128,-1,16
 185 -20 185 -20 189 -1 c 2,17,-1
 237 229 l 2,18,19
 244 259 244 259 265.5 278.5 c 128,-1,20
 287 298 287 298 308 303 c 1,21,-1
 333 419 l 1,22,23
 315 419 315 419 303 436.5 c 128,-1,24
 291 454 291 454 291 476 c 0,25,26
 291 480 291 480 291.5 483.5 c 128,-1,27
 292 487 292 487 293 491 c 2,28,-1
 340 710 l 2,29,30
 341 713 341 713 341 715.5 c 128,-1,31
 341 718 341 718 341 720 c 0,32,33
 341 731 341 731 335 735.5 c 128,-1,34
 329 740 329 740 324 740 c 2,35,-1
 142 740 l 1,36,-1
 114 606 l 1,37,-1
 166 606 l 1,0,-1
EndSplineSet
EndChar

StartChar: asciitilde
Encoding: 126 126 97
Width: 572
GlyphClass: 1
Flags: W
LayerCount: 2
Fore
SplineSet
35 220 m 1,0,-1
 127 220 l 1,1,2
 127 221 127 221 129 229 c 128,-1,3
 131 237 131 237 137.5 246 c 128,-1,4
 144 255 144 255 157 262.5 c 128,-1,5
 170 270 170 270 192 270 c 0,6,7
 215 270 215 270 235.5 262 c 128,-1,8
 256 254 256 254 277.5 245 c 128,-1,9
 299 236 299 236 322 228 c 128,-1,10
 345 220 345 220 373 220 c 0,11,12
 419 220 419 220 450 240.5 c 128,-1,13
 481 261 481 261 500 287 c 128,-1,14
 519 313 519 313 528 337 c 128,-1,15
 537 361 537 361 537 368 c 1,16,-1
 447 368 l 1,17,18
 447 367 447 367 444 358.5 c 128,-1,19
 441 350 441 350 433 341 c 128,-1,20
 425 332 425 332 411.5 324.5 c 128,-1,21
 398 317 398 317 376 317 c 0,22,23
 353 317 353 317 333 325 c 128,-1,24
 313 333 313 333 292 343 c 128,-1,25
 271 353 271 353 247.5 361 c 128,-1,26
 224 369 224 369 196 369 c 0,27,28
 151 369 151 369 121 350 c 128,-1,29
 91 331 91 331 71.5 306 c 128,-1,30
 52 281 52 281 44 256 c 128,-1,31
 36 231 36 231 35 220 c 1,0,-1
EndSplineSet
EndChar

StartChar: exclamdown
Encoding: 161 161 99
Width: 316
GlyphClass: 1
Flags: W
LayerCount: 2
Fore
SplineSet
303 426 m 0,0,1
 307 447 307 447 303 465.5 c 128,-1,2
 299 484 299 484 288 498.5 c 128,-1,3
 277 513 277 513 260 521 c 128,-1,4
 243 529 243 529 222 529 c 256,5,6
 201 529 201 529 180.5 521 c 128,-1,7
 160 513 160 513 142.5 498.5 c 128,-1,8
 125 484 125 484 113.5 465.5 c 128,-1,9
 102 447 102 447 97 426 c 256,10,11
 92 405 92 405 96.5 386.5 c 128,-1,12
 101 368 101 368 112 354 c 128,-1,13
 123 340 123 340 140 332 c 128,-1,14
 157 324 157 324 178 324 c 256,15,16
 199 324 199 324 219.5 332 c 128,-1,17
 240 340 240 340 257 354 c 128,-1,18
 274 368 274 368 286 386.5 c 128,-1,19
 298 405 298 405 303 426 c 0,0,1
99 231 m 1,20,-1
 19 -21 l 1,21,-1
 -18 -198 l 1,22,-1
 152 -198 l 1,23,-1
 189 -21 l 1,24,-1
 217 231 l 1,25,-1
 99 231 l 1,20,-1
EndSplineSet
EndChar

StartChar: cent
Encoding: 162 162 100
Width: 589
GlyphClass: 1
Flags: W
LayerCount: 2
Fore
SplineSet
250 -120 m 1,0,-1
 274 -10 l 1,1,2
 298 -10 298 -10 330 -1 c 128,-1,3
 362 8 362 8 396 25 c 128,-1,4
 430 42 430 42 462.5 68.5 c 128,-1,5
 495 95 495 95 518 131 c 1,6,-1
 363 181 l 1,7,8
 358 173 358 173 352 166.5 c 128,-1,9
 346 160 346 160 338.5 154.5 c 128,-1,10
 331 149 331 149 323 144.5 c 128,-1,11
 315 140 315 140 306 138 c 1,12,-1
 359 386 l 1,13,14
 371 384 371 384 382.5 373 c 128,-1,15
 394 362 394 362 398 345 c 1,16,-1
 574 395 l 1,17,18
 554 463 554 463 503 497 c 128,-1,19
 452 531 452 531 389 533 c 1,20,-1
 413 645 l 1,21,-1
 341 645 l 1,22,-1
 317 533 l 1,23,24
 247 521 247 521 193 490 c 128,-1,25
 139 459 139 459 101.5 415.5 c 128,-1,26
 64 372 64 372 45 319.5 c 128,-1,27
 26 267 26 267 26 213 c 0,28,29
 26 172 26 172 37.5 133.5 c 128,-1,30
 49 95 49 95 72 64.5 c 128,-1,31
 95 34 95 34 128 14 c 128,-1,32
 161 -6 161 -6 202 -9 c 1,33,-1
 178 -120 l 1,34,-1
 250 -120 l 1,0,-1
201 225 m 0,35,36
 201 248 201 248 207.5 272.5 c 128,-1,37
 214 297 214 297 225.5 318 c 128,-1,38
 237 339 237 339 252 355 c 128,-1,39
 267 371 267 371 284 379 c 1,40,-1
 235 146 l 1,41,42
 227 151 227 151 220.5 159 c 128,-1,43
 214 167 214 167 210 178 c 128,-1,44
 206 189 206 189 203.5 200.5 c 128,-1,45
 201 212 201 212 201 225 c 0,35,36
EndSplineSet
EndChar

StartChar: sterling
Encoding: 163 163 101
Width: 551
GlyphClass: 1
Flags: W
LayerCount: 2
Fore
SplineSet
50 260 m 1,0,-1
 435 260 l 1,1,-1
 462 385 l 1,2,-1
 76 385 l 1,3,-1
 50 260 l 1,0,-1
17 -9 m 1,4,5
 54 2 54 2 91.5 9 c 128,-1,6
 129 16 129 16 156 16 c 0,7,8
 179 16 179 16 202.5 11.5 c 128,-1,9
 226 7 226 7 248.5 1 c 128,-1,10
 271 -5 271 -5 293 -10 c 128,-1,11
 315 -15 315 -15 337 -15 c 0,12,13
 366 -15 366 -15 399 -6 c 128,-1,14
 432 3 432 3 456 18 c 1,15,-1
 442 143 l 1,16,17
 422 136 422 136 407.5 132.5 c 128,-1,18
 393 129 393 129 376 129 c 0,19,20
 361 129 361 129 346 131.5 c 128,-1,21
 331 134 331 134 316 136.5 c 128,-1,22
 301 139 301 139 286 142 c 128,-1,23
 271 145 271 145 255 145 c 256,24,25
 239 145 239 145 221 141.5 c 128,-1,26
 203 138 203 138 179 131 c 1,27,28
 209 159 209 159 230 183.5 c 128,-1,29
 251 208 251 208 263.5 232.5 c 128,-1,30
 276 257 276 257 281.5 281.5 c 128,-1,31
 287 306 287 306 287 333 c 0,32,33
 287 357 287 357 283.5 379.5 c 128,-1,34
 280 402 280 402 276.5 422 c 128,-1,35
 273 442 273 442 269 460.5 c 128,-1,36
 265 479 265 479 265 496 c 0,37,38
 265 514 265 514 271 529 c 128,-1,39
 277 544 277 544 287 555 c 128,-1,40
 297 566 297 566 311.5 572 c 128,-1,41
 326 578 326 578 342 578 c 0,42,43
 373 578 373 578 405.5 557.5 c 128,-1,44
 438 537 438 537 455 506 c 1,45,-1
 563 610 l 1,46,47
 534 660 534 660 483.5 687.5 c 128,-1,48
 433 715 433 715 371 715 c 0,49,50
 322 715 322 715 276 698 c 128,-1,51
 230 681 230 681 195 652 c 128,-1,52
 160 623 160 623 138.5 583.5 c 128,-1,53
 117 544 117 544 117 498 c 0,54,55
 117 476 117 476 121 454 c 128,-1,56
 125 432 125 432 128.5 408.5 c 128,-1,57
 132 385 132 385 135.5 362.5 c 128,-1,58
 139 340 139 340 139 317 c 0,59,60
 139 288 139 288 129 259 c 128,-1,61
 119 230 119 230 101 203.5 c 128,-1,62
 83 177 83 177 59.5 153.5 c 128,-1,63
 36 130 36 130 8 111 c 1,64,-1
 17 -9 l 1,4,5
EndSplineSet
EndChar

StartChar: currency
Encoding: 164 164 102
Width: 582
GlyphClass: 1
Flags: W
LayerCount: 2
Fore
SplineSet
127 574 m 1,0,-1
 62 509 l 1,1,-1
 128 442 l 1,2,3
 114 419 114 419 106.5 392.5 c 128,-1,4
 99 366 99 366 99 338 c 0,5,6
 99 309 99 309 107 282 c 128,-1,7
 115 255 115 255 129 232 c 1,8,-1
 62 165 l 1,9,-1
 122 105 l 1,10,-1
 194 173 l 1,11,12
 216 161 216 161 242.5 154.5 c 128,-1,13
 269 148 269 148 300 148 c 256,14,15
 331 148 331 148 357 154 c 128,-1,16
 383 160 383 160 404 172 c 1,17,-1
 476 105 l 1,18,-1
 536 165 l 1,19,-1
 470 231 l 1,20,21
 485 254 485 254 493.5 281.5 c 128,-1,22
 502 309 502 309 502 338 c 256,23,24
 502 367 502 367 493.5 394 c 128,-1,25
 485 421 485 421 471 444 c 1,26,-1
 536 509 l 1,27,-1
 471 574 l 1,28,-1
 402 504 l 1,29,30
 381 515 381 515 355.5 521 c 128,-1,31
 330 527 330 527 300 527 c 256,32,33
 270 527 270 527 244 521 c 128,-1,34
 218 515 218 515 196 503 c 1,35,-1
 127 574 l 1,0,-1
220 338 m 0,36,37
 220 357 220 357 226 373.5 c 128,-1,38
 232 390 232 390 242.5 401.5 c 128,-1,39
 253 413 253 413 268 419 c 128,-1,40
 283 425 283 425 300 425 c 0,41,42
 318 425 318 425 332.5 419 c 128,-1,43
 347 413 347 413 358 401.5 c 128,-1,44
 369 390 369 390 375 374 c 128,-1,45
 381 358 381 358 381 338 c 256,46,47
 381 318 381 318 375 301.5 c 128,-1,48
 369 285 369 285 358 274 c 128,-1,49
 347 263 347 263 332.5 256.5 c 128,-1,50
 318 250 318 250 300 250 c 0,51,52
 283 250 283 250 268 256.5 c 128,-1,53
 253 263 253 263 242.5 274 c 128,-1,54
 232 285 232 285 226 301.5 c 128,-1,55
 220 318 220 318 220 338 c 0,36,37
EndSplineSet
EndChar

StartChar: yen
Encoding: 165 165 103
Width: 706
GlyphClass: 1
Flags: W
LayerCount: 2
Fore
SplineSet
756 710 m 1,0,-1
 567 710 l 1,1,-1
 366 390 l 1,2,-1
 304 710 l 1,3,-1
 115 710 l 1,4,-1
 196 421 l 1,5,-1
 132 421 l 1,6,-1
 109 313 l 1,7,-1
 228 313 l 1,8,-1
 248 242 l 1,9,-1
 241 208 l 1,10,-1
 86 208 l 1,11,-1
 63 100 l 1,12,-1
 217 100 l 1,13,-1
 197 0 l 1,14,-1
 370 0 l 1,15,-1
 391 100 l 1,16,-1
 547 100 l 1,17,-1
 570 208 l 1,18,-1
 414 208 l 1,19,-1
 421 240 l 1,20,-1
 473 313 l 1,21,-1
 592 313 l 1,22,-1
 614 421 l 1,23,-1
 552 421 l 1,24,-1
 756 710 l 1,0,-1
EndSplineSet
EndChar

StartChar: brokenbar
Encoding: 166 166 104
Width: 339
GlyphClass: 1
Flags: W
LayerCount: 2
Fore
SplineSet
103 258 m 1,0,-1
 103 -130 l 1,1,-1
 246 -130 l 1,2,-1
 246 258 l 1,3,-1
 103 258 l 1,0,-1
103 775 m 1,4,-1
 103 387 l 1,5,-1
 246 387 l 1,6,-1
 246 775 l 1,7,-1
 103 775 l 1,4,-1
EndSplineSet
EndChar

StartChar: section
Encoding: 167 167 105
Width: 528
GlyphClass: 1
Flags: W
LayerCount: 2
Fore
SplineSet
444 226 m 1,0,1
 447 231 447 231 453 241.5 c 128,-1,2
 459 252 459 252 464.5 266 c 128,-1,3
 470 280 470 280 474.5 297.5 c 128,-1,4
 479 315 479 315 479 334 c 0,5,6
 479 373 479 373 462.5 400 c 128,-1,7
 446 427 446 427 420 444 c 128,-1,8
 394 461 394 461 361.5 468.5 c 128,-1,9
 329 476 329 476 297 477 c 0,10,11
 281 478 281 478 268.5 484 c 128,-1,12
 256 490 256 490 256 509 c 0,13,14
 256 522 256 522 260.5 532.5 c 128,-1,15
 265 543 265 543 273.5 550.5 c 128,-1,16
 282 558 282 558 293 561.5 c 128,-1,17
 304 565 304 565 318 565 c 0,18,19
 333 565 333 565 344 561 c 128,-1,20
 355 557 355 557 363.5 550.5 c 128,-1,21
 372 544 372 544 377.5 535 c 128,-1,22
 383 526 383 526 386 516 c 1,23,-1
 528 577 l 1,24,25
 520 595 520 595 506.5 619 c 128,-1,26
 493 643 493 643 470.5 664.5 c 128,-1,27
 448 686 448 686 416 700.5 c 128,-1,28
 384 715 384 715 339 715 c 0,29,30
 287 715 287 715 240.5 695 c 128,-1,31
 194 675 194 675 159 642.5 c 128,-1,32
 124 610 124 610 103 568.5 c 128,-1,33
 82 527 82 527 82 483 c 0,34,35
 82 457 82 457 86.5 437.5 c 128,-1,36
 91 418 91 418 95 409 c 0,37,38
 93 404 93 404 88 395.5 c 128,-1,39
 83 387 83 387 77 375 c 128,-1,40
 71 363 71 363 67 346 c 128,-1,41
 63 329 63 329 63 306 c 0,42,43
 63 276 63 276 73.5 249.5 c 128,-1,44
 84 223 84 223 105 203 c 128,-1,45
 126 183 126 183 157.5 170.5 c 128,-1,46
 189 158 189 158 233 155 c 0,47,48
 240 155 240 155 247 153.5 c 128,-1,49
 254 152 254 152 259 149 c 128,-1,50
 264 146 264 146 267.5 141 c 128,-1,51
 271 136 271 136 271 127 c 0,52,53
 271 114 271 114 266 104 c 128,-1,54
 261 94 261 94 251.5 87 c 128,-1,55
 242 80 242 80 230.5 76.5 c 128,-1,56
 219 73 219 73 205 73 c 0,57,58
 180 73 180 73 158 85 c 128,-1,59
 136 97 136 97 117 127 c 1,60,-1
 -13 23 l 1,61,62
 -7 10 -7 10 9 -9 c 128,-1,63
 25 -28 25 -28 49.5 -46 c 128,-1,64
 74 -64 74 -64 106.5 -76 c 128,-1,65
 139 -88 139 -88 178 -88 c 256,66,67
 217 -88 217 -88 265 -74.5 c 128,-1,68
 313 -61 313 -61 355 -31 c 128,-1,69
 397 -1 397 -1 425.5 48 c 128,-1,70
 454 97 454 97 454 167 c 0,71,72
 454 186 454 186 451.5 201.5 c 128,-1,73
 449 217 449 217 444 226 c 1,0,1
226 308 m 0,74,75
 226 321 226 321 231.5 331.5 c 128,-1,76
 237 342 237 342 244 348 c 1,77,78
 244 346 244 346 254.5 344 c 128,-1,79
 265 342 265 342 276 342 c 0,80,81
 282 342 282 342 289 340 c 128,-1,82
 296 338 296 338 301.5 334 c 128,-1,83
 307 330 307 330 310.5 323 c 128,-1,84
 314 316 314 316 314 307 c 0,85,86
 314 296 314 296 309 284.5 c 128,-1,87
 304 273 304 273 296 267 c 1,88,89
 288 270 288 270 276 271 c 128,-1,90
 264 272 264 272 253 275 c 128,-1,91
 242 278 242 278 234 285 c 128,-1,92
 226 292 226 292 226 308 c 0,74,75
EndSplineSet
EndChar

StartChar: copyright
Encoding: 169 169 107
Width: 859
GlyphClass: 1
Flags: W
LayerCount: 2
Fore
SplineSet
437 -7 m 0,0,1
 520 -7 520 -7 591.5 20.5 c 128,-1,2
 663 48 663 48 714.5 96.5 c 128,-1,3
 766 145 766 145 795.5 211 c 128,-1,4
 825 277 825 277 825 355 c 0,5,6
 825 432 825 432 795.5 498 c 128,-1,7
 766 564 766 564 714.5 612 c 128,-1,8
 663 660 663 660 591.5 687.5 c 128,-1,9
 520 715 520 715 437 715 c 0,10,11
 356 715 356 715 286.5 687.5 c 128,-1,12
 217 660 217 660 166 612 c 128,-1,13
 115 564 115 564 87 498 c 128,-1,14
 59 432 59 432 59 355 c 0,15,16
 59 277 59 277 87 211 c 128,-1,17
 115 145 115 145 166 96.5 c 128,-1,18
 217 48 217 48 286.5 20.5 c 128,-1,19
 356 -7 356 -7 437 -7 c 0,0,1
437 52 m 0,20,21
 369 52 369 52 311.5 75 c 128,-1,22
 254 98 254 98 212 139.5 c 128,-1,23
 170 181 170 181 146.5 236 c 128,-1,24
 123 291 123 291 123 355 c 0,25,26
 123 418 123 418 146.5 472.5 c 128,-1,27
 170 527 170 527 212.5 568.5 c 128,-1,28
 255 610 255 610 312.5 633 c 128,-1,29
 370 656 370 656 437 656 c 0,30,31
 507 656 507 656 566 633 c 128,-1,32
 625 610 625 610 668 568.5 c 128,-1,33
 711 527 711 527 735.5 472.5 c 128,-1,34
 760 418 760 418 760 355 c 0,35,36
 760 287 760 287 735 231.5 c 128,-1,37
 710 176 710 176 666.5 136 c 128,-1,38
 623 96 623 96 564.5 74 c 128,-1,39
 506 52 506 52 437 52 c 0,20,21
447 113 m 0,40,41
 491 113 491 113 528.5 123.5 c 128,-1,42
 566 134 566 134 596 153 c 128,-1,43
 626 172 626 172 648.5 197.5 c 128,-1,44
 671 223 671 223 685 251 c 1,45,-1
 520 301 l 1,46,47
 513 291 513 291 505.5 282.5 c 128,-1,48
 498 274 498 274 488 268 c 128,-1,49
 478 262 478 262 467.5 259 c 128,-1,50
 457 256 457 256 445 256 c 0,51,52
 428 256 428 256 412 262.5 c 128,-1,53
 396 269 396 269 384.5 281.5 c 128,-1,54
 373 294 373 294 365.5 312.5 c 128,-1,55
 358 331 358 331 358 354 c 0,56,57
 358 376 358 376 364.5 394 c 128,-1,58
 371 412 371 412 382 425 c 128,-1,59
 393 438 393 438 409.5 445 c 128,-1,60
 426 452 426 452 445 452 c 0,61,62
 456 452 456 452 466.5 449.5 c 128,-1,63
 477 447 477 447 486.5 441.5 c 128,-1,64
 496 436 496 436 504 427.5 c 128,-1,65
 512 419 512 419 519 408 c 1,66,-1
 684 458 l 1,67,68
 654 520 654 520 593.5 558 c 128,-1,69
 533 596 533 596 446 596 c 0,70,71
 382 596 382 596 333 575.5 c 128,-1,72
 284 555 284 555 251 521.5 c 128,-1,73
 218 488 218 488 201 444.5 c 128,-1,74
 184 401 184 401 184 354 c 0,75,76
 184 305 184 305 201.5 261.5 c 128,-1,77
 219 218 219 218 253 185 c 128,-1,78
 287 152 287 152 336 132.5 c 128,-1,79
 385 113 385 113 447 113 c 0,40,41
EndSplineSet
EndChar

StartChar: ordfeminine
Encoding: 170 170 108
Width: 431
GlyphClass: 1
Flags: W
LayerCount: 2
Fore
SplineSet
157 335 m 0,0,1
 190 335 190 335 222.5 351.5 c 128,-1,2
 255 368 255 368 284 400 c 1,3,-1
 274 345 l 1,4,-1
 372 345 l 1,5,6
 372 346 372 346 376 366 c 128,-1,7
 380 386 380 386 385 410 c 128,-1,8
 390 434 390 434 394.5 454.5 c 128,-1,9
 399 475 399 475 399 477 c 2,10,-1
 416 560 l 2,11,12
 418 572 418 572 419.5 582.5 c 128,-1,13
 421 593 421 593 421 604 c 0,14,15
 421 659 421 659 386.5 686.5 c 128,-1,16
 352 714 352 714 285 714 c 0,17,18
 243 714 243 714 204 702.5 c 128,-1,19
 165 691 165 691 127 667 c 1,20,-1
 146 593 l 1,21,22
 176 613 176 613 202 623 c 128,-1,23
 228 633 228 633 257 633 c 0,24,25
 282 633 282 633 293.5 623 c 128,-1,26
 305 613 305 613 305 593 c 0,27,28
 305 589 305 589 304.5 584.5 c 128,-1,29
 304 580 304 580 303 574 c 2,30,-1
 300 560 l 1,31,32
 288 568 288 568 271.5 571.5 c 128,-1,33
 255 575 255 575 235 575 c 0,34,35
 199 575 199 575 168 564 c 128,-1,36
 137 553 137 553 113.5 533.5 c 128,-1,37
 90 514 90 514 76.5 487.5 c 128,-1,38
 63 461 63 461 63 429 c 0,39,40
 63 388 63 388 88.5 361.5 c 128,-1,41
 114 335 114 335 157 335 c 0,0,1
210 422 m 0,42,43
 196 422 196 422 187 431.5 c 128,-1,44
 178 441 178 441 178 455 c 0,45,46
 178 477 178 477 197 493 c 128,-1,47
 216 509 216 509 242 509 c 0,48,49
 252 509 252 509 264.5 506 c 128,-1,50
 277 503 277 503 286 498 c 1,51,-1
 279 467 l 2,52,53
 277 459 277 459 269.5 450.5 c 128,-1,54
 262 442 262 442 252 436 c 128,-1,55
 242 430 242 430 230.5 426 c 128,-1,56
 219 422 219 422 210 422 c 0,42,43
EndSplineSet
EndChar

StartChar: guillemotleft
Encoding: 171 171 109
Width: 670
GlyphClass: 1
Flags: W
LayerCount: 2
Fore
SplineSet
14 215 m 1,0,-1
 236 36 l 1,1,-1
 265 172 l 1,2,-1
 156 259 l 1,3,-1
 304 353 l 1,4,-1
 333 489 l 1,5,-1
 31 294 l 1,6,-1
 14 215 l 1,0,-1
336 215 m 1,7,-1
 559 36 l 1,8,-1
 587 172 l 1,9,-1
 479 259 l 1,10,-1
 625 353 l 1,11,-1
 655 489 l 1,12,-1
 352 294 l 1,13,-1
 336 215 l 1,7,-1
EndSplineSet
EndChar

StartChar: logicalnot
Encoding: 172 172 110
Width: 606
GlyphClass: 1
Flags: W
LayerCount: 2
Fore
SplineSet
76 420 m 1,0,-1
 43 268 l 1,1,-1
 395 268 l 1,2,-1
 358 95 l 1,3,-1
 501 95 l 1,4,-1
 571 420 l 1,5,-1
 76 420 l 1,0,-1
EndSplineSet
EndChar

StartChar: uni00AD
Encoding: 173 173 111
Width: 599
GlyphClass: 1
Flags: W
LayerCount: 2
Fore
SplineSet
525 199 m 1,0,-1
 558 351 l 1,1,-1
 63 351 l 1,2,-1
 30 199 l 1,3,-1
 525 199 l 1,0,-1
EndSplineSet
EndChar

StartChar: registered
Encoding: 174 174 112
Width: 859
GlyphClass: 1
Flags: W
LayerCount: 2
Fore
SplineSet
439 -7 m 0,0,1
 521 -7 521 -7 592 20.5 c 128,-1,2
 663 48 663 48 714.5 96.5 c 128,-1,3
 766 145 766 145 795.5 211 c 128,-1,4
 825 277 825 277 825 355 c 0,5,6
 825 432 825 432 795.5 498 c 128,-1,7
 766 564 766 564 714.5 612 c 128,-1,8
 663 660 663 660 592 687.5 c 128,-1,9
 521 715 521 715 439 715 c 256,10,11
 357 715 357 715 287 687.5 c 128,-1,12
 217 660 217 660 166.5 612 c 128,-1,13
 116 564 116 564 87.5 498 c 128,-1,14
 59 432 59 432 59 355 c 0,15,16
 59 277 59 277 87.5 211 c 128,-1,17
 116 145 116 145 166.5 96.5 c 128,-1,18
 217 48 217 48 286.5 20.5 c 128,-1,19
 356 -7 356 -7 439 -7 c 0,0,1
440 51 m 0,20,21
 371 51 371 51 313.5 74.5 c 128,-1,22
 256 98 256 98 214.5 139.5 c 128,-1,23
 173 181 173 181 149.5 236 c 128,-1,24
 126 291 126 291 126 355 c 0,25,26
 126 417 126 417 149.5 472 c 128,-1,27
 173 527 173 527 214.5 568.5 c 128,-1,28
 256 610 256 610 313.5 633 c 128,-1,29
 371 656 371 656 440 656 c 0,30,31
 508 656 508 656 566.5 633 c 128,-1,32
 625 610 625 610 667 568.5 c 128,-1,33
 709 527 709 527 733 472 c 128,-1,34
 757 417 757 417 757 352 c 256,35,36
 757 287 757 287 732.5 232 c 128,-1,37
 708 177 708 177 665.5 136.5 c 128,-1,38
 623 96 623 96 565 73.5 c 128,-1,39
 507 51 507 51 440 51 c 0,20,21
272 141 m 1,40,-1
 391 141 l 1,41,-1
 391 278 l 1,42,-1
 425 278 l 1,43,-1
 510 141 l 1,44,-1
 643 141 l 1,45,-1
 544 301 l 1,46,47
 559 310 559 310 572 323.5 c 128,-1,48
 585 337 585 337 594 353.5 c 128,-1,49
 603 370 603 370 608 388 c 128,-1,50
 613 406 613 406 613 425 c 0,51,52
 613 451 613 451 602 478 c 128,-1,53
 591 505 591 505 572 526 c 128,-1,54
 553 547 553 547 527 560 c 128,-1,55
 501 573 501 573 470 573 c 2,56,-1
 272 573 l 1,57,-1
 272 141 l 1,40,-1
391 379 m 1,58,-1
 391 470 l 1,59,-1
 456 470 l 2,60,61
 463 470 463 470 470 468 c 128,-1,62
 477 466 477 466 483 460.5 c 128,-1,63
 489 455 489 455 492.5 446.5 c 128,-1,64
 496 438 496 438 496 425 c 0,65,66
 496 413 496 413 493 404 c 128,-1,67
 490 395 490 395 485 389.5 c 128,-1,68
 480 384 480 384 473 381.5 c 128,-1,69
 466 379 466 379 458 379 c 2,70,-1
 391 379 l 1,58,-1
EndSplineSet
EndChar

StartChar: degree
Encoding: 176 176 114
Width: 288
GlyphClass: 1
Flags: W
LayerCount: 2
Fore
SplineSet
184 498 m 0,0,1
 212 498 212 498 237 508.5 c 128,-1,2
 262 519 262 519 280.5 537.5 c 128,-1,3
 299 556 299 556 310 581 c 128,-1,4
 321 606 321 606 321 635 c 0,5,6
 321 674 321 674 297.5 699 c 128,-1,7
 274 724 274 724 232 724 c 0,8,9
 203 724 203 724 178 712 c 128,-1,10
 153 700 153 700 134.5 680.5 c 128,-1,11
 116 661 116 661 105.5 636 c 128,-1,12
 95 611 95 611 95 585 c 0,13,14
 95 545 95 545 118.5 521.5 c 128,-1,15
 142 498 142 498 184 498 c 0,0,1
201 577 m 0,16,17
 188 577 188 577 181.5 585 c 128,-1,18
 175 593 175 593 175 606 c 0,19,20
 175 621 175 621 187.5 632.5 c 128,-1,21
 200 644 200 644 215 644 c 0,22,23
 224 644 224 644 231.5 638 c 128,-1,24
 239 632 239 632 239 618 c 0,25,26
 239 602 239 602 227 589.5 c 128,-1,27
 215 577 215 577 201 577 c 0,16,17
EndSplineSet
EndChar

StartChar: plusminus
Encoding: 177 177 115
Width: 531
GlyphClass: 1
Flags: W
LayerCount: 2
Fore
SplineSet
439 11 m 1,0,-1
 439 145 l 1,1,-1
 69 145 l 1,2,-1
 69 11 l 1,3,-1
 439 11 l 1,0,-1
331 450 m 1,4,-1
 331 570 l 1,5,-1
 179 570 l 1,6,-1
 179 450 l 1,7,-1
 70 450 l 1,8,-1
 70 316 l 1,9,-1
 179 316 l 1,10,-1
 179 197 l 1,11,-1
 331 197 l 1,12,-1
 331 316 l 1,13,-1
 440 316 l 1,14,-1
 440 450 l 1,15,-1
 331 450 l 1,4,-1
EndSplineSet
EndChar

StartChar: twosuperior
Encoding: 178 178 116
Width: 418
GlyphClass: 1
Flags: W
LayerCount: 2
Fore
SplineSet
391 381 m 1,0,-1
 413 477 l 1,1,-1
 225 477 l 1,2,3
 227 489 227 489 234.5 497.5 c 128,-1,4
 242 506 242 506 253.5 513.5 c 128,-1,5
 265 521 265 521 280 527 c 128,-1,6
 295 533 295 533 312 539 c 0,7,8
 336 546 336 546 362.5 559 c 128,-1,9
 389 572 389 572 411 592.5 c 128,-1,10
 433 613 433 613 447.5 641.5 c 128,-1,11
 462 670 462 670 462 710 c 0,12,13
 462 761 462 761 427 790 c 128,-1,14
 392 819 392 819 324 819 c 0,15,16
 293 819 293 819 263 813 c 128,-1,17
 233 807 233 807 207.5 797.5 c 128,-1,18
 182 788 182 788 161 775.5 c 128,-1,19
 140 763 140 763 128 749 c 1,20,-1
 172 677 l 1,21,22
 182 687 182 687 196 696.5 c 128,-1,23
 210 706 210 706 225.5 713.5 c 128,-1,24
 241 721 241 721 259 726 c 128,-1,25
 277 731 277 731 295 731 c 0,26,27
 321 731 321 731 336 719 c 128,-1,28
 351 707 351 707 351 686 c 256,29,30
 351 665 351 665 338 649.5 c 128,-1,31
 325 634 325 634 304 622.5 c 128,-1,32
 283 611 283 611 257.5 601 c 128,-1,33
 232 591 232 591 208 580 c 0,34,35
 168 562 168 562 141 543.5 c 128,-1,36
 114 525 114 525 95 502 c 128,-1,37
 76 479 76 479 64 450 c 128,-1,38
 52 421 52 421 43 381 c 1,39,-1
 391 381 l 1,0,-1
EndSplineSet
EndChar

StartChar: threesuperior
Encoding: 179 179 117
Width: 401
GlyphClass: 1
Flags: W
LayerCount: 2
Fore
SplineSet
201 374 m 0,0,1
 239 374 239 374 276 382 c 128,-1,2
 313 390 313 390 341.5 408 c 128,-1,3
 370 426 370 426 387.5 454 c 128,-1,4
 405 482 405 482 405 521 c 0,5,6
 405 555 405 555 390 580.5 c 128,-1,7
 375 606 375 606 346 611 c 1,8,9
 388 620 388 620 414.5 648 c 128,-1,10
 441 676 441 676 441 717 c 0,11,12
 441 762 441 762 405.5 790.5 c 128,-1,13
 370 819 370 819 306 819 c 0,14,15
 283 819 283 819 258 815.5 c 128,-1,16
 233 812 233 812 208.5 804.5 c 128,-1,17
 184 797 184 797 162 786.5 c 128,-1,18
 140 776 140 776 125 762 c 1,19,-1
 166 688 l 1,20,21
 186 705 186 705 213.5 718.5 c 128,-1,22
 241 732 241 732 277 732 c 0,23,24
 292 732 292 732 308.5 725 c 128,-1,25
 325 718 325 718 325 697 c 0,26,27
 325 685 325 685 321 676 c 128,-1,28
 317 667 317 667 305.5 661 c 128,-1,29
 294 655 294 655 275 652 c 128,-1,30
 256 649 256 649 227 649 c 2,31,-1
 205 649 l 1,32,-1
 186 562 l 1,33,-1
 209 562 l 2,34,35
 260 562 260 562 279.5 552.5 c 128,-1,36
 299 543 299 543 299 523 c 0,37,38
 299 509 299 509 292.5 498 c 128,-1,39
 286 487 286 487 274 480.5 c 128,-1,40
 262 474 262 474 247.5 471 c 128,-1,41
 233 468 233 468 216 468 c 0,42,43
 197 468 197 468 183 471 c 128,-1,44
 169 474 169 474 157 480.5 c 128,-1,45
 145 487 145 487 136 495.5 c 128,-1,46
 127 504 127 504 120 513 c 1,47,-1
 56 448 l 1,48,49
 65 410 65 410 105.5 392 c 128,-1,50
 146 374 146 374 201 374 c 0,0,1
EndSplineSet
EndChar

StartChar: uni00B5
Encoding: 181 181 119
Width: 656
GlyphClass: 1
Flags: W
LayerCount: 2
Fore
SplineSet
-46 -213 m 1,0,-1
 124 -213 l 1,1,-1
 166 34 l 1,2,3
 167 14 167 14 180.5 2 c 128,-1,4
 194 -10 194 -10 221 -10 c 0,5,6
 242 -10 242 -10 265 0.5 c 128,-1,7
 288 11 288 11 309 26 c 128,-1,8
 330 41 330 41 346.5 57.5 c 128,-1,9
 363 74 363 74 371 88 c 1,10,-1
 384 0 l 1,11,-1
 500 0 l 1,12,-1
 606 525 l 1,13,-1
 437 525 l 1,14,-1
 368 202 l 1,15,16
 353 183 353 183 338.5 169.5 c 128,-1,17
 324 156 324 156 310.5 148 c 128,-1,18
 297 140 297 140 284.5 136.5 c 128,-1,19
 272 133 272 133 262 133 c 0,20,21
 237 133 237 133 224.5 147 c 128,-1,22
 212 161 212 161 212 187 c 0,23,24
 212 195 212 195 213 204 c 128,-1,25
 214 213 214 213 217 224 c 2,26,-1
 281 525 l 1,27,-1
 111 525 l 1,28,-1
 -46 -213 l 1,0,-1
EndSplineSet
EndChar

StartChar: paragraph
Encoding: 182 182 120
Width: 665
GlyphClass: 1
Flags: W
LayerCount: 2
Fore
SplineSet
61 384 m 0,0,1
 61 342 61 342 71 307 c 128,-1,2
 81 272 81 272 101 247.5 c 128,-1,3
 121 223 121 223 149 209 c 128,-1,4
 177 195 177 195 213 195 c 1,5,-1
 154 -80 l 1,6,-1
 297 -80 l 1,7,-1
 356 195 l 1,8,-1
 389 195 l 1,9,-1
 330 -80 l 1,10,-1
 474 -80 l 1,11,-1
 615 584 l 1,12,-1
 682 584 l 1,13,-1
 709 710 l 1,14,-1
 393 710 l 2,15,16
 317 710 317 710 255 687 c 128,-1,17
 193 664 193 664 150 621.5 c 128,-1,18
 107 579 107 579 84 518.5 c 128,-1,19
 61 458 61 458 61 384 c 0,0,1
203 395 m 0,20,21
 203 430 203 430 211 463.5 c 128,-1,22
 219 497 219 497 232 523 c 128,-1,23
 245 549 245 549 261.5 565.5 c 128,-1,24
 278 582 278 582 296 584 c 1,25,-1
 239 321 l 1,26,27
 232 322 232 322 224.5 328 c 128,-1,28
 217 334 217 334 212.5 343.5 c 128,-1,29
 208 353 208 353 205.5 366 c 128,-1,30
 203 379 203 379 203 395 c 0,20,21
416 321 m 1,31,-1
 383 321 l 1,32,-1
 438 584 l 1,33,-1
 472 584 l 1,34,-1
 416 321 l 1,31,-1
EndSplineSet
EndChar

StartChar: onesuperior
Encoding: 185 185 123
Width: 303
GlyphClass: 1
Flags: W
LayerCount: 2
Fore
SplineSet
255 479 m 1,0,-1
 328 819 l 1,1,-1
 229 819 l 1,2,3
 229 818 229 818 218.5 809 c 128,-1,4
 208 800 208 800 193 789 c 128,-1,5
 178 778 178 778 160.5 769.5 c 128,-1,6
 143 761 143 761 128 761 c 1,7,-1
 107 662 l 1,8,9
 118 662 118 662 132.5 667.5 c 128,-1,10
 147 673 147 673 161 681.5 c 128,-1,11
 175 690 175 690 187.5 699 c 128,-1,12
 200 708 200 708 207 715 c 1,13,-1
 157 479 l 1,14,-1
 84 479 l 1,15,-1
 63 382 l 1,16,-1
 299 382 l 1,17,-1
 320 479 l 1,18,-1
 255 479 l 1,0,-1
EndSplineSet
EndChar

StartChar: ordmasculine
Encoding: 186 186 124
Width: 425
GlyphClass: 1
Flags: W
LayerCount: 2
Fore
SplineSet
219 335 m 0,0,1
 271 335 271 335 312.5 355 c 128,-1,2
 354 375 354 375 383.5 407 c 128,-1,3
 413 439 413 439 429 480.5 c 128,-1,4
 445 522 445 522 445 565 c 0,5,6
 445 596 445 596 436 623 c 128,-1,7
 427 650 427 650 409 670 c 128,-1,8
 391 690 391 690 363.5 702 c 128,-1,9
 336 714 336 714 299 714 c 0,10,11
 248 714 248 714 206 694.5 c 128,-1,12
 164 675 164 675 134.5 643.5 c 128,-1,13
 105 612 105 612 89.5 570.5 c 128,-1,14
 74 529 74 529 74 486 c 0,15,16
 74 455 74 455 83 427.5 c 128,-1,17
 92 400 92 400 109.5 379.5 c 128,-1,18
 127 359 127 359 155 347 c 128,-1,19
 183 335 183 335 219 335 c 0,0,1
241 437 m 0,20,21
 230 437 230 437 222 441.5 c 128,-1,22
 214 446 214 446 208 454.5 c 128,-1,23
 202 463 202 463 198.5 474.5 c 128,-1,24
 195 486 195 486 195 500 c 0,25,26
 195 524 195 524 202 544 c 128,-1,27
 209 564 209 564 220 579.5 c 128,-1,28
 231 595 231 595 246 603.5 c 128,-1,29
 261 612 261 612 278 612 c 0,30,31
 288 612 288 612 297 607.5 c 128,-1,32
 306 603 306 603 311.5 595 c 128,-1,33
 317 587 317 587 320 575.5 c 128,-1,34
 323 564 323 564 323 549 c 0,35,36
 323 525 323 525 316.5 505 c 128,-1,37
 310 485 310 485 298.5 470 c 128,-1,38
 287 455 287 455 272 446 c 128,-1,39
 257 437 257 437 241 437 c 0,20,21
EndSplineSet
EndChar

StartChar: guillemotright
Encoding: 187 187 125
Width: 670
GlyphClass: 1
Flags: W
LayerCount: 2
Fore
SplineSet
636 294 m 1,0,-1
 417 489 l 1,1,-1
 387 353 l 1,2,-1
 495 259 l 1,3,-1
 349 172 l 1,4,-1
 321 36 l 1,5,-1
 619 215 l 1,6,-1
 636 294 l 1,0,-1
314 294 m 1,7,-1
 95 489 l 1,8,-1
 66 353 l 1,9,-1
 173 259 l 1,10,-1
 27 172 l 1,11,-1
 -2 36 l 1,12,-1
 297 215 l 1,13,-1
 314 294 l 1,7,-1
EndSplineSet
EndChar

StartChar: onehalf
Encoding: 189 189 127
Width: 938
GlyphClass: 1
Flags: W
LayerCount: 2
Fore
SplineSet
237 391 m 1,0,-1
 310 731 l 1,1,-1
 211 731 l 1,2,3
 211 730 211 730 200.5 721 c 128,-1,4
 190 712 190 712 175 701 c 128,-1,5
 160 690 160 690 142.5 681.5 c 128,-1,6
 125 673 125 673 110 673 c 1,7,-1
 89 574 l 1,8,9
 100 574 100 574 114.5 579.5 c 128,-1,10
 129 585 129 585 143 593.5 c 128,-1,11
 157 602 157 602 169.5 611 c 128,-1,12
 182 620 182 620 189 627 c 1,13,-1
 139 391 l 1,14,-1
 66 391 l 1,15,-1
 46 294 l 1,16,-1
 281 294 l 1,17,-1
 302 391 l 1,18,-1
 237 391 l 1,0,-1
135 -9 m 1,19,-1
 459 338 l 1,20,-1
 784 652 l 1,21,-1
 723 720 l 1,22,-1
 411 381 l 1,23,-1
 74 59 l 1,24,-1
 135 -9 l 1,19,-1
836 -1 m 1,25,-1
 857 96 l 1,26,-1
 676 96 l 1,27,28
 678 107 678 107 685 115.5 c 128,-1,29
 692 124 692 124 703 131.5 c 128,-1,30
 714 139 714 139 728.5 145 c 128,-1,31
 743 151 743 151 760 157 c 0,32,33
 783 165 783 165 808 178 c 128,-1,34
 833 191 833 191 854.5 211 c 128,-1,35
 876 231 876 231 890.5 260 c 128,-1,36
 905 289 905 289 905 328 c 0,37,38
 905 379 905 379 871 408 c 128,-1,39
 837 437 837 437 772 437 c 0,40,41
 742 437 742 437 713 431 c 128,-1,42
 684 425 684 425 659 416 c 128,-1,43
 634 407 634 407 614.5 394 c 128,-1,44
 595 381 595 381 582 368 c 1,45,-1
 624 295 l 1,46,47
 635 305 635 305 648 314.5 c 128,-1,48
 661 324 661 324 676.5 332 c 128,-1,49
 692 340 692 340 709 344.5 c 128,-1,50
 726 349 726 349 744 349 c 0,51,52
 769 349 769 349 783 337 c 128,-1,53
 797 325 797 325 797 304 c 256,54,55
 797 283 797 283 784.5 267.5 c 128,-1,56
 772 252 772 252 752 240.5 c 128,-1,57
 732 229 732 229 707.5 219 c 128,-1,58
 683 209 683 209 659 198 c 0,59,60
 621 181 621 181 594.5 162.5 c 128,-1,61
 568 144 568 144 550.5 120.5 c 128,-1,62
 533 97 533 97 521 68 c 128,-1,63
 509 39 509 39 500 -1 c 1,64,-1
 836 -1 l 1,25,-1
EndSplineSet
EndChar

StartChar: questiondown
Encoding: 191 191 129
Width: 472
GlyphClass: 1
Flags: W
LayerCount: 2
Fore
SplineSet
233 257 m 1,0,1
 230 237 230 237 215.5 223 c 128,-1,2
 201 209 201 209 181 197 c 128,-1,3
 161 185 161 185 137.5 174 c 128,-1,4
 114 163 114 163 91 149 c 0,5,6
 66 135 66 135 46 118 c 128,-1,7
 26 101 26 101 11.5 81 c 128,-1,8
 -3 61 -3 61 -13.5 38 c 128,-1,9
 -24 15 -24 15 -30 -11 c 0,10,11
 -41 -66 -41 -66 -30.5 -104.5 c 128,-1,12
 -20 -143 -20 -143 4 -167 c 128,-1,13
 28 -191 28 -191 62.5 -202 c 128,-1,14
 97 -213 97 -213 133 -213 c 0,15,16
 168 -213 168 -213 200.5 -204 c 128,-1,17
 233 -195 233 -195 263 -178.5 c 128,-1,18
 293 -162 293 -162 318.5 -138 c 128,-1,19
 344 -114 344 -114 362 -84 c 1,20,-1
 275 -7 l 1,21,22
 267 -17 267 -17 256 -29 c 128,-1,23
 245 -41 245 -41 232 -51.5 c 128,-1,24
 219 -62 219 -62 203 -69 c 128,-1,25
 187 -76 187 -76 169 -76 c 0,26,27
 155 -76 155 -76 143.5 -71.5 c 128,-1,28
 132 -67 132 -67 124 -59 c 128,-1,29
 116 -51 116 -51 112.5 -39 c 128,-1,30
 109 -27 109 -27 113 -13 c 0,31,32
 117 11 117 11 135.5 29.5 c 128,-1,33
 154 48 154 48 176.5 63 c 128,-1,34
 199 78 199 78 221.5 88.5 c 128,-1,35
 244 99 244 99 258 106 c 0,36,37
 286 120 286 120 305 137 c 128,-1,38
 324 154 324 154 336 173 c 128,-1,39
 348 192 348 192 355 213 c 128,-1,40
 362 234 362 234 367 257 c 1,41,-1
 233 257 l 1,0,1
416 430 m 0,42,43
 424 465 424 465 405.5 490.5 c 128,-1,44
 387 516 387 516 352 516 c 0,45,46
 335 516 335 516 318 509 c 128,-1,47
 301 502 301 502 287.5 490.5 c 128,-1,48
 274 479 274 479 264 463.5 c 128,-1,49
 254 448 254 448 250 430 c 0,50,51
 243 394 243 394 261.5 368.5 c 128,-1,52
 280 343 280 343 315 343 c 0,53,54
 333 343 333 343 349.5 350 c 128,-1,55
 366 357 366 357 379.5 368.5 c 128,-1,56
 393 380 393 380 403 396 c 128,-1,57
 413 412 413 412 416 430 c 0,42,43
EndSplineSet
EndChar

StartChar: AE
Encoding: 198 198 136
Width: 933
GlyphClass: 1
Flags: W
LayerCount: 2
Fore
SplineSet
-80 0 m 1,0,-1
 104 0 l 1,1,-1
 213 153 l 1,2,-1
 410 153 l 1,3,-1
 377 0 l 1,4,-1
 837 0 l 1,5,-1
 869 152 l 1,6,-1
 583 152 l 1,7,-1
 611 285 l 1,8,-1
 838 285 l 1,9,-1
 870 437 l 1,10,-1
 643 437 l 1,11,-1
 669 558 l 1,12,-1
 947 558 l 1,13,-1
 980 710 l 1,14,-1
 482 710 l 1,15,-1
 -80 0 l 1,0,-1
319 305 m 1,16,-1
 474 517 l 1,17,-1
 429 305 l 1,18,-1
 319 305 l 1,16,-1
EndSplineSet
EndChar

StartChar: Idieresis
Encoding: 207 207 145
Width: 305
GlyphClass: 1
Flags: W
LayerCount: 2
Fore
SplineSet
2 0 m 1,0,-1
 176 0 l 1,1,-1
 327 710 l 1,2,-1
 153 710 l 1,3,-1
 2 0 l 1,0,-1
280 840 m 0,4,5
 273 805 273 805 285 779.5 c 128,-1,6
 297 754 297 754 322 754 c 0,7,8
 346 754 346 754 369 779.5 c 128,-1,9
 392 805 392 805 399 840 c 0,10,11
 407 876 407 876 395 901.5 c 128,-1,12
 383 927 383 927 358 927 c 256,13,14
 333 927 333 927 310 901.5 c 128,-1,15
 287 876 287 876 280 840 c 0,4,5
129 840 m 0,16,17
 122 805 122 805 133.5 779.5 c 128,-1,18
 145 754 145 754 170 754 c 256,19,20
 195 754 195 754 218 779.5 c 128,-1,21
 241 805 241 805 249 840 c 0,22,23
 256 876 256 876 244 901.5 c 128,-1,24
 232 927 232 927 207 927 c 256,25,26
 182 927 182 927 159.5 901.5 c 128,-1,27
 137 876 137 876 129 840 c 0,16,17
EndSplineSet
EndChar

StartChar: Eth
Encoding: 208 208 146
Width: 697
GlyphClass: 1
Flags: W
LayerCount: 2
Fore
SplineSet
31 294 m 1,0,-1
 355 294 l 1,1,-1
 382 420 l 1,2,-1
 57 420 l 1,3,-1
 31 294 l 1,0,-1
5 0 m 1,4,-1
 262 0 l 2,5,6
 353 0 353 0 430.5 32.5 c 128,-1,7
 508 65 508 65 565 123 c 128,-1,8
 622 181 622 181 654 260.5 c 128,-1,9
 686 340 686 340 686 434 c 0,10,11
 686 492 686 492 669.5 542 c 128,-1,12
 653 592 653 592 619 629.5 c 128,-1,13
 585 667 585 667 534 688.5 c 128,-1,14
 483 710 483 710 413 710 c 2,15,-1
 156 710 l 1,16,-1
 5 0 l 1,4,-1
212 152 m 1,17,-1
 298 558 l 1,18,-1
 381 558 l 2,19,20
 412 558 412 558 435 547.5 c 128,-1,21
 458 537 458 537 474.5 517 c 128,-1,22
 491 497 491 497 499 469.5 c 128,-1,23
 507 442 507 442 507 409 c 0,24,25
 507 357 507 357 491.5 311 c 128,-1,26
 476 265 476 265 448 229.5 c 128,-1,27
 420 194 420 194 381 173 c 128,-1,28
 342 152 342 152 294 152 c 2,29,-1
 212 152 l 1,17,-1
EndSplineSet
EndChar

StartChar: multiply
Encoding: 215 215 153
Width: 499
GlyphClass: 1
Flags: W
LayerCount: 2
Fore
SplineSet
346 277 m 1,0,-1
 433 364 l 1,1,-1
 328 469 l 1,2,-1
 242 383 l 1,3,-1
 155 469 l 1,4,-1
 49 364 l 1,5,-1
 135 276 l 1,6,-1
 43 184 l 1,7,-1
 148 79 l 1,8,-1
 241 172 l 1,9,-1
 334 79 l 1,10,-1
 440 184 l 1,11,-1
 346 277 l 1,0,-1
EndSplineSet
EndChar

StartChar: Thorn
Encoding: 222 222 160
Width: 584
GlyphClass: 1
Flags: W
LayerCount: 2
Fore
SplineSet
2 0 m 1,0,-1
 176 0 l 1,1,-1
 197 104 l 1,2,-1
 304 104 l 2,3,4
 361 104 361 104 411 129 c 128,-1,5
 461 154 461 154 498.5 194.5 c 128,-1,6
 536 235 536 235 558 285.5 c 128,-1,7
 580 336 580 336 580 387 c 0,8,9
 580 426 580 426 568 462.5 c 128,-1,10
 556 499 556 499 533 527 c 128,-1,11
 510 555 510 555 476.5 571.5 c 128,-1,12
 443 588 443 588 401 588 c 2,13,-1
 301 588 l 1,14,-1
 327 710 l 1,15,-1
 153 710 l 1,16,-1
 2 0 l 1,0,-1
230 256 m 1,17,-1
 269 436 l 1,18,-1
 360 436 l 2,19,20
 369 436 369 436 377.5 431.5 c 128,-1,21
 386 427 386 427 392 418 c 128,-1,22
 398 409 398 409 401 397 c 128,-1,23
 404 385 404 385 404 370 c 0,24,25
 404 346 404 346 397 326 c 128,-1,26
 390 306 390 306 379 290.5 c 128,-1,27
 368 275 368 275 354.5 265.5 c 128,-1,28
 341 256 341 256 327 256 c 2,29,-1
 230 256 l 1,17,-1
EndSplineSet
EndChar

StartChar: germandbls
Encoding: 223 223 161
Width: 543
GlyphClass: 1
Flags: W
LayerCount: 2
Fore
SplineSet
179 -6 m 1,0,1
 235 -6 235 -6 293 7.5 c 128,-1,2
 351 21 351 21 398 51 c 128,-1,3
 445 81 445 81 475 131.5 c 128,-1,4
 505 182 505 182 505 256 c 0,5,6
 505 310 505 310 483 348.5 c 128,-1,7
 461 387 461 387 420 403 c 1,8,9
 438 411 438 411 457 428.5 c 128,-1,10
 476 446 476 446 491.5 469.5 c 128,-1,11
 507 493 507 493 516.5 521 c 128,-1,12
 526 549 526 549 526 579 c 0,13,14
 526 643 526 643 481.5 678.5 c 128,-1,15
 437 714 437 714 365 714 c 0,16,17
 317 714 317 714 273 700 c 128,-1,18
 229 686 229 686 193.5 661 c 128,-1,19
 158 636 158 636 133.5 601.5 c 128,-1,20
 109 567 109 567 100 527 c 2,21,-1
 -12 0 l 1,22,-1
 149 0 l 1,23,-1
 254 496 l 2,24,25
 258 513 258 513 263.5 526.5 c 128,-1,26
 269 540 269 540 276.5 550 c 128,-1,27
 284 560 284 560 294 565.5 c 128,-1,28
 304 571 304 571 317 571 c 0,29,30
 334 571 334 571 345 560.5 c 128,-1,31
 356 550 356 550 356 530 c 0,32,33
 356 520 356 520 353 508.5 c 128,-1,34
 350 497 350 497 343 487.5 c 128,-1,35
 336 478 336 478 325 472 c 128,-1,36
 314 466 314 466 299 466 c 2,37,-1
 279 466 l 1,38,-1
 247 314 l 1,39,-1
 268 314 l 2,40,41
 277 314 277 314 288 310 c 128,-1,42
 299 306 299 306 307.5 298 c 128,-1,43
 316 290 316 290 322 277.5 c 128,-1,44
 328 265 328 265 328 249 c 0,45,46
 328 225 328 225 318.5 206.5 c 128,-1,47
 309 188 309 188 293 175 c 128,-1,48
 277 162 277 162 256 156 c 128,-1,49
 235 150 235 150 212 149 c 1,50,-1
 179 -6 l 1,0,1
EndSplineSet
EndChar

StartChar: ae
Encoding: 230 230 168
Width: 940
GlyphClass: 1
Flags: W
LayerCount: 2
Fore
SplineSet
196 -10 m 0,0,1
 246 -10 246 -10 284.5 11.5 c 128,-1,2
 323 33 323 33 353 75 c 1,3,-1
 337 0 l 1,4,-1
 466 0 l 1,5,-1
 495 153 l 1,6,-1
 487 261 l 1,7,-1
 542 359 l 1,8,-1
 576 518 l 1,9,-1
 446 518 l 1,10,-1
 430 442 l 1,11,12
 417 486 417 486 381.5 510.5 c 128,-1,13
 346 535 346 535 295 535 c 0,14,15
 239 535 239 535 187 508.5 c 128,-1,16
 135 482 135 482 96 436 c 128,-1,17
 57 390 57 390 33.5 330.5 c 128,-1,18
 10 271 10 271 10 204 c 0,19,20
 10 157 10 157 23 117.5 c 128,-1,21
 36 78 36 78 60 50 c 128,-1,22
 84 22 84 22 118.5 6 c 128,-1,23
 153 -10 153 -10 196 -10 c 0,0,1
271 133 m 0,24,25
 252 133 252 133 236.5 140.5 c 128,-1,26
 221 148 221 148 210.5 161 c 128,-1,27
 200 174 200 174 194.5 192 c 128,-1,28
 189 210 189 210 189 231 c 0,29,30
 189 261 189 261 200 290 c 128,-1,31
 211 319 211 319 229.5 341.5 c 128,-1,32
 248 364 248 364 271 378 c 128,-1,33
 294 392 294 392 319 392 c 0,34,35
 335 392 335 392 348.5 385.5 c 128,-1,36
 362 379 362 379 372.5 368 c 128,-1,37
 383 357 383 357 390.5 340.5 c 128,-1,38
 398 324 398 324 401 304 c 1,39,-1
 379 200 l 1,40,41
 366 184 366 184 353.5 171.5 c 128,-1,42
 341 159 341 159 327.5 150.5 c 128,-1,43
 314 142 314 142 300 137.5 c 128,-1,44
 286 133 286 133 271 133 c 0,24,25
612 -10 m 0,45,46
 652 -10 652 -10 692 0 c 128,-1,47
 732 10 732 10 768.5 28.5 c 128,-1,48
 805 47 805 47 835.5 73 c 128,-1,49
 866 99 866 99 887 130 c 1,50,-1
 754 173 l 1,51,52
 745 158 745 158 733 147 c 128,-1,53
 721 136 721 136 706.5 128 c 128,-1,54
 692 120 692 120 676.5 116 c 128,-1,55
 661 112 661 112 643 112 c 0,56,57
 623 112 623 112 608 118 c 128,-1,58
 593 124 593 124 584 135.5 c 128,-1,59
 575 147 575 147 570.5 164.5 c 128,-1,60
 566 182 566 182 566 205 c 0,61,62
 566 245 566 245 576 283 c 128,-1,63
 586 321 586 321 604 350 c 128,-1,64
 622 379 622 379 647 396.5 c 128,-1,65
 672 414 672 414 702 414 c 0,66,67
 716 414 716 414 727 410.5 c 128,-1,68
 738 407 738 407 746.5 401.5 c 128,-1,69
 755 396 755 396 759 387.5 c 128,-1,70
 763 379 763 379 763 368 c 0,71,72
 763 354 763 354 755.5 343.5 c 128,-1,73
 748 333 748 333 730 326 c 128,-1,74
 712 319 712 319 683 315.5 c 128,-1,75
 654 312 654 312 612 312 c 0,76,77
 583 312 583 312 556 313.5 c 128,-1,78
 529 315 529 315 507 318 c 1,79,-1
 483 216 l 1,80,81
 513 212 513 212 547 210.5 c 128,-1,82
 581 209 581 209 613 209 c 0,83,84
 770 209 770 209 849 253 c 128,-1,85
 928 297 928 297 928 384 c 0,86,87
 928 420 928 420 914 448 c 128,-1,88
 900 476 900 476 875 495.5 c 128,-1,89
 850 515 850 515 813.5 525 c 128,-1,90
 777 535 777 535 731 535 c 0,91,92
 660 535 660 535 603.5 509.5 c 128,-1,93
 547 484 547 484 509 440 c 128,-1,94
 471 396 471 396 451 338 c 128,-1,95
 431 280 431 280 431 213 c 0,96,97
 431 163 431 163 440 122 c 128,-1,98
 449 81 449 81 470.5 51.5 c 128,-1,99
 492 22 492 22 526.5 6 c 128,-1,100
 561 -10 561 -10 612 -10 c 0,45,46
EndSplineSet
EndChar

StartChar: idieresis
Encoding: 239 239 177
Width: 275
GlyphClass: 1
Flags: W
LayerCount: 2
Fore
SplineSet
78 656 m 0,0,1
 70 620 70 620 82 594.5 c 128,-1,2
 94 569 94 569 119 569 c 0,3,4
 143 569 143 569 166 594.5 c 128,-1,5
 189 620 189 620 197 656 c 0,6,7
 204 691 204 691 192 716.5 c 128,-1,8
 180 742 180 742 156 742 c 0,9,10
 131 742 131 742 108 716.5 c 128,-1,11
 85 691 85 691 78 656 c 0,0,1
228 656 m 0,12,13
 220 620 220 620 232 594.5 c 128,-1,14
 244 569 244 569 269 569 c 0,15,16
 293 569 293 569 316 594.5 c 128,-1,17
 339 620 339 620 346 656 c 0,18,19
 354 691 354 691 342 716.5 c 128,-1,20
 330 742 330 742 305 742 c 0,21,22
 281 742 281 742 258 716.5 c 128,-1,23
 235 691 235 691 228 656 c 0,12,13
-12 0 m 1,24,-1
 158 0 l 1,25,-1
 270 525 l 1,26,-1
 100 525 l 1,27,-1
 -12 0 l 1,24,-1
EndSplineSet
EndChar

StartChar: eth
Encoding: 240 240 178
Width: 599
GlyphClass: 1
Flags: W
LayerCount: 2
Fore
SplineSet
578 378 m 0,0,1
 578 432 578 432 567 485.5 c 128,-1,2
 556 539 556 539 534.5 586 c 128,-1,3
 513 633 513 633 482.5 670.5 c 128,-1,4
 452 708 452 708 412 730 c 1,5,-1
 205 730 l 1,6,7
 250 702 250 702 285 672.5 c 128,-1,8
 320 643 320 643 345 611.5 c 128,-1,9
 370 580 370 580 386.5 547 c 128,-1,10
 403 514 403 514 411 478 c 0,11,12
 414 462 414 462 416 446.5 c 128,-1,13
 418 431 418 431 419 414 c 1,14,15
 397 441 397 441 363.5 456 c 128,-1,16
 330 471 330 471 290 471 c 0,17,18
 235 471 235 471 184 448.5 c 128,-1,19
 133 426 133 426 93.5 388 c 128,-1,20
 54 350 54 350 30.5 299 c 128,-1,21
 7 248 7 248 7 191 c 0,22,23
 7 147 7 147 22.5 110 c 128,-1,24
 38 73 38 73 67.5 46.5 c 128,-1,25
 97 20 97 20 138.5 5 c 128,-1,26
 180 -10 180 -10 231 -10 c 0,27,28
 307 -10 307 -10 370.5 18 c 128,-1,29
 434 46 434 46 480 96.5 c 128,-1,30
 526 147 526 147 552 218.5 c 128,-1,31
 578 290 578 290 578 378 c 0,0,1
183 213 m 0,32,33
 183 240 183 240 192.5 262 c 128,-1,34
 202 284 202 284 218.5 300.5 c 128,-1,35
 235 317 235 317 257.5 326.5 c 128,-1,36
 280 336 280 336 306 336 c 0,37,38
 324 336 324 336 338.5 330.5 c 128,-1,39
 353 325 353 325 363 314 c 128,-1,40
 373 303 373 303 378 289 c 128,-1,41
 383 275 383 275 383 257 c 0,42,43
 383 231 383 231 374 208.5 c 128,-1,44
 365 186 365 186 348.5 169.5 c 128,-1,45
 332 153 332 153 309.5 143 c 128,-1,46
 287 133 287 133 262 133 c 0,47,48
 243 133 243 133 229 139 c 128,-1,49
 215 145 215 145 204.5 155.5 c 128,-1,50
 194 166 194 166 188.5 181 c 128,-1,51
 183 196 183 196 183 213 c 0,32,33
563 712 m 1,52,-1
 434 648 l 1,53,-1
 383 635 l 1,54,-1
 269 579 l 1,55,-1
 302 514 l 1,56,-1
 418 571 l 1,57,-1
 472 587 l 1,58,-1
 597 648 l 1,59,-1
 563 712 l 1,52,-1
EndSplineSet
EndChar

StartChar: divide
Encoding: 247 247 185
Width: 495
GlyphClass: 1
Flags: W
LayerCount: 2
Fore
SplineSet
450 238 m 1,0,-1
 450 373 l 1,1,-1
 46 373 l 1,2,-1
 46 238 l 1,3,-1
 450 238 l 1,0,-1
162 98 m 0,4,5
 162 62 162 62 187.5 36.5 c 128,-1,6
 213 11 213 11 248 11 c 0,7,8
 284 11 284 11 309.5 36.5 c 128,-1,9
 335 62 335 62 335 98 c 0,10,11
 335 133 335 133 309.5 158.5 c 128,-1,12
 284 184 284 184 248 184 c 0,13,14
 213 184 213 184 187.5 158.5 c 128,-1,15
 162 133 162 133 162 98 c 0,4,5
162 513 m 0,16,17
 162 478 162 478 187.5 452.5 c 128,-1,18
 213 427 213 427 249 427 c 0,19,20
 284 427 284 427 309.5 452.5 c 128,-1,21
 335 478 335 478 335 513 c 0,22,23
 335 549 335 549 309.5 574.5 c 128,-1,24
 284 600 284 600 249 600 c 0,25,26
 213 600 213 600 187.5 574.5 c 128,-1,27
 162 549 162 549 162 513 c 0,16,17
EndSplineSet
EndChar

StartChar: oslash
Encoding: 248 248 186
Width: 592
GlyphClass: 1
Flags: W
LayerCount: 2
Fore
SplineSet
230 -10 m 0,0,1
 306 -10 306 -10 368 18 c 128,-1,2
 430 46 430 46 474.5 91.5 c 128,-1,3
 519 137 519 137 542.5 196 c 128,-1,4
 566 255 566 255 566 316 c 0,5,6
 566 361 566 361 552.5 400.5 c 128,-1,7
 539 440 539 440 512 470 c 128,-1,8
 485 500 485 500 443.5 517.5 c 128,-1,9
 402 535 402 535 346 535 c 0,10,11
 270 535 270 535 208 507 c 128,-1,12
 146 479 146 479 102 433.5 c 128,-1,13
 58 388 58 388 34 329.5 c 128,-1,14
 10 271 10 271 10 209 c 0,15,16
 10 165 10 165 23.5 125 c 128,-1,17
 37 85 37 85 64.5 55 c 128,-1,18
 92 25 92 25 133.5 7.5 c 128,-1,19
 175 -10 175 -10 230 -10 c 0,0,1
261 133 m 0,20,21
 244 133 244 133 230 140 c 128,-1,22
 216 147 216 147 206.5 159.5 c 128,-1,23
 197 172 197 172 192 190 c 128,-1,24
 187 208 187 208 187 229 c 0,25,26
 187 264 187 264 197 293.5 c 128,-1,27
 207 323 207 323 225 345 c 128,-1,28
 243 367 243 367 266.5 379.5 c 128,-1,29
 290 392 290 392 315 392 c 0,30,31
 332 392 332 392 346 385 c 128,-1,32
 360 378 360 378 369.5 365.5 c 128,-1,33
 379 353 379 353 384.5 335 c 128,-1,34
 390 317 390 317 390 295 c 0,35,36
 390 261 390 261 379.5 231.5 c 128,-1,37
 369 202 369 202 351 180 c 128,-1,38
 333 158 333 158 309.5 145.5 c 128,-1,39
 286 133 286 133 261 133 c 0,20,21
-39 -5 m 1,40,-1
 51 -5 l 1,41,-1
 160 96 l 1,42,-1
 123 145 l 1,43,-1
 -39 -5 l 1,40,-1
172 111 m 1,44,-1
 453 391 l 1,45,-1
 409 425 l 1,46,-1
 138 155 l 1,47,-1
 172 111 l 1,44,-1
469 402 m 1,48,-1
 608 530 l 1,49,-1
 517 530 l 1,50,-1
 420 440 l 1,51,-1
 469 402 l 1,48,-1
EndSplineSet
EndChar

StartChar: thorn
Encoding: 254 254 192
Width: 616
GlyphClass: 1
Flags: W
LayerCount: 2
Fore
SplineSet
112 -213 m 1,0,-1
 175 83 l 1,1,2
 182 61 182 61 194 44 c 128,-1,3
 206 27 206 27 223.5 14.5 c 128,-1,4
 241 2 241 2 263.5 -4 c 128,-1,5
 286 -10 286 -10 314 -10 c 0,6,7
 369 -10 369 -10 419.5 17 c 128,-1,8
 470 44 470 44 509 89.5 c 128,-1,9
 548 135 548 135 571 195.5 c 128,-1,10
 594 256 594 256 594 322 c 0,11,12
 594 367 594 367 581.5 406.5 c 128,-1,13
 569 446 569 446 545.5 474 c 128,-1,14
 522 502 522 502 488.5 518.5 c 128,-1,15
 455 535 455 535 413 535 c 0,16,17
 390 535 390 535 369 531 c 128,-1,18
 348 527 348 527 329.5 519 c 128,-1,19
 311 511 311 511 294 500 c 128,-1,20
 277 489 277 489 262 476 c 1,21,-1
 312 710 l 1,22,-1
 138 710 l 1,23,-1
 -58 -213 l 1,24,-1
 112 -213 l 1,0,-1
286 133 m 0,25,26
 271 133 271 133 257.5 140 c 128,-1,27
 244 147 244 147 233 159 c 128,-1,28
 222 171 222 171 215 187.5 c 128,-1,29
 208 204 208 204 204 223 c 1,30,-1
 227 325 l 1,31,32
 238 341 238 341 251 353.5 c 128,-1,33
 264 366 264 366 277.5 374 c 128,-1,34
 291 382 291 382 305 387 c 128,-1,35
 319 392 319 392 333 392 c 0,36,37
 353 392 353 392 368.5 384.5 c 128,-1,38
 384 377 384 377 394.5 364 c 128,-1,39
 405 351 405 351 411 333.5 c 128,-1,40
 417 316 417 316 417 294 c 0,41,42
 417 263 417 263 406 234 c 128,-1,43
 395 205 395 205 376.5 183 c 128,-1,44
 358 161 358 161 334.5 147 c 128,-1,45
 311 133 311 133 286 133 c 0,25,26
EndSplineSet
EndChar

StartChar: Dcroat
Encoding: 272 272 210
Width: 697
GlyphClass: 1
Flags: W
LayerCount: 2
Fore
SplineSet
31 294 m 1,0,-1
 355 294 l 1,1,-1
 382 420 l 1,2,-1
 57 420 l 1,3,-1
 31 294 l 1,0,-1
5 0 m 1,4,-1
 262 0 l 2,5,6
 353 0 353 0 430.5 32.5 c 128,-1,7
 508 65 508 65 565 123 c 128,-1,8
 622 181 622 181 654 260.5 c 128,-1,9
 686 340 686 340 686 434 c 0,10,11
 686 492 686 492 669.5 542 c 128,-1,12
 653 592 653 592 619 629.5 c 128,-1,13
 585 667 585 667 534 688.5 c 128,-1,14
 483 710 483 710 413 710 c 2,15,-1
 156 710 l 1,16,-1
 5 0 l 1,4,-1
212 152 m 1,17,-1
 298 558 l 1,18,-1
 381 558 l 2,19,20
 412 558 412 558 435 547.5 c 128,-1,21
 458 537 458 537 474.5 517 c 128,-1,22
 491 497 491 497 499 469.5 c 128,-1,23
 507 442 507 442 507 409 c 0,24,25
 507 357 507 357 491.5 311 c 128,-1,26
 476 265 476 265 448 229.5 c 128,-1,27
 420 194 420 194 381 173 c 128,-1,28
 342 152 342 152 294 152 c 2,29,-1
 212 152 l 1,17,-1
EndSplineSet
EndChar

StartChar: dcroat
Encoding: 273 273 211
Width: 637
GlyphClass: 1
Flags: W
LayerCount: 2
Fore
SplineSet
385 583 m 1,0,-1
 696 583 l 1,1,-1
 717 682 l 1,2,-1
 406 682 l 1,3,-1
 385 583 l 1,0,-1
196 -10 m 0,4,5
 221 -10 221 -10 243 -4.5 c 128,-1,6
 265 1 265 1 284 11 c 128,-1,7
 303 21 303 21 320 37 c 128,-1,8
 337 53 337 53 352 74 c 1,9,-1
 337 0 l 1,10,-1
 505 0 l 1,11,-1
 660 730 l 1,12,-1
 491 730 l 1,13,-1
 429 442 l 1,14,15
 423 464 423 464 411 480.5 c 128,-1,16
 399 497 399 497 381.5 509.5 c 128,-1,17
 364 522 364 522 341.5 528.5 c 128,-1,18
 319 535 319 535 294 535 c 0,19,20
 238 535 238 535 187 508.5 c 128,-1,21
 136 482 136 482 96.5 436 c 128,-1,22
 57 390 57 390 33.5 330 c 128,-1,23
 10 270 10 270 10 203 c 0,24,25
 10 157 10 157 23 117.5 c 128,-1,26
 36 78 36 78 60 50 c 128,-1,27
 84 22 84 22 118.5 6 c 128,-1,28
 153 -10 153 -10 196 -10 c 0,4,5
271 133 m 0,29,30
 253 133 253 133 237 140.5 c 128,-1,31
 221 148 221 148 210.5 161 c 128,-1,32
 200 174 200 174 194.5 192 c 128,-1,33
 189 210 189 210 189 231 c 0,34,35
 189 261 189 261 199.5 290.5 c 128,-1,36
 210 320 210 320 228.5 342 c 128,-1,37
 247 364 247 364 270 378 c 128,-1,38
 293 392 293 392 318 392 c 0,39,40
 334 392 334 392 347.5 385.5 c 128,-1,41
 361 379 361 379 372.5 368 c 128,-1,42
 384 357 384 357 391.5 341 c 128,-1,43
 399 325 399 325 402 305 c 1,44,-1
 380 200 l 1,45,46
 368 185 368 185 355 172 c 128,-1,47
 342 159 342 159 328 150.5 c 128,-1,48
 314 142 314 142 300 137.5 c 128,-1,49
 286 133 286 133 271 133 c 0,29,30
EndSplineSet
EndChar

StartChar: hcircumflex
Encoding: 293 293 231
Width: 594
GlyphClass: 1
Flags: W
LayerCount: 2
Fore
SplineSet
-12 0 m 1,0,-1
 158 0 l 1,1,-1
 222 299 l 1,2,3
 232 319 232 319 246.5 335 c 128,-1,4
 261 351 261 351 276.5 362.5 c 128,-1,5
 292 374 292 374 307 380 c 128,-1,6
 322 386 322 386 332 386 c 0,7,8
 354 386 354 386 367 373 c 128,-1,9
 380 360 380 360 380 330 c 0,10,11
 380 323 380 323 379.5 314.5 c 128,-1,12
 379 306 379 306 376 295 c 2,13,-1
 313 0 l 1,14,-1
 483 0 l 1,15,-1
 555 339 l 2,16,17
 559 358 559 358 561.5 377.5 c 128,-1,18
 564 397 564 397 564 416 c 0,19,20
 564 440 564 440 558 461.5 c 128,-1,21
 552 483 552 483 538 499.5 c 128,-1,22
 524 516 524 516 500.5 525.5 c 128,-1,23
 477 535 477 535 440 535 c 0,24,25
 413 535 413 535 387 529 c 128,-1,26
 361 523 361 523 337 510.5 c 128,-1,27
 313 498 313 498 291.5 480.5 c 128,-1,28
 270 463 270 463 251 440 c 1,29,-1
 313 730 l 1,30,-1
 143 730 l 1,31,-1
 -12 0 l 1,0,-1
491 913 m 1,32,-1
 350 913 l 1,33,-1
 227 747 l 1,34,-1
 302 747 l 1,35,-1
 491 913 l 1,32,-1
354 913 m 1,36,-1
 477 747 l 1,37,-1
 553 747 l 1,38,-1
 495 913 l 1,39,-1
 354 913 l 1,36,-1
EndSplineSet
EndChar

StartChar: Hbar
Encoding: 294 294 232
Width: 728
GlyphClass: 1
Flags: W
LayerCount: 2
Fore
SplineSet
73 540 m 1,0,-1
 758 540 l 1,1,-1
 775 620 l 1,2,-1
 90 620 l 1,3,-1
 73 540 l 1,0,-1
5 0 m 1,4,-1
 179 0 l 1,5,-1
 240 287 l 1,6,-1
 483 287 l 1,7,-1
 422 0 l 1,8,-1
 596 0 l 1,9,-1
 747 710 l 1,10,-1
 573 710 l 1,11,-1
 515 439 l 1,12,-1
 272 439 l 1,13,-1
 330 710 l 1,14,-1
 156 710 l 1,15,-1
 5 0 l 1,4,-1
EndSplineSet
EndChar

StartChar: hbar
Encoding: 295 295 233
Width: 594
GlyphClass: 1
Flags: W
LayerCount: 2
Fore
SplineSet
61 583 m 1,0,-1
 373 583 l 1,1,-1
 393 682 l 1,2,-1
 82 682 l 1,3,-1
 61 583 l 1,0,-1
-12 0 m 1,4,-1
 158 0 l 1,5,-1
 222 299 l 1,6,7
 232 319 232 319 246.5 335 c 128,-1,8
 261 351 261 351 276.5 362.5 c 128,-1,9
 292 374 292 374 307 380 c 128,-1,10
 322 386 322 386 332 386 c 0,11,12
 354 386 354 386 367 373 c 128,-1,13
 380 360 380 360 380 330 c 0,14,15
 380 323 380 323 379.5 314.5 c 128,-1,16
 379 306 379 306 376 295 c 2,17,-1
 313 0 l 1,18,-1
 483 0 l 1,19,-1
 555 339 l 2,20,21
 559 358 559 358 561.5 377.5 c 128,-1,22
 564 397 564 397 564 416 c 0,23,24
 564 440 564 440 558 461.5 c 128,-1,25
 552 483 552 483 538 499.5 c 128,-1,26
 524 516 524 516 500.5 525.5 c 128,-1,27
 477 535 477 535 440 535 c 0,28,29
 413 535 413 535 387 529 c 128,-1,30
 361 523 361 523 337 510.5 c 128,-1,31
 313 498 313 498 291.5 480.5 c 128,-1,32
 270 463 270 463 251 440 c 1,33,-1
 313 730 l 1,34,-1
 143 730 l 1,35,-1
 -12 0 l 1,4,-1
EndSplineSet
EndChar

StartChar: dotlessi
Encoding: 305 305 243
Width: 274
GlyphClass: 1
Flags: W
LayerCount: 2
Fore
SplineSet
-12 0 m 1,0,-1
 158 0 l 1,1,-1
 270 525 l 1,2,-1
 100 525 l 1,3,-1
 -12 0 l 1,0,-1
EndSplineSet
EndChar

StartChar: kgreenlandic
Encoding: 312 312 248
Width: 555
GlyphClass: 1
Flags: W
LayerCount: 2
Fore
SplineSet
-12 0 m 1,0,-1
 158 0 l 1,1,-1
 190 152 l 1,2,-1
 244 205 l 1,3,-1
 320 0 l 1,4,-1
 500 0 l 1,5,-1
 372 298 l 1,6,-1
 595 525 l 1,7,-1
 416 525 l 1,8,-1
 224 315 l 1,9,-1
 270 525 l 1,10,-1
 100 525 l 1,11,-1
 -12 0 l 1,0,-1
EndSplineSet
EndChar

StartChar: Lslash
Encoding: 321 321 257
Width: 571
GlyphClass: 1
Flags: W
LayerCount: 2
Fore
SplineSet
18 248 m 1,0,-1
 392 436 l 1,1,-1
 372 526 l 1,2,-1
 -1 339 l 1,3,-1
 18 248 l 1,0,-1
2 0 m 1,4,-1
 489 0 l 1,5,-1
 522 152 l 1,6,-1
 208 152 l 1,7,-1
 327 710 l 1,8,-1
 153 710 l 1,9,-1
 2 0 l 1,4,-1
EndSplineSet
EndChar

StartChar: lslash
Encoding: 322 322 258
Width: 375
GlyphClass: 1
Flags: W
LayerCount: 2
Fore
SplineSet
26 258 m 1,0,-1
 392 435 l 1,1,-1
 372 526 l 1,2,-1
 6 349 l 1,3,-1
 26 258 l 1,0,-1
170 -9 m 0,4,5
 204 -9 204 -9 245 -1 c 128,-1,6
 286 7 286 7 320 22 c 1,7,-1
 326 148 l 1,8,9
 313 142 313 142 298.5 138 c 128,-1,10
 284 134 284 134 273 134 c 0,11,12
 254 134 254 134 244.5 144 c 128,-1,13
 235 154 235 154 235 173 c 0,14,15
 235 178 235 178 236 184.5 c 128,-1,16
 237 191 237 191 239 198 c 2,17,-1
 352 730 l 1,18,-1
 183 730 l 1,19,-1
 56 134 l 2,20,21
 53 123 53 123 52 112.5 c 128,-1,22
 51 102 51 102 51 92 c 0,23,24
 51 43 51 43 81 17 c 128,-1,25
 111 -9 111 -9 170 -9 c 0,4,5
EndSplineSet
EndChar

StartChar: Eng
Encoding: 330 330 265
Width: 710
GlyphClass: 1
Flags: W
LayerCount: 2
Fore
SplineSet
346 -204 m 0,0,1
 387 -204 387 -204 424.5 -190 c 128,-1,2
 462 -176 462 -176 493.5 -149 c 128,-1,3
 525 -122 525 -122 548 -84.5 c 128,-1,4
 571 -47 571 -47 581 0 c 2,5,-1
 732 709 l 1,6,-1
 558 709 l 1,7,-1
 475 319 l 1,8,-1
 286 710 l 1,9,-1
 153 710 l 1,10,-1
 2 0 l 1,11,-1
 176 0 l 1,12,-1
 257 382 l 1,13,-1
 420 38 l 1,14,-1
 410 -7 l 2,15,16
 408 -19 408 -19 402.5 -28.5 c 128,-1,17
 397 -38 397 -38 390 -44.5 c 128,-1,18
 383 -51 383 -51 374.5 -54.5 c 128,-1,19
 366 -58 366 -58 356 -58 c 0,20,21
 342 -58 342 -58 330.5 -53 c 128,-1,22
 319 -48 319 -48 313 -38 c 1,23,-1
 219 -153 l 1,24,25
 242 -178 242 -178 275 -191 c 128,-1,26
 308 -204 308 -204 346 -204 c 0,0,1
EndSplineSet
EndChar

StartChar: eng
Encoding: 331 331 266
Width: 593
GlyphClass: 1
Flags: W
LayerCount: 2
Fore
SplineSet
247 -204 m 0,0,1
 288 -204 288 -204 326.5 -189 c 128,-1,2
 365 -174 365 -174 396.5 -146 c 128,-1,3
 428 -118 428 -118 450.5 -79 c 128,-1,4
 473 -40 473 -40 483 6 c 2,5,-1
 554 339 l 2,6,7
 558 358 558 358 560.5 377.5 c 128,-1,8
 563 397 563 397 563 417 c 0,9,10
 563 440 563 440 558 461.5 c 128,-1,11
 553 483 553 483 539.5 499 c 128,-1,12
 526 515 526 515 503 525 c 128,-1,13
 480 535 480 535 445 535 c 0,14,15
 412 535 412 535 382 529 c 128,-1,16
 352 523 352 523 325.5 510.5 c 128,-1,17
 299 498 299 498 276 480.5 c 128,-1,18
 253 463 253 463 234 440 c 1,19,-1
 253 525 l 1,20,-1
 100 525 l 1,21,-1
 -12 0 l 1,22,-1
 158 0 l 1,23,-1
 222 299 l 1,24,25
 232 319 232 319 246.5 334.5 c 128,-1,26
 261 350 261 350 276 361.5 c 128,-1,27
 291 373 291 373 306.5 379.5 c 128,-1,28
 322 386 322 386 335 386 c 0,29,30
 355 386 355 386 367.5 373 c 128,-1,31
 380 360 380 360 380 331 c 0,32,33
 380 323 380 323 379.5 314.5 c 128,-1,34
 379 306 379 306 376 295 c 2,35,-1
 312 -7 l 2,36,37
 309 -19 309 -19 304 -28.5 c 128,-1,38
 299 -38 299 -38 291.5 -44.5 c 128,-1,39
 284 -51 284 -51 275.5 -54.5 c 128,-1,40
 267 -58 267 -58 257 -58 c 0,41,42
 243 -58 243 -58 232 -53 c 128,-1,43
 221 -48 221 -48 215 -38 c 1,44,-1
 120 -153 l 1,45,46
 143 -178 143 -178 175.5 -191 c 128,-1,47
 208 -204 208 -204 247 -204 c 0,0,1
EndSplineSet
EndChar

StartChar: OE
Encoding: 338 338 273
Width: 997
GlyphClass: 1
Flags: W
LayerCount: 2
Fore
SplineSet
285 -5 m 0,0,1
 307 -5 307 -5 329 0.5 c 128,-1,2
 351 6 351 6 372.5 15 c 128,-1,3
 394 24 394 24 415 36.5 c 128,-1,4
 436 49 436 49 455 64 c 1,5,-1
 441 0 l 1,6,-1
 902 0 l 1,7,-1
 934 152 l 1,8,-1
 647 152 l 1,9,-1
 676 285 l 1,10,-1
 903 285 l 1,11,-1
 935 437 l 1,12,-1
 708 437 l 1,13,-1
 734 558 l 1,14,-1
 1012 558 l 1,15,-1
 1044 710 l 1,16,-1
 592 710 l 1,17,-1
 579 647 l 1,18,19
 567 662 567 662 552 674.5 c 128,-1,20
 537 687 537 687 519.5 696 c 128,-1,21
 502 705 502 705 483 710 c 128,-1,22
 464 715 464 715 442 715 c 0,23,24
 361 715 361 715 287 679 c 128,-1,25
 213 643 213 643 156 583 c 128,-1,26
 99 523 99 523 65 446 c 128,-1,27
 31 369 31 369 31 288 c 0,28,29
 31 231 31 231 48 178 c 128,-1,30
 65 125 65 125 97 84.5 c 128,-1,31
 129 44 129 44 176.5 19.5 c 128,-1,32
 224 -5 224 -5 285 -5 c 0,0,1
319 150 m 0,33,34
 291 150 291 150 270 162 c 128,-1,35
 249 174 249 174 235.5 194.5 c 128,-1,36
 222 215 222 215 215.5 242.5 c 128,-1,37
 209 270 209 270 209 300 c 0,38,39
 209 343 209 343 222.5 389 c 128,-1,40
 236 435 236 435 262 473 c 128,-1,41
 288 511 288 511 324 535.5 c 128,-1,42
 360 560 360 560 406 560 c 0,43,44
 435 560 435 560 455.5 548 c 128,-1,45
 476 536 476 536 489.5 515.5 c 128,-1,46
 503 495 503 495 509.5 467.5 c 128,-1,47
 516 440 516 440 516 410 c 0,48,49
 516 367 516 367 503 321 c 128,-1,50
 490 275 490 275 464.5 237 c 128,-1,51
 439 199 439 199 402 174.5 c 128,-1,52
 365 150 365 150 319 150 c 0,33,34
EndSplineSet
EndChar

StartChar: Tbar
Encoding: 358 358 293
Width: 619
GlyphClass: 1
Flags: W
LayerCount: 2
Fore
SplineSet
57 284 m 1,0,-1
 554 284 l 1,1,-1
 571 364 l 1,2,-1
 74 364 l 1,3,-1
 57 284 l 1,0,-1
159 0 m 1,4,-1
 333 0 l 1,5,-1
 451 558 l 1,6,-1
 649 558 l 1,7,-1
 681 710 l 1,8,-1
 110 710 l 1,9,-1
 78 558 l 1,10,-1
 277 558 l 1,11,-1
 159 0 l 1,4,-1
EndSplineSet
EndChar

StartChar: tbar
Encoding: 359 359 294
Width: 401
GlyphClass: 1
Flags: W
LayerCount: 2
Fore
SplineSet
12 240 m 1,0,-1
 326 240 l 1,1,-1
 347 339 l 1,2,-1
 32 339 l 1,3,-1
 12 240 l 1,0,-1
46 91 m 0,4,5
 46 36 46 36 80.5 13 c 128,-1,6
 115 -10 115 -10 166 -10 c 0,7,8
 187 -10 187 -10 208.5 -7 c 128,-1,9
 230 -4 230 -4 251.5 1 c 128,-1,10
 273 6 273 6 294.5 13 c 128,-1,11
 316 20 316 20 335 28 c 1,12,-1
 332 162 l 1,13,14
 324 159 324 159 314.5 155.5 c 128,-1,15
 305 152 305 152 296 150 c 128,-1,16
 287 148 287 148 278.5 146 c 128,-1,17
 270 144 270 144 263 144 c 0,18,19
 248 144 248 144 239 151.5 c 128,-1,20
 230 159 230 159 230 176 c 0,21,22
 230 180 230 180 230.5 184 c 128,-1,23
 231 188 231 188 232 193 c 2,24,-1
 276 397 l 1,25,-1
 375 397 l 1,26,-1
 402 525 l 1,27,-1
 303 525 l 1,28,-1
 339 692 l 1,29,-1
 169 692 l 1,30,-1
 134 525 l 1,31,-1
 71 525 l 1,32,-1
 44 397 l 1,33,-1
 106 397 l 1,34,-1
 50 134 l 2,35,36
 47 122 47 122 46.5 112 c 128,-1,37
 46 102 46 102 46 91 c 0,4,5
EndSplineSet
EndChar

StartChar: uni018F
Encoding: 399 399 318
Width: 727
GlyphClass: 1
Flags: W
LayerCount: 2
Fore
SplineSet
293 -5 m 0,0,1
 388 -5 388 -5 466.5 34.5 c 128,-1,2
 545 74 545 74 601 136 c 128,-1,3
 657 198 657 198 688 274 c 128,-1,4
 719 350 719 350 719 424 c 0,5,6
 719 477 719 477 702.5 529.5 c 128,-1,7
 686 582 686 582 652 623 c 128,-1,8
 618 664 618 664 567 689 c 128,-1,9
 516 714 516 714 447 714 c 0,10,11
 391 714 391 714 340 700.5 c 128,-1,12
 289 687 289 687 244 662 c 128,-1,13
 199 637 199 637 162 602 c 128,-1,14
 125 567 125 567 97 524 c 1,15,-1
 266 471 l 1,16,17
 276 492 276 492 292.5 508.5 c 128,-1,18
 309 525 309 525 329 536.5 c 128,-1,19
 349 548 349 548 371 554.5 c 128,-1,20
 393 561 393 561 415 561 c 0,21,22
 439 561 439 561 460.5 553 c 128,-1,23
 482 545 482 545 498 529.5 c 128,-1,24
 514 514 514 514 523 490.5 c 128,-1,25
 532 467 532 467 532 435 c 0,26,27
 532 429 532 429 531.5 422 c 128,-1,28
 531 415 531 415 530 407 c 1,29,-1
 44 407 l 1,30,31
 35 387 35 387 26 356.5 c 128,-1,32
 17 326 17 326 17 284 c 0,33,34
 17 232 17 232 33.5 180 c 128,-1,35
 50 128 50 128 84.5 87 c 128,-1,36
 119 46 119 46 171 20.5 c 128,-1,37
 223 -5 223 -5 293 -5 c 0,0,1
328 147 m 0,38,39
 300 147 300 147 276.5 154.5 c 128,-1,40
 253 162 253 162 235.5 175.5 c 128,-1,41
 218 189 218 189 208.5 207.5 c 128,-1,42
 199 226 199 226 199 249 c 0,43,44
 199 256 199 256 199.5 263 c 128,-1,45
 200 270 200 270 202 277 c 1,46,-1
 499 277 l 1,47,48
 489 248 489 248 471.5 223.5 c 128,-1,49
 454 199 454 199 432 182.5 c 128,-1,50
 410 166 410 166 383.5 156.5 c 128,-1,51
 357 147 357 147 328 147 c 0,38,39
EndSplineSet
EndChar

StartChar: florin
Encoding: 402 402 319
Width: 538
GlyphClass: 1
Flags: W
LayerCount: 2
Fore
SplineSet
60 -204 m 0,0,1
 100 -204 100 -204 138 -189.5 c 128,-1,2
 176 -175 176 -175 207 -148.5 c 128,-1,3
 238 -122 238 -122 260.5 -84.5 c 128,-1,4
 283 -47 283 -47 293 -3 c 2,5,-1
 365 336 l 1,6,-1
 477 336 l 1,7,-1
 505 464 l 1,8,-1
 392 464 l 1,9,-1
 406 530 l 2,10,11
 413 564 413 564 429 580.5 c 128,-1,12
 445 597 445 597 469 597 c 0,13,14
 484 597 484 597 502 592.5 c 128,-1,15
 520 588 520 588 534 581 c 1,16,-1
 590 710 l 1,17,18
 558 725 558 725 525.5 732.5 c 128,-1,19
 493 740 493 740 462 740 c 0,20,21
 421 740 421 740 384.5 724.5 c 128,-1,22
 348 709 348 709 318.5 681 c 128,-1,23
 289 653 289 653 268 613.5 c 128,-1,24
 247 574 247 574 236 524 c 2,25,-1
 223 464 l 1,26,-1
 161 464 l 1,27,-1
 133 336 l 1,28,-1
 195 336 l 1,29,-1
 123 -7 l 2,30,31
 120 -19 120 -19 115 -28.5 c 128,-1,32
 110 -38 110 -38 103 -44.5 c 128,-1,33
 96 -51 96 -51 87 -54.5 c 128,-1,34
 78 -58 78 -58 69 -58 c 0,35,36
 56 -58 56 -58 44.5 -53 c 128,-1,37
 33 -48 33 -48 27 -38 c 1,38,-1
 -68 -153 l 1,39,40
 -45 -178 -45 -178 -12 -191 c 128,-1,41
 21 -204 21 -204 60 -204 c 0,0,1
EndSplineSet
EndChar

StartChar: Aringacute
Encoding: 506 506 328
Width: 639
GlyphClass: 1
Flags: W
LayerCount: 2
Fore
SplineSet
-58 0 m 1,0,-1
 120 0 l 1,1,-1
 196 153 l 1,2,-1
 388 153 l 1,3,-1
 400 0 l 1,4,-1
 578 0 l 1,5,-1
 490 710 l 1,6,-1
 332 710 l 1,7,-1
 -58 0 l 1,0,-1
248 271 m 1,8,-1
 369 512 l 1,9,-1
 385 271 l 1,10,-1
 248 271 l 1,8,-1
626 964 m 1,11,-1
 464 964 l 1,12,-1
 384 812 l 1,13,-1
 475 812 l 1,14,-1
 626 964 l 1,11,-1
311 739 m 0,15,16
 311 706 311 706 335.5 689 c 128,-1,17
 360 672 360 672 403 672 c 0,18,19
 459 672 459 672 494.5 698 c 128,-1,20
 530 724 530 724 530 772 c 0,21,22
 530 805 530 805 505.5 822 c 128,-1,23
 481 839 481 839 438 839 c 0,24,25
 382 839 382 839 346.5 813.5 c 128,-1,26
 311 788 311 788 311 739 c 0,15,16
427 790 m 0,27,28
 441 790 441 790 450 782 c 128,-1,29
 459 774 459 774 459 762 c 0,30,31
 459 744 459 744 445 733 c 128,-1,32
 431 722 431 722 413 722 c 0,33,34
 399 722 399 722 390.5 729.5 c 128,-1,35
 382 737 382 737 382 750 c 0,36,37
 382 768 382 768 395.5 779 c 128,-1,38
 409 790 409 790 427 790 c 0,27,28
EndSplineSet
EndChar

StartChar: uni0237
Encoding: 567 567 370
Width: 274
GlyphClass: 1
Flags: W
LayerCount: 2
Fore
SplineSet
-77 -204 m 0,0,1
 -35 -204 -35 -204 3.5 -189 c 128,-1,2
 42 -174 42 -174 73.5 -146 c 128,-1,3
 105 -118 105 -118 127.5 -79 c 128,-1,4
 150 -40 150 -40 159 6 c 2,5,-1
 270 525 l 1,6,-1
 99 525 l 1,7,-1
 -14 -7 l 2,8,9
 -16 -19 -16 -19 -21 -28.5 c 128,-1,10
 -26 -38 -26 -38 -33 -44.5 c 128,-1,11
 -40 -51 -40 -51 -49 -54.5 c 128,-1,12
 -58 -58 -58 -58 -67 -58 c 0,13,14
 -80 -58 -80 -58 -91.5 -53 c 128,-1,15
 -103 -48 -103 -48 -110 -38 c 1,16,-1
 -204 -153 l 1,17,18
 -181 -178 -181 -178 -148 -191 c 128,-1,19
 -115 -204 -115 -204 -77 -204 c 0,0,1
EndSplineSet
EndChar

StartChar: uni0259
Encoding: 601 601 371
Width: 586
GlyphClass: 1
Flags: W
LayerCount: 2
Fore
SplineSet
224 -10 m 0,0,1
 301 -10 301 -10 363.5 18 c 128,-1,2
 426 46 426 46 469.5 92 c 128,-1,3
 513 138 513 138 537 197 c 128,-1,4
 561 256 561 256 561 318 c 0,5,6
 561 363 561 363 547 402 c 128,-1,7
 533 441 533 441 505.5 470.5 c 128,-1,8
 478 500 478 500 436.5 517.5 c 128,-1,9
 395 535 395 535 340 535 c 0,10,11
 295 535 295 535 254 524.5 c 128,-1,12
 213 514 213 514 178.5 495.5 c 128,-1,13
 144 477 144 477 115 451.5 c 128,-1,14
 86 426 86 426 65 394 c 1,15,-1
 200 353 l 1,16,17
 207 367 207 367 219.5 378 c 128,-1,18
 232 389 232 389 246 397 c 128,-1,19
 260 405 260 405 276 409 c 128,-1,20
 292 413 292 413 308 413 c 0,21,22
 323 413 323 413 337 408 c 128,-1,23
 351 403 351 403 361.5 393 c 128,-1,24
 372 383 372 383 378.5 368.5 c 128,-1,25
 385 354 385 354 385 334 c 0,26,27
 385 329 385 329 385 324.5 c 128,-1,28
 385 320 385 320 384 315 c 1,29,-1
 26 315 l 1,30,31
 15 288 15 288 9.5 256.5 c 128,-1,32
 4 225 4 225 4 197 c 0,33,34
 4 154 4 154 17.5 116 c 128,-1,35
 31 78 31 78 58.5 50 c 128,-1,36
 86 22 86 22 127 6 c 128,-1,37
 168 -10 168 -10 224 -10 c 0,0,1
252 111 m 0,38,39
 235 111 235 111 221.5 117 c 128,-1,40
 208 123 208 123 198.5 133.5 c 128,-1,41
 189 144 189 144 184.5 159 c 128,-1,42
 180 174 180 174 180 194 c 0,43,44
 180 198 180 198 180 202.5 c 128,-1,45
 180 207 180 207 181 212 c 1,46,-1
 366 212 l 1,47,48
 359 189 359 189 347.5 170 c 128,-1,49
 336 151 336 151 321 138 c 128,-1,50
 306 125 306 125 288.5 118 c 128,-1,51
 271 111 271 111 252 111 c 0,38,39
EndSplineSet
EndChar

StartChar: uni02BC
Encoding: 700 700 375
Width: 255
GlyphClass: 1
Flags: W
LayerCount: 2
Fore
SplineSet
346 730 m 1,0,-1
 185 730 l 1,1,-1
 105 570 l 1,2,-1
 195 570 l 1,3,-1
 346 730 l 1,0,-1
EndSplineSet
EndChar

StartChar: uni02BE
Encoding: 702 702 376
Width: 135
GlyphClass: 1
Flags: W
LayerCount: 2
Fore
SplineSet
85 555 m 1,0,1
 108 555 108 555 128.5 563 c 128,-1,2
 149 571 149 571 163.5 585.5 c 128,-1,3
 178 600 178 600 186.5 620.5 c 128,-1,4
 195 641 195 641 195 666 c 0,5,6
 195 700 195 700 179.5 720 c 128,-1,7
 164 740 164 740 134 740 c 1,8,-1
 120 687 l 1,9,10
 126 687 126 687 129.5 678 c 128,-1,11
 133 669 133 669 133 656 c 0,12,13
 133 637 133 637 121.5 622.5 c 128,-1,14
 110 608 110 608 99 608 c 1,15,-1
 85 555 l 1,0,1
EndSplineSet
EndChar

StartChar: uni02BF
Encoding: 703 703 377
Width: 134
GlyphClass: 1
Flags: W
LayerCount: 2
Fore
SplineSet
179 608 m 1,0,1
 172 608 172 608 169 617.5 c 128,-1,2
 166 627 166 627 166 640 c 0,3,4
 166 660 166 660 176.5 673.5 c 128,-1,5
 187 687 187 687 199 687 c 1,6,-1
 213 740 l 1,7,8
 190 740 190 740 169.5 732 c 128,-1,9
 149 724 149 724 134.5 709.5 c 128,-1,10
 120 695 120 695 111.5 674.5 c 128,-1,11
 103 654 103 654 103 629 c 0,12,13
 103 595 103 595 118.5 575 c 128,-1,14
 134 555 134 555 165 555 c 1,15,-1
 179 608 l 1,0,1
EndSplineSet
EndChar

StartChar: uni02C8
Encoding: 712 712 380
Width: 229
GlyphClass: 1
Flags: W
LayerCount: 2
Fore
SplineSet
103 775 m 1,0,-1
 103 387 l 1,1,-1
 246 387 l 1,2,-1
 246 775 l 1,3,-1
 103 775 l 1,0,-1
EndSplineSet
EndChar

StartChar: uni02C9
Encoding: 713 713 381
Width: 406
GlyphClass: 1
Flags: W
LayerCount: 2
Fore
SplineSet
417 616 m 1,0,-1
 441 718 l 1,1,-1
 161 718 l 1,2,-1
 138 616 l 1,3,-1
 417 616 l 1,0,-1
EndSplineSet
EndChar

StartChar: uni02CB
Encoding: 715 715 382
Width: 249
GlyphClass: 1
Flags: W
LayerCount: 2
Fore
SplineSet
234 497 m 1,0,-1
 292 728 l 1,1,-1
 154 728 l 1,2,-1
 128 497 l 1,3,-1
 234 497 l 1,0,-1
EndSplineSet
EndChar

StartChar: uni02CC
Encoding: 716 716 383
Width: 229
GlyphClass: 1
Flags: W
LayerCount: 2
Fore
SplineSet
-7 258 m 1,0,-1
 -7 -130 l 1,1,-1
 136 -130 l 1,2,-1
 136 258 l 1,3,-1
 -7 258 l 1,0,-1
EndSplineSet
EndChar

StartChar: hungarumlaut
Encoding: 733 733 389
Width: 387
GlyphClass: 1
Flags: W
LayerCount: 2
Fore
SplineSet
477 730 m 1,0,-1
 324 730 l 1,1,-1
 226 563 l 1,2,-1
 308 563 l 1,3,-1
 477 730 l 1,0,-1
297 730 m 1,4,-1
 144 730 l 1,5,-1
 46 563 l 1,6,-1
 128 563 l 1,7,-1
 297 730 l 1,4,-1
EndSplineSet
EndChar

StartChar: gravecomb
Encoding: 768 768 390
Width: 274
GlyphClass: 1
Flags: W
LayerCount: 2
Fore
SplineSet
75 760 m 1,0,-1
 192 600 l 1,1,-1
 274 600 l 1,2,-1
 228 760 l 1,3,-1
 75 760 l 1,0,-1
EndSplineSet
EndChar

StartChar: acutecomb
Encoding: 769 769 391
Width: 274
GlyphClass: 1
Flags: W
LayerCount: 2
Fore
SplineSet
300 760 m 1,0,-1
 138 760 l 1,1,-1
 58 600 l 1,2,-1
 149 600 l 1,3,-1
 300 760 l 1,0,-1
EndSplineSet
EndChar

StartChar: uni0302
Encoding: 770 770 392
Width: 390
GlyphClass: 1
Flags: W
LayerCount: 2
Fore
SplineSet
65 600 m 1,0,-1
 147 600 l 1,1,-1
 250 682 l 1,2,-1
 319 600 l 1,3,-1
 401 600 l 1,4,-1
 343 756 l 1,5,-1
 189 756 l 1,6,-1
 65 600 l 1,0,-1
EndSplineSet
EndChar

StartChar: tildecomb
Encoding: 771 771 393
Width: 494
GlyphClass: 1
Flags: W
LayerCount: 2
Fore
SplineSet
380 607 m 0,0,1
 416 607 416 607 445.5 627 c 128,-1,2
 475 647 475 647 496 672.5 c 128,-1,3
 517 698 517 698 529.5 722 c 128,-1,4
 542 746 542 746 543 754 c 1,5,-1
 453 754 l 1,6,7
 453 753 453 753 449.5 745 c 128,-1,8
 446 737 446 737 439 727.5 c 128,-1,9
 432 718 432 718 421 710.5 c 128,-1,10
 410 703 410 703 394 703 c 256,11,12
 378 703 378 703 366 711 c 128,-1,13
 354 719 354 719 342 728 c 128,-1,14
 330 737 330 737 315 745 c 128,-1,15
 300 753 300 753 277 753 c 0,16,17
 243 753 243 753 214.5 734 c 128,-1,18
 186 715 186 715 165.5 691 c 128,-1,19
 145 667 145 667 133 642 c 128,-1,20
 121 617 121 617 118 606 c 1,21,-1
 209 606 l 1,22,23
 209 607 209 607 211.5 614.5 c 128,-1,24
 214 622 214 622 220 631 c 128,-1,25
 226 640 226 640 236.5 647 c 128,-1,26
 247 654 247 654 263 654 c 256,27,28
 279 654 279 654 291.5 646.5 c 128,-1,29
 304 639 304 639 316 630.5 c 128,-1,30
 328 622 328 622 343 614.5 c 128,-1,31
 358 607 358 607 380 607 c 0,0,1
EndSplineSet
EndChar

StartChar: uni0304
Encoding: 772 772 394
Width: 393
GlyphClass: 1
Flags: W
LayerCount: 2
Fore
SplineSet
417 616 m 1,0,-1
 439 718 l 1,1,-1
 147 718 l 1,2,-1
 125 616 l 1,3,-1
 417 616 l 1,0,-1
EndSplineSet
EndChar

StartChar: uni0306
Encoding: 774 774 395
Width: 392
GlyphClass: 1
Flags: W
LayerCount: 2
Fore
SplineSet
279 652 m 0,0,1
 259 652 259 652 247 668 c 128,-1,2
 235 684 235 684 235 708 c 0,3,4
 235 713 235 713 235.5 718.5 c 128,-1,5
 236 724 236 724 238 730 c 1,6,-1
 149 730 l 1,7,8
 147 720 147 720 146 710.5 c 128,-1,9
 145 701 145 701 145 692 c 0,10,11
 145 640 145 640 176 609 c 128,-1,12
 207 578 207 578 263 578 c 0,13,14
 296 578 296 578 325 589.5 c 128,-1,15
 354 601 354 601 377.5 621 c 128,-1,16
 401 641 401 641 417.5 668.5 c 128,-1,17
 434 696 434 696 441 730 c 1,18,-1
 352 730 l 1,19,20
 342 696 342 696 321 674 c 128,-1,21
 300 652 300 652 279 652 c 0,0,1
EndSplineSet
EndChar

StartChar: uni0307
Encoding: 775 775 396
Width: 252
GlyphClass: 1
Flags: W
LayerCount: 2
Fore
SplineSet
100 663 m 0,0,1
 92 627 92 627 112 601.5 c 128,-1,2
 132 576 132 576 168 576 c 0,3,4
 186 576 186 576 203 583 c 128,-1,5
 220 590 220 590 234.5 601.5 c 128,-1,6
 249 613 249 613 259 629 c 128,-1,7
 269 645 269 645 273 663 c 0,8,9
 280 699 280 699 260 724 c 128,-1,10
 240 749 240 749 205 749 c 0,11,12
 187 749 187 749 169.5 742 c 128,-1,13
 152 735 152 735 138 723.5 c 128,-1,14
 124 712 124 712 114 696.5 c 128,-1,15
 104 681 104 681 100 663 c 0,0,1
EndSplineSet
EndChar

StartChar: uni0308
Encoding: 776 776 397
Width: 526
GlyphClass: 1
Flags: W
LayerCount: 2
Fore
SplineSet
185 569 m 0,0,1
 203 569 203 569 220 576 c 128,-1,2
 237 583 237 583 251.5 594.5 c 128,-1,3
 266 606 266 606 276 622 c 128,-1,4
 286 638 286 638 290 656 c 0,5,6
 297 691 297 691 277.5 716.5 c 128,-1,7
 258 742 258 742 222 742 c 0,8,9
 204 742 204 742 186.5 735 c 128,-1,10
 169 728 169 728 155 716.5 c 128,-1,11
 141 705 141 705 131 689.5 c 128,-1,12
 121 674 121 674 117 656 c 0,13,14
 110 620 110 620 129.5 594.5 c 128,-1,15
 149 569 149 569 185 569 c 0,0,1
426 569 m 0,16,17
 444 569 444 569 461 576 c 128,-1,18
 478 583 478 583 492.5 594.5 c 128,-1,19
 507 606 507 606 517 622 c 128,-1,20
 527 638 527 638 531 656 c 0,21,22
 538 691 538 691 518.5 716.5 c 128,-1,23
 499 742 499 742 463 742 c 0,24,25
 445 742 445 742 427.5 735 c 128,-1,26
 410 728 410 728 396 716.5 c 128,-1,27
 382 705 382 705 372 689.5 c 128,-1,28
 362 674 362 674 358 656 c 0,29,30
 351 620 351 620 370.5 594.5 c 128,-1,31
 390 569 390 569 426 569 c 0,16,17
EndSplineSet
EndChar

StartChar: hookabovecomb
Encoding: 777 777 398
Width: 299
GlyphClass: 1
Flags: W
LayerCount: 2
Fore
SplineSet
178 680 m 1,0,1
 198 693 198 693 210.5 699.5 c 128,-1,2
 223 706 223 706 237 706 c 0,3,4
 250 706 250 706 255 697.5 c 128,-1,5
 260 689 260 689 255 677 c 0,6,7
 250 663 250 663 236.5 651.5 c 128,-1,8
 223 640 223 640 201 628 c 1,9,-1
 226 585 l 1,10,11
 274 614 274 614 300.5 639.5 c 128,-1,12
 327 665 327 665 341 701 c 0,13,14
 354 736 354 736 338.5 758.5 c 128,-1,15
 323 781 323 781 280 781 c 0,16,17
 251 781 251 781 219.5 768.5 c 128,-1,18
 188 756 188 756 148 727 c 1,19,-1
 178 680 l 1,0,1
EndSplineSet
EndChar

StartChar: uni030A
Encoding: 778 778 399
Width: 317
GlyphClass: 1
Flags: W
LayerCount: 2
Fore
SplineSet
131 630 m 0,0,1
 131 597 131 597 155.5 580 c 128,-1,2
 180 563 180 563 223 563 c 0,3,4
 279 563 279 563 314.5 589 c 128,-1,5
 350 615 350 615 350 663 c 0,6,7
 350 696 350 696 326 713 c 128,-1,8
 302 730 302 730 259 730 c 0,9,10
 202 730 202 730 166.5 704.5 c 128,-1,11
 131 679 131 679 131 630 c 0,0,1
248 681 m 0,12,13
 262 681 262 681 271 673 c 128,-1,14
 280 665 280 665 280 653 c 0,15,16
 280 635 280 635 265.5 624 c 128,-1,17
 251 613 251 613 233 613 c 0,18,19
 219 613 219 613 210.5 620.5 c 128,-1,20
 202 628 202 628 202 641 c 0,21,22
 202 659 202 659 215.5 670 c 128,-1,23
 229 681 229 681 248 681 c 0,12,13
EndSplineSet
EndChar

StartChar: uni030B
Encoding: 779 779 400
Width: 387
GlyphClass: 1
Flags: W
LayerCount: 2
Fore
SplineSet
521 760 m 1,0,-1
 360 760 l 1,1,-1
 263 600 l 1,2,-1
 353 600 l 1,3,-1
 521 760 l 1,0,-1
318 760 m 1,4,-1
 156 760 l 1,5,-1
 59 600 l 1,6,-1
 150 600 l 1,7,-1
 318 760 l 1,4,-1
EndSplineSet
EndChar

StartChar: uni030C
Encoding: 780 780 401
Width: 390
GlyphClass: 1
Flags: W
LayerCount: 2
Fore
SplineSet
98 756 m 1,0,-1
 156 600 l 1,1,-1
 310 600 l 1,2,-1
 434 756 l 1,3,-1
 352 756 l 1,4,-1
 249 674 l 1,5,-1
 180 756 l 1,6,-1
 98 756 l 1,0,-1
EndSplineSet
EndChar

StartChar: uni030F
Encoding: 783 783 402
Width: 387
GlyphClass: 1
Flags: W
LayerCount: 2
Fore
SplineSet
236 760 m 1,0,-1
 336 600 l 1,1,-1
 418 600 l 1,2,-1
 389 760 l 1,3,-1
 236 760 l 1,0,-1
35 760 m 1,4,-1
 135 600 l 1,5,-1
 217 600 l 1,6,-1
 188 760 l 1,7,-1
 35 760 l 1,4,-1
EndSplineSet
EndChar

StartChar: uni0311
Encoding: 785 785 403
Width: 391
GlyphClass: 1
Flags: W
LayerCount: 2
Fore
SplineSet
117 578 m 1,0,-1
 205 578 l 1,1,2
 213 622 213 622 233 639.5 c 128,-1,3
 253 657 253 657 279 657 c 0,4,5
 302 657 302 657 312.5 645.5 c 128,-1,6
 323 634 323 634 323 609 c 0,7,8
 323 602 323 602 322.5 594.5 c 128,-1,9
 322 587 322 587 320 578 c 1,10,-1
 409 578 l 1,11,12
 411 587 411 587 411.5 595.5 c 128,-1,13
 412 604 412 604 412 613 c 0,14,15
 412 663 412 663 382 696.5 c 128,-1,16
 352 730 352 730 295 730 c 0,17,18
 263 730 263 730 233.5 718.5 c 128,-1,19
 204 707 204 707 180.5 687 c 128,-1,20
 157 667 157 667 141 639.5 c 128,-1,21
 125 612 125 612 117 578 c 1,0,-1
EndSplineSet
EndChar

StartChar: uni0312
Encoding: 786 786 404
Width: 226
GlyphClass: 1
Flags: W
LayerCount: 2
Fore
SplineSet
57 578 m 1,0,-1
 210 578 l 1,1,-1
 307 745 l 1,2,-1
 225 745 l 1,3,-1
 57 578 l 1,0,-1
EndSplineSet
EndChar

StartChar: uni031B
Encoding: 795 795 405
Width: 329
GlyphClass: 1
Flags: W
LayerCount: 2
Fore
SplineSet
95 475 m 1,0,1
 123 475 123 475 151 479 c 128,-1,2
 179 483 179 483 205 490 c 128,-1,3
 231 497 231 497 252.5 507 c 128,-1,4
 274 517 274 517 289 529 c 0,5,6
 310 545 310 545 323.5 564.5 c 128,-1,7
 337 584 337 584 345.5 604 c 128,-1,8
 354 624 354 624 359 644 c 128,-1,9
 364 664 364 664 368 682 c 1,10,-1
 250 682 l 1,11,12
 245 662 245 662 240.5 644.5 c 128,-1,13
 236 627 236 627 220 613 c 256,14,15
 204 599 204 599 179 594.5 c 128,-1,16
 154 590 154 590 119 590 c 1,17,-1
 95 475 l 1,0,1
EndSplineSet
EndChar

StartChar: dotbelowcomb
Encoding: 803 803 406
Width: 252
GlyphClass: 1
Flags: W
LayerCount: 2
Fore
SplineSet
-56 -139 m 0,0,1
 -64 -175 -64 -175 -44 -200.5 c 128,-1,2
 -24 -226 -24 -226 12 -226 c 0,3,4
 30 -226 30 -226 47 -219 c 128,-1,5
 64 -212 64 -212 78.5 -200.5 c 128,-1,6
 93 -189 93 -189 103 -173.5 c 128,-1,7
 113 -158 113 -158 116 -139 c 0,8,9
 124 -103 124 -103 104 -78 c 128,-1,10
 84 -53 84 -53 48 -53 c 0,11,12
 31 -53 31 -53 13.5 -60 c 128,-1,13
 -4 -67 -4 -67 -18 -78.5 c 128,-1,14
 -32 -90 -32 -90 -42.5 -106 c 128,-1,15
 -53 -122 -53 -122 -56 -139 c 0,0,1
EndSplineSet
EndChar

StartChar: uni0324
Encoding: 804 804 407
Width: 526
GlyphClass: 1
Flags: W
LayerCount: 2
Fore
SplineSet
99 -229 m 0,0,1
 117 -229 117 -229 134 -222 c 128,-1,2
 151 -215 151 -215 165.5 -203.5 c 128,-1,3
 180 -192 180 -192 190 -176.5 c 128,-1,4
 200 -161 200 -161 204 -142 c 0,5,6
 211 -107 211 -107 191.5 -81.5 c 128,-1,7
 172 -56 172 -56 136 -56 c 0,8,9
 118 -56 118 -56 100.5 -63 c 128,-1,10
 83 -70 83 -70 69 -81.5 c 128,-1,11
 55 -93 55 -93 45 -109 c 128,-1,12
 35 -125 35 -125 31 -142 c 0,13,14
 24 -178 24 -178 43.5 -203.5 c 128,-1,15
 63 -229 63 -229 99 -229 c 0,0,1
340 -229 m 0,16,17
 358 -229 358 -229 375 -222 c 128,-1,18
 392 -215 392 -215 406.5 -203.5 c 128,-1,19
 421 -192 421 -192 431 -176.5 c 128,-1,20
 441 -161 441 -161 445 -142 c 0,21,22
 452 -107 452 -107 432.5 -81.5 c 128,-1,23
 413 -56 413 -56 377 -56 c 0,24,25
 359 -56 359 -56 341.5 -63 c 128,-1,26
 324 -70 324 -70 310 -81.5 c 128,-1,27
 296 -93 296 -93 286 -109 c 128,-1,28
 276 -125 276 -125 272 -142 c 0,29,30
 265 -178 265 -178 284.5 -203.5 c 128,-1,31
 304 -229 304 -229 340 -229 c 0,16,17
EndSplineSet
EndChar

StartChar: uni0326
Encoding: 806 806 408
Width: 226
GlyphClass: 1
Flags: W
LayerCount: 2
Fore
SplineSet
-14 -281 m 1,0,-1
 145 -46 l 1,1,-1
 2 -46 l 1,2,-1
 -88 -281 l 1,3,-1
 -14 -281 l 1,0,-1
EndSplineSet
EndChar

StartChar: uni0327
Encoding: 807 807 409
Width: 337
GlyphClass: 1
Flags: W
LayerCount: 2
Fore
SplineSet
-42 -192 m 1,0,1
 -19 -203 -19 -203 7 -207.5 c 128,-1,2
 33 -212 33 -212 59 -212 c 256,3,4
 85 -212 85 -212 114 -206.5 c 128,-1,5
 143 -201 143 -201 167 -188 c 128,-1,6
 191 -175 191 -175 206.5 -153.5 c 128,-1,7
 222 -132 222 -132 222 -100 c 256,8,9
 222 -68 222 -68 199.5 -54 c 128,-1,10
 177 -40 177 -40 148 -40 c 0,11,12
 141 -40 141 -40 134.5 -40 c 128,-1,13
 128 -40 128 -40 121 -42 c 1,14,-1
 166 10 l 1,15,-1
 108 28 l 1,16,-1
 20 -100 l 1,17,18
 39 -95 39 -95 58.5 -92.5 c 128,-1,19
 78 -90 78 -90 98 -90 c 0,20,21
 104 -90 104 -90 112.5 -90.5 c 128,-1,22
 121 -91 121 -91 127.5 -93.5 c 128,-1,23
 134 -96 134 -96 139 -101.5 c 128,-1,24
 144 -107 144 -107 144 -116 c 0,25,26
 144 -128 144 -128 138 -135 c 128,-1,27
 132 -142 132 -142 123 -146 c 128,-1,28
 114 -150 114 -150 103 -151.5 c 128,-1,29
 92 -153 92 -153 83 -153 c 0,30,31
 75 -153 75 -153 63.5 -152 c 128,-1,32
 52 -151 52 -151 40.5 -148.5 c 128,-1,33
 29 -146 29 -146 18.5 -142.5 c 128,-1,34
 8 -139 8 -139 2 -133 c 1,35,36
 -10 -148 -10 -148 -20.5 -162.5 c 128,-1,37
 -31 -177 -31 -177 -42 -192 c 1,0,1
EndSplineSet
EndChar

StartChar: uni0328
Encoding: 808 808 410
Width: 261
GlyphClass: 1
Flags: W
LayerCount: 2
Fore
SplineSet
-31 -125 m 0,0,1
 -31 -155 -31 -155 -4.5 -178.5 c 128,-1,2
 22 -202 22 -202 72 -209 c 1,3,-1
 124 -118 l 1,4,5
 100 -117 100 -117 89.5 -108.5 c 128,-1,6
 79 -100 79 -100 79 -86 c 0,7,8
 79 -68 79 -68 99.5 -46 c 128,-1,9
 120 -24 120 -24 155 1 c 1,10,-1
 152 24 l 1,11,-1
 96 24 l 1,12,13
 34 -9 34 -9 1.5 -49 c 128,-1,14
 -31 -89 -31 -89 -31 -125 c 0,0,1
EndSplineSet
EndChar

StartChar: uni032E
Encoding: 814 814 411
Width: 329
GlyphClass: 1
Flags: W
LayerCount: 2
Fore
SplineSet
62 -204 m 0,0,1
 92 -204 92 -204 119.5 -192.5 c 128,-1,2
 147 -181 147 -181 170 -161 c 128,-1,3
 193 -141 193 -141 209.5 -113 c 128,-1,4
 226 -85 226 -85 234 -52 c 1,5,-1
 148 -52 l 1,6,7
 137 -86 137 -86 118 -108 c 128,-1,8
 99 -130 99 -130 79 -130 c 0,9,10
 58 -130 58 -130 48.5 -107 c 128,-1,11
 39 -84 39 -84 47 -52 c 1,12,-1
 -39 -52 l 1,13,14
 -55 -119 -55 -119 -27 -161.5 c 128,-1,15
 1 -204 1 -204 62 -204 c 0,0,1
EndSplineSet
EndChar

StartChar: uni0331
Encoding: 817 817 412
Width: 381
GlyphClass: 1
Flags: W
LayerCount: 2
Fore
SplineSet
235 -178 m 1,0,-1
 259 -76 l 1,1,-1
 -20 -76 l 1,2,-1
 -44 -178 l 1,3,-1
 235 -178 l 1,0,-1
EndSplineSet
EndChar

StartChar: uni0335
Encoding: 821 821 413
Width: 398
GlyphClass: 1
Flags: W
LayerCount: 2
Fore
SplineSet
340 236 m 1,0,-1
 363 334 l 1,1,-1
 67 334 l 1,2,-1
 44 236 l 1,3,-1
 340 236 l 1,0,-1
EndSplineSet
EndChar

StartChar: tonos
Encoding: 900 900 415
Width: 225
GlyphClass: 1
Flags: W
LayerCount: 2
Fore
SplineSet
196 834 m 1,0,-1
 114 581 l 1,1,-1
 197 568 l 1,2,-1
 310 809 l 1,3,-1
 196 834 l 1,0,-1
EndSplineSet
EndChar

StartChar: dieresistonos
Encoding: 901 901 416
Width: 583
GlyphClass: 1
Flags: W
LayerCount: 2
Fore
SplineSet
131 672 m 0,0,1
 120 630 120 630 141.5 600.5 c 128,-1,2
 163 571 163 571 202 571 c 0,3,4
 238 571 238 571 263.5 591.5 c 128,-1,5
 289 612 289 612 296 643 c 0,6,7
 307 687 307 687 286.5 715.5 c 128,-1,8
 266 744 266 744 225 744 c 0,9,10
 191 744 191 744 164.5 724.5 c 128,-1,11
 138 705 138 705 131 672 c 0,0,1
466 672 m 0,12,13
 457 630 457 630 478 600.5 c 128,-1,14
 499 571 499 571 539 571 c 0,15,16
 573 571 573 571 599.5 591.5 c 128,-1,17
 626 612 626 612 633 643 c 0,18,19
 643 687 643 687 622 715.5 c 128,-1,20
 601 744 601 744 562 744 c 0,21,22
 528 744 528 744 501 724.5 c 128,-1,23
 474 705 474 705 466 672 c 0,12,13
390 838 m 1,24,-1
 308 585 l 1,25,-1
 391 572 l 1,26,-1
 504 813 l 1,27,-1
 390 838 l 1,24,-1
EndSplineSet
EndChar

StartChar: Gamma
Encoding: 915 915 428
Width: 498
GlyphClass: 1
Flags: W
LayerCount: 2
Fore
SplineSet
136 714 m 1,0,-1
 620 714 l 1,1,-1
 580 563 l 1,2,-1
 268 563 l 1,3,-1
 121 10 l 1,4,-1
 -52 10 l 1,5,-1
 136 714 l 1,0,-1
EndSplineSet
EndChar

StartChar: uni0394
Encoding: 916 916 429
Width: 673
GlyphClass: 1
Flags: W
LayerCount: 2
Fore
SplineSet
-54 0 m 1,0,-1
 608 0 l 1,1,-1
 611 23 l 1,2,-1
 542 714 l 1,3,-1
 333 714 l 1,4,-1
 -50 23 l 1,5,-1
 -54 0 l 1,0,-1
167 134 m 1,6,-1
 297 362 l 1,7,-1
 410 583 l 1,8,-1
 413 583 l 1,9,-1
 427 362 l 1,10,-1
 446 134 l 1,11,-1
 167 134 l 1,6,-1
EndSplineSet
EndChar

StartChar: Eta
Encoding: 919 919 432
Width: 722
GlyphClass: 1
Flags: W
LayerCount: 2
Fore
SplineSet
-51 0 m 1,0,-1
 121 0 l 1,1,-1
 182 285 l 1,2,-1
 422 285 l 1,3,-1
 362 0 l 1,4,-1
 535 0 l 1,5,-1
 685 704 l 1,6,-1
 512 704 l 1,7,-1
 455 435 l 1,8,-1
 214 435 l 1,9,-1
 271 704 l 1,10,-1
 99 704 l 1,11,-1
 -51 0 l 1,0,-1
EndSplineSet
EndChar

StartChar: Theta
Encoding: 920 920 433
Width: 735
GlyphClass: 1
Flags: W
LayerCount: 2
Fore
SplineSet
242 285 m 1,0,-1
 476 285 l 1,1,-1
 508 433 l 1,2,-1
 275 433 l 1,3,-1
 242 285 l 1,0,-1
299 -6 m 0,4,5
 383 -6 383 -6 459.5 29.5 c 128,-1,6
 536 65 536 65 594 124 c 128,-1,7
 652 183 652 183 686 258.5 c 128,-1,8
 720 334 720 334 720 414 c 0,9,10
 720 471 720 471 703 523.5 c 128,-1,11
 686 576 686 576 652 617.5 c 128,-1,12
 618 659 618 659 568.5 683.5 c 128,-1,13
 519 708 519 708 454 708 c 0,14,15
 371 708 371 708 294 672.5 c 128,-1,16
 217 637 217 637 158.5 578.5 c 128,-1,17
 100 520 100 520 65.5 444 c 128,-1,18
 31 368 31 368 31 289 c 0,19,20
 31 231 31 231 49 178 c 128,-1,21
 67 125 67 125 100.5 84 c 128,-1,22
 134 43 134 43 184.5 18.5 c 128,-1,23
 235 -6 235 -6 299 -6 c 0,4,5
332 148 m 0,24,25
 300 148 300 148 276 160.5 c 128,-1,26
 252 173 252 173 237.5 194.5 c 128,-1,27
 223 216 223 216 215.5 244 c 128,-1,28
 208 272 208 272 208 302 c 0,29,30
 208 345 208 345 222 389.5 c 128,-1,31
 236 434 236 434 263 471 c 128,-1,32
 290 508 290 508 329.5 531 c 128,-1,33
 369 554 369 554 418 554 c 0,34,35
 451 554 451 554 474.5 542 c 128,-1,36
 498 530 498 530 513.5 509 c 128,-1,37
 529 488 529 488 536.5 460 c 128,-1,38
 544 432 544 432 544 402 c 0,39,40
 544 359 544 359 529.5 314.5 c 128,-1,41
 515 270 515 270 488 232.5 c 128,-1,42
 461 195 461 195 422 171.5 c 128,-1,43
 383 148 383 148 332 148 c 0,24,25
EndSplineSet
EndChar

StartChar: Lambda
Encoding: 923 923 436
Width: 697
GlyphClass: 1
Flags: W
LayerCount: 2
Fore
SplineSet
-53 0 m 1,0,-1
 114 0 l 1,1,-1
 311 362 l 1,2,-1
 420 567 l 1,3,-1
 424 567 l 1,4,-1
 440 361 l 1,5,-1
 470 0 l 1,6,-1
 631 0 l 1,7,-1
 557 714 l 1,8,-1
 347 714 l 1,9,-1
 -53 0 l 1,0,-1
EndSplineSet
EndChar

StartChar: Xi
Encoding: 926 926 439
Width: 665
GlyphClass: 1
Flags: W
LayerCount: 2
Fore
SplineSet
2 0 m 1,0,-1
 544 0 l 1,1,-1
 575 134 l 1,2,-1
 33 134 l 1,3,-1
 2 0 l 1,0,-1
142 288 m 1,4,-1
 535 288 l 1,5,-1
 566 421 l 1,6,-1
 173 421 l 1,7,-1
 142 288 l 1,4,-1
134 577 m 1,8,-1
 676 577 l 1,9,-1
 706 711 l 1,10,-1
 163 711 l 1,11,-1
 134 577 l 1,8,-1
EndSplineSet
EndChar

StartChar: Pi
Encoding: 928 928 441
Width: 679
GlyphClass: 1
Flags: W
LayerCount: 2
Fore
SplineSet
11 0 m 1,0,-1
 170 0 l 1,1,-1
 302 577 l 1,2,-1
 523 577 l 1,3,-1
 391 0 l 1,4,-1
 549 0 l 1,5,-1
 711 711 l 1,6,-1
 172 711 l 1,7,-1
 11 0 l 1,0,-1
EndSplineSet
EndChar

StartChar: Sigma
Encoding: 931 931 443
Width: 580
GlyphClass: 1
Flags: W
LayerCount: 2
Fore
SplineSet
-10 0 m 1,0,-1
 474 0 l 1,1,-1
 505 134 l 1,2,-1
 240 134 l 1,3,-1
 462 363 l 1,4,-1
 340 577 l 1,5,-1
 588 577 l 1,6,-1
 617 711 l 1,7,-1
 154 711 l 1,8,-1
 134 614 l 1,9,-1
 292 360 l 1,10,-1
 10 96 l 1,11,-1
 -10 0 l 1,0,-1
EndSplineSet
EndChar

StartChar: Upsilon
Encoding: 933 933 445
Width: 651
GlyphClass: 1
Flags: W
LayerCount: 2
Fore
SplineSet
185 0 m 1,0,-1
 346 0 l 1,1,-1
 397 221 l 2,2,3
 412 290 412 290 447.5 348 c 128,-1,4
 483 406 483 406 528 456 c 128,-1,5
 573 506 573 506 622.5 549 c 128,-1,6
 672 592 672 592 717 630 c 1,7,-1
 613 726 l 1,8,9
 563 686 563 686 525 652.5 c 128,-1,10
 487 619 487 619 458 587.5 c 128,-1,11
 429 556 429 556 407.5 525 c 128,-1,12
 386 494 386 494 370 458 c 2,13,-1
 363 444 l 1,14,15
 362 479 362 479 355.5 511 c 128,-1,16
 349 543 349 543 334.5 575.5 c 128,-1,17
 320 608 320 608 297 642 c 128,-1,18
 274 676 274 676 241 715 c 1,19,-1
 109 641 l 1,20,21
 136 602 136 602 166 560.5 c 128,-1,22
 196 519 196 519 218 470 c 128,-1,23
 240 421 240 421 248 363.5 c 128,-1,24
 256 306 256 306 240 236 c 2,25,-1
 185 0 l 1,0,-1
EndSplineSet
EndChar

StartChar: Phi
Encoding: 934 934 446
Width: 774
GlyphClass: 1
Flags: W
LayerCount: 2
Fore
SplineSet
342 200 m 1,0,1
 305 200 305 200 277 210.5 c 128,-1,2
 249 221 249 221 231.5 239.5 c 128,-1,3
 214 258 214 258 208 284 c 128,-1,4
 202 310 202 310 209 343 c 0,5,6
 218 381 218 381 238.5 412.5 c 128,-1,7
 259 444 259 444 287 467 c 128,-1,8
 315 490 315 490 349.5 502.5 c 128,-1,9
 384 515 384 515 421 515 c 1,10,-1
 443 646 l 1,11,12
 372 646 372 646 309.5 626 c 128,-1,13
 247 606 247 606 198 570 c 128,-1,14
 149 534 149 534 115.5 483.5 c 128,-1,15
 82 433 82 433 68 372 c 0,16,17
 53 304 53 304 63.5 248.5 c 128,-1,18
 74 193 74 193 107.5 153 c 128,-1,19
 141 113 141 113 195 91 c 128,-1,20
 249 69 249 69 320 69 c 1,21,-1
 342 200 l 1,0,1
395 -33 m 1,22,-1
 571 744 l 1,23,-1
 422 744 l 1,24,-1
 246 -33 l 1,25,-1
 395 -33 l 1,22,-1
380 69 m 1,26,27
 451 69 451 69 512.5 88.5 c 128,-1,28
 574 108 574 108 622.5 144 c 128,-1,29
 671 180 671 180 704 230.5 c 128,-1,30
 737 281 737 281 751 343 c 0,31,32
 766 411 766 411 756 466.5 c 128,-1,33
 746 522 746 522 713.5 562 c 128,-1,34
 681 602 681 602 627.5 624 c 128,-1,35
 574 646 574 646 503 646 c 1,36,-1
 481 515 l 1,37,38
 518 515 518 515 545 505 c 128,-1,39
 572 495 572 495 589 476.5 c 128,-1,40
 606 458 606 458 611.5 431 c 128,-1,41
 617 404 617 404 610 372 c 0,42,43
 601 334 601 334 581.5 303 c 128,-1,44
 562 272 562 272 534.5 248.5 c 128,-1,45
 507 225 507 225 472.5 212.5 c 128,-1,46
 438 200 438 200 401 200 c 1,47,-1
 380 69 l 1,26,27
EndSplineSet
EndChar

StartChar: Psi
Encoding: 936 936 448
Width: 821
GlyphClass: 1
Flags: W
LayerCount: 2
Fore
SplineSet
277 0 m 1,0,-1
 425 0 l 1,1,-1
 588 714 l 1,2,-1
 439 714 l 1,3,-1
 277 0 l 1,0,-1
119 453 m 2,4,5
 106 398 106 398 110.5 347.5 c 128,-1,6
 115 297 115 297 141.5 259 c 128,-1,7
 168 221 168 221 219 198 c 128,-1,8
 270 175 270 175 351 174 c 1,9,-1
 363 299 l 1,10,11
 322 299 322 299 298.5 309 c 128,-1,12
 275 319 275 319 265 335.5 c 128,-1,13
 255 352 255 352 255.5 374 c 128,-1,14
 256 396 256 396 260 419 c 0,15,16
 265 438 265 438 269.5 457.5 c 128,-1,17
 274 477 274 477 279 495.5 c 128,-1,18
 284 514 284 514 288 531.5 c 128,-1,19
 292 549 292 549 295 564 c 0,20,21
 306 607 306 607 312.5 646 c 128,-1,22
 319 685 319 685 314 707 c 1,23,-1
 168 721 l 1,24,25
 168 697 168 697 165 672.5 c 128,-1,26
 162 648 162 648 158 626 c 128,-1,27
 154 604 154 604 149.5 584.5 c 128,-1,28
 145 565 145 565 141 550 c 2,29,-1
 119 453 l 2,4,5
806 536 m 2,30,31
 810 554 810 554 815 573.5 c 128,-1,32
 820 593 820 593 826.5 614.5 c 128,-1,33
 833 636 833 636 841 659 c 128,-1,34
 849 682 849 682 860 707 c 1,35,-1
 708 721 l 1,36,37
 701 711 701 711 695 695.5 c 128,-1,38
 689 680 689 680 684 662.5 c 128,-1,39
 679 645 679 645 675.5 627 c 128,-1,40
 672 609 672 609 669 593 c 0,41,42
 664 573 664 573 660 552.5 c 128,-1,43
 656 532 656 532 652 513 c 128,-1,44
 648 494 648 494 645 478 c 128,-1,45
 642 462 642 462 639 448 c 0,46,47
 632 420 632 420 619.5 393.5 c 128,-1,48
 607 367 607 367 586.5 345.5 c 128,-1,49
 566 324 566 324 537 311.5 c 128,-1,50
 508 299 508 299 467 299 c 1,51,-1
 438 174 l 1,52,53
 520 175 520 175 579.5 196 c 128,-1,54
 639 217 639 217 680 252.5 c 128,-1,55
 721 288 721 288 746 336 c 128,-1,56
 771 384 771 384 782 438 c 2,57,-1
 806 536 l 2,30,31
EndSplineSet
EndChar

StartChar: uni03A9
Encoding: 937 937 449
Width: 723
GlyphClass: 1
Flags: W
LayerCount: 2
Fore
SplineSet
-31 0 m 1,0,-1
 264 0 l 1,1,-1
 315 240 l 1,2,3
 290 248 290 248 273 263.5 c 128,-1,4
 256 279 256 279 246 301 c 128,-1,5
 236 323 236 323 233.5 349 c 128,-1,6
 231 375 231 375 238 404 c 0,7,8
 246 440 246 440 264.5 471 c 128,-1,9
 283 502 283 502 309 525 c 128,-1,10
 335 548 335 548 367.5 561 c 128,-1,11
 400 574 400 574 435 574 c 0,12,13
 468 574 468 574 493.5 563 c 128,-1,14
 519 552 519 552 535 532.5 c 128,-1,15
 551 513 551 513 557 486.5 c 128,-1,16
 563 460 563 460 556 428 c 0,17,18
 551 399 551 399 535 367 c 128,-1,19
 519 335 519 335 496.5 308 c 128,-1,20
 474 281 474 281 447 261.5 c 128,-1,21
 420 242 420 242 394 237 c 1,22,-1
 339 0 l 1,23,-1
 635 0 l 1,24,-1
 666 135 l 1,25,-1
 413 135 l 1,26,-1
 469 85 l 1,27,-1
 494 207 l 1,28,-1
 435 131 l 1,29,30
 484 140 484 140 530 166 c 128,-1,31
 576 192 576 192 613 229 c 128,-1,32
 650 266 650 266 676.5 312.5 c 128,-1,33
 703 359 703 359 714 410 c 0,34,35
 729 473 729 473 717 529.5 c 128,-1,36
 705 586 705 586 670 629 c 128,-1,37
 635 672 635 672 580 697 c 128,-1,38
 525 722 525 722 453 722 c 0,39,40
 386 722 386 722 325 700 c 128,-1,41
 264 678 264 678 215 639 c 128,-1,42
 166 600 166 600 131.5 547 c 128,-1,43
 97 494 97 494 83 432 c 0,44,45
 71 382 71 382 76 335 c 128,-1,46
 81 288 81 288 99.5 249 c 128,-1,47
 118 210 118 210 150.5 180 c 128,-1,48
 183 150 183 150 228 133 c 1,49,-1
 205 207 l 1,50,-1
 180 85 l 1,51,-1
 256 135 l 1,52,-1
 1 135 l 1,53,-1
 -31 0 l 1,0,-1
EndSplineSet
EndChar

StartChar: Iotadieresis
Encoding: 938 938 450
Width: 365
GlyphClass: 1
Flags: W
LayerCount: 2
Fore
SplineSet
2 0 m 1,0,-1
 174 0 l 1,1,-1
 324 704 l 1,2,-1
 152 704 l 1,3,-1
 2 0 l 1,0,-1
278 833 m 0,4,5
 270 798 270 798 282 773 c 128,-1,6
 294 748 294 748 318 748 c 0,7,8
 343 748 343 748 365.5 773 c 128,-1,9
 388 798 388 798 396 833 c 0,10,11
 404 869 404 869 392 894 c 128,-1,12
 380 919 380 919 355 919 c 0,13,14
 331 919 331 919 308 894 c 128,-1,15
 285 869 285 869 278 833 c 0,4,5
128 833 m 0,16,17
 121 798 121 798 132.5 773 c 128,-1,18
 144 748 144 748 169 748 c 256,19,20
 194 748 194 748 216.5 773 c 128,-1,21
 239 798 239 798 247 833 c 0,22,23
 254 869 254 869 242 894 c 128,-1,24
 230 919 230 919 205 919 c 0,25,26
 181 919 181 919 158 894 c 128,-1,27
 135 869 135 869 128 833 c 0,16,17
EndSplineSet
EndChar

StartChar: alphatonos
Encoding: 940 940 452
Width: 657
GlyphClass: 1
Flags: W
LayerCount: 2
Fore
SplineSet
383 254 m 2,0,1
 373 235 373 235 359.5 213.5 c 128,-1,2
 346 192 346 192 328.5 173.5 c 128,-1,3
 311 155 311 155 288.5 142.5 c 128,-1,4
 266 130 266 130 238 130 c 0,5,6
 216 130 216 130 199.5 138 c 128,-1,7
 183 146 183 146 173 161 c 128,-1,8
 163 176 163 176 160.5 198 c 128,-1,9
 158 220 158 220 163 247 c 0,10,11
 172 280 172 280 187.5 307 c 128,-1,12
 203 334 203 334 223 353 c 128,-1,13
 243 372 243 372 265.5 383 c 128,-1,14
 288 394 288 394 309 394 c 0,15,16
 323 394 323 394 335 389 c 128,-1,17
 347 384 347 384 357 375.5 c 128,-1,18
 367 367 367 367 374 354 c 128,-1,19
 381 341 381 341 384.5 323.5 c 128,-1,20
 388 306 388 306 389.5 284 c 128,-1,21
 391 262 391 262 389 237 c 1,22,-1
 467 323 l 1,23,24
 469 376 469 376 456.5 415.5 c 128,-1,25
 444 455 444 455 421.5 481.5 c 128,-1,26
 399 508 399 508 368.5 520.5 c 128,-1,27
 338 533 338 533 305 533 c 0,28,29
 260 533 260 533 217.5 513 c 128,-1,30
 175 493 175 493 139 458 c 128,-1,31
 103 423 103 423 76 375 c 128,-1,32
 49 327 49 327 36 270 c 0,33,34
 23 210 23 210 29.5 159.5 c 128,-1,35
 36 109 36 109 58.5 71.5 c 128,-1,36
 81 34 81 34 119 13 c 128,-1,37
 157 -8 157 -8 207 -8 c 0,38,39
 249 -8 249 -8 288 6 c 128,-1,40
 327 20 327 20 361.5 44.5 c 128,-1,41
 396 69 396 69 426 103 c 128,-1,42
 456 137 456 137 478 176 c 2,43,-1
 672 525 l 1,44,-1
 536 525 l 1,45,-1
 383 254 l 2,0,1
595 118 m 1,46,-1
 571 123 l 2,47,48
 563 128 563 128 552.5 134 c 128,-1,49
 542 140 542 140 531 151 c 128,-1,50
 520 162 520 162 510 179.5 c 128,-1,51
 500 197 500 197 492 225 c 1,52,-1
 401 137 l 1,53,54
 398 104 398 104 403 80 c 128,-1,55
 408 56 408 56 419 39.5 c 128,-1,56
 430 23 430 23 445.5 12.5 c 128,-1,57
 461 2 461 2 478 -5 c 2,58,-1
 491 -8 l 1,59,-1
 595 118 l 1,46,-1
400 833 m 1,60,-1
 319 580 l 1,61,-1
 401 567 l 1,62,-1
 514 807 l 1,63,-1
 400 833 l 1,60,-1
EndSplineSet
EndChar

StartChar: epsilontonos
Encoding: 941 941 453
Width: 515
GlyphClass: 1
Flags: W
LayerCount: 2
Fore
SplineSet
414 155 m 1,0,1
 380 147 380 147 337 137 c 128,-1,2
 294 127 294 127 251 127 c 0,3,4
 205 127 205 127 181.5 136 c 128,-1,5
 158 145 158 145 160 160 c 0,6,7
 164 173 164 173 175 182.5 c 128,-1,8
 186 192 186 192 202.5 198.5 c 128,-1,9
 219 205 219 205 238.5 208.5 c 128,-1,10
 258 212 258 212 278 212 c 2,11,-1
 318 212 l 1,12,-1
 341 314 l 1,13,-1
 300 314 l 2,14,15
 281 315 281 315 265.5 317.5 c 128,-1,16
 250 320 250 320 239 323.5 c 128,-1,17
 228 327 228 327 222 332 c 128,-1,18
 216 337 216 337 217 343 c 0,19,20
 220 353 220 353 229 361.5 c 128,-1,21
 238 370 238 370 253.5 377.5 c 128,-1,22
 269 385 269 385 290 389 c 128,-1,23
 311 393 311 393 339 393 c 0,24,25
 356 393 356 393 373 391.5 c 128,-1,26
 390 390 390 390 405 387.5 c 128,-1,27
 420 385 420 385 433.5 381.5 c 128,-1,28
 447 378 447 378 457 373 c 1,29,-1
 521 503 l 1,30,31
 484 522 484 522 442.5 529 c 128,-1,32
 401 536 401 536 362 533 c 0,33,34
 305 534 305 534 259 525 c 128,-1,35
 213 516 213 516 179 497.5 c 128,-1,36
 145 479 145 479 123.5 453 c 128,-1,37
 102 427 102 427 95 395 c 0,38,39
 90 374 90 374 91.5 354 c 128,-1,40
 93 334 93 334 100 317.5 c 128,-1,41
 107 301 107 301 118.5 289.5 c 128,-1,42
 130 278 130 278 146 274 c 1,43,-1
 139 275 l 1,44,45
 117 269 117 269 97.5 257.5 c 128,-1,46
 78 246 78 246 62 230 c 128,-1,47
 46 214 46 214 36 196 c 128,-1,48
 26 178 26 178 22 159 c 0,49,50
 13 122 13 122 25 90 c 128,-1,51
 37 58 37 58 66.5 35.5 c 128,-1,52
 96 13 96 13 139.5 0 c 128,-1,53
 183 -13 183 -13 236 -13 c 0,54,55
 259 -13 259 -13 284 -11 c 128,-1,56
 309 -9 309 -9 334.5 -6 c 128,-1,57
 360 -3 360 -3 383 1.5 c 128,-1,58
 406 6 406 6 425 12 c 1,59,-1
 414 155 l 1,0,1
407 880 m 1,60,-1
 325 627 l 1,61,-1
 408 614 l 1,62,-1
 520 854 l 1,63,-1
 407 880 l 1,60,-1
EndSplineSet
EndChar

StartChar: etatonos
Encoding: 942 942 454
Width: 638
GlyphClass: 1
Flags: W
LayerCount: 2
Fore
SplineSet
153 -7 m 1,0,1
 185 89 185 89 210 166.5 c 128,-1,2
 235 244 235 244 251 319 c 0,3,4
 261 362 261 362 261 396.5 c 128,-1,5
 261 431 261 431 251 457 c 128,-1,6
 241 483 241 483 221 501.5 c 128,-1,7
 201 520 201 520 171 531 c 1,8,-1
 75 409 l 1,9,10
 89 401 89 401 97 389.5 c 128,-1,11
 105 378 105 378 106.5 361.5 c 128,-1,12
 108 345 108 345 104.5 322 c 128,-1,13
 101 299 101 299 95 271 c 0,14,15
 82 208 82 208 59 141 c 128,-1,16
 36 74 36 74 13 7 c 1,17,-1
 153 -7 l 1,0,1
421 -212 m 1,18,19
 442 -161 442 -161 464.5 -98.5 c 128,-1,20
 487 -36 487 -36 507.5 27 c 128,-1,21
 528 90 528 90 545 149 c 128,-1,22
 562 208 562 208 572 252 c 0,23,24
 605 399 605 399 580 466 c 128,-1,25
 555 533 555 533 467 533 c 0,26,27
 438 533 438 533 408.5 523.5 c 128,-1,28
 379 514 379 514 350 495.5 c 128,-1,29
 321 477 321 477 294.5 449 c 128,-1,30
 268 421 268 421 244 385 c 1,31,-1
 229 238 l 1,32,33
 240 265 240 265 258.5 290.5 c 128,-1,34
 277 316 277 316 299 336.5 c 128,-1,35
 321 357 321 357 345 369.5 c 128,-1,36
 369 382 369 382 390 382 c 0,37,38
 428 382 428 382 436.5 350.5 c 128,-1,39
 445 319 445 319 426 236 c 0,40,41
 417 200 417 200 405 157 c 128,-1,42
 393 114 393 114 374.5 61.5 c 128,-1,43
 356 9 356 9 332 -53.5 c 128,-1,44
 308 -116 308 -116 278 -192 c 1,45,-1
 421 -212 l 1,18,19
458 833 m 1,46,-1
 377 580 l 1,47,-1
 459 567 l 1,48,-1
 572 807 l 1,49,-1
 458 833 l 1,46,-1
EndSplineSet
EndChar

StartChar: iotatonos
Encoding: 943 943 455
Width: 342
GlyphClass: 1
Flags: W
LayerCount: 2
Fore
SplineSet
151 -8 m 0,0,1
 177 -8 177 -8 204 -5 c 128,-1,2
 231 -2 231 -2 252 7 c 1,3,-1
 254 154 l 1,4,5
 246 150 246 150 231 143.5 c 128,-1,6
 216 137 216 137 203 137 c 0,7,8
 197 137 197 137 193 139 c 128,-1,9
 189 141 189 141 187.5 147 c 128,-1,10
 186 153 186 153 188 165 c 128,-1,11
 190 177 190 177 194 199 c 0,12,13
 200 225 200 225 210.5 264.5 c 128,-1,14
 221 304 221 304 233.5 348.5 c 128,-1,15
 246 393 246 393 258 438 c 128,-1,16
 270 483 270 483 280 518 c 1,17,-1
 129 533 l 1,18,19
 116 480 116 480 104.5 434 c 128,-1,20
 93 388 93 388 83 345.5 c 128,-1,21
 73 303 73 303 64.5 262 c 128,-1,22
 56 221 56 221 46 180 c 0,23,24
 36 134 36 134 38 98.5 c 128,-1,25
 40 63 40 63 53 39.5 c 128,-1,26
 66 16 66 16 91 4 c 128,-1,27
 116 -8 116 -8 151 -8 c 0,0,1
258 851 m 1,28,-1
 177 598 l 1,29,-1
 259 585 l 1,30,-1
 372 825 l 1,31,-1
 258 851 l 1,28,-1
EndSplineSet
EndChar

StartChar: upsilondieresistonos
Encoding: 944 944 456
Width: 599
GlyphClass: 1
Flags: W
LayerCount: 2
Fore
SplineSet
56 204 m 0,0,1
 44 154 44 154 52 114.5 c 128,-1,2
 60 75 60 75 84.5 48 c 128,-1,3
 109 21 109 21 149 6.5 c 128,-1,4
 189 -8 189 -8 241 -8 c 0,5,6
 302 -8 302 -8 352 10 c 128,-1,7
 402 28 402 28 441 64 c 128,-1,8
 480 100 480 100 508 152.5 c 128,-1,9
 536 205 536 205 551 274 c 0,10,11
 559 307 559 307 566.5 341 c 128,-1,12
 574 375 574 375 580 408 c 128,-1,13
 586 441 586 441 590 469.5 c 128,-1,14
 594 498 594 498 594 518 c 1,15,-1
 448 533 l 1,16,17
 445 497 445 497 440.5 464.5 c 128,-1,18
 436 432 436 432 431 403 c 128,-1,19
 426 374 426 374 420.5 349.5 c 128,-1,20
 415 325 415 325 409 305 c 0,21,22
 390 213 390 213 351.5 173.5 c 128,-1,23
 313 134 313 134 256 134 c 0,24,25
 238 134 238 134 226 137 c 128,-1,26
 214 140 214 140 206.5 147 c 128,-1,27
 199 154 199 154 197 166.5 c 128,-1,28
 195 179 195 179 200 199 c 0,29,30
 203 211 203 211 206.5 223.5 c 128,-1,31
 210 236 210 236 214.5 251.5 c 128,-1,32
 219 267 219 267 223.5 286 c 128,-1,33
 228 305 228 305 233 327 c 0,34,35
 243 369 243 369 248 398 c 128,-1,36
 253 427 253 427 254.5 448.5 c 128,-1,37
 256 470 256 470 255.5 486 c 128,-1,38
 255 502 255 502 254 518 c 1,39,-1
 113 533 l 1,40,41
 114 510 114 510 114 470 c 128,-1,42
 114 430 114 430 99 361 c 0,43,44
 93 335 93 335 86.5 311 c 128,-1,45
 80 287 80 287 74 266 c 128,-1,46
 68 245 68 245 63.5 229.5 c 128,-1,47
 59 214 59 214 56 204 c 0,0,1
123 670 m 0,48,49
 114 628 114 628 134.5 599 c 128,-1,50
 155 570 155 570 195 570 c 0,51,52
 230 570 230 570 255.5 590 c 128,-1,53
 281 610 281 610 289 642 c 0,54,55
 298 685 298 685 278.5 713.5 c 128,-1,56
 259 742 259 742 218 742 c 0,57,58
 183 742 183 742 157 723 c 128,-1,59
 131 704 131 704 123 670 c 0,48,49
457 670 m 0,60,61
 449 628 449 628 470 599 c 128,-1,62
 491 570 491 570 531 570 c 0,63,64
 565 570 565 570 591.5 590 c 128,-1,65
 618 610 618 610 624 642 c 0,66,67
 634 685 634 685 613.5 713.5 c 128,-1,68
 593 742 593 742 554 742 c 0,69,70
 520 742 520 742 493 723 c 128,-1,71
 466 704 466 704 457 670 c 0,60,61
382 837 m 1,72,-1
 300 584 l 1,73,-1
 383 571 l 1,74,-1
 496 812 l 1,75,-1
 382 837 l 1,72,-1
EndSplineSet
EndChar

StartChar: alpha
Encoding: 945 945 457
Width: 651
GlyphClass: 1
Flags: W
LayerCount: 2
Fore
SplineSet
383 254 m 2,0,1
 373 235 373 235 359.5 213.5 c 128,-1,2
 346 192 346 192 328.5 173.5 c 128,-1,3
 311 155 311 155 288.5 142.5 c 128,-1,4
 266 130 266 130 238 130 c 0,5,6
 216 130 216 130 199.5 138 c 128,-1,7
 183 146 183 146 173 161 c 128,-1,8
 163 176 163 176 160.5 198 c 128,-1,9
 158 220 158 220 163 247 c 0,10,11
 172 280 172 280 187.5 307 c 128,-1,12
 203 334 203 334 223 353 c 128,-1,13
 243 372 243 372 265.5 383 c 128,-1,14
 288 394 288 394 309 394 c 0,15,16
 323 394 323 394 335 389 c 128,-1,17
 347 384 347 384 357 375.5 c 128,-1,18
 367 367 367 367 374 354 c 128,-1,19
 381 341 381 341 384.5 323.5 c 128,-1,20
 388 306 388 306 389.5 284 c 128,-1,21
 391 262 391 262 389 237 c 1,22,-1
 467 323 l 1,23,24
 469 376 469 376 456.5 415.5 c 128,-1,25
 444 455 444 455 421.5 481.5 c 128,-1,26
 399 508 399 508 368.5 520.5 c 128,-1,27
 338 533 338 533 305 533 c 0,28,29
 260 533 260 533 217.5 513 c 128,-1,30
 175 493 175 493 139 458 c 128,-1,31
 103 423 103 423 76 375 c 128,-1,32
 49 327 49 327 36 270 c 0,33,34
 23 210 23 210 29.5 159.5 c 128,-1,35
 36 109 36 109 58.5 71.5 c 128,-1,36
 81 34 81 34 119 13 c 128,-1,37
 157 -8 157 -8 207 -8 c 0,38,39
 249 -8 249 -8 288 6 c 128,-1,40
 327 20 327 20 361.5 44.5 c 128,-1,41
 396 69 396 69 426 103 c 128,-1,42
 456 137 456 137 478 176 c 2,43,-1
 672 525 l 1,44,-1
 536 525 l 1,45,-1
 383 254 l 2,0,1
595 118 m 1,46,-1
 571 123 l 2,47,48
 563 128 563 128 552.5 134 c 128,-1,49
 542 140 542 140 531 151 c 128,-1,50
 520 162 520 162 510 179.5 c 128,-1,51
 500 197 500 197 492 225 c 1,52,-1
 401 137 l 1,53,54
 398 104 398 104 403 80 c 128,-1,55
 408 56 408 56 419 39.5 c 128,-1,56
 430 23 430 23 445.5 12.5 c 128,-1,57
 461 2 461 2 478 -5 c 2,58,-1
 491 -8 l 1,59,-1
 595 118 l 1,46,-1
EndSplineSet
EndChar

StartChar: beta
Encoding: 946 946 458
Width: 689
GlyphClass: 1
Flags: W
LayerCount: 2
Fore
SplineSet
152 35 m 1,0,1
 166 26 166 26 186 17.5 c 128,-1,2
 206 9 206 9 229 3.5 c 128,-1,3
 252 -2 252 -2 277.5 -5 c 128,-1,4
 303 -8 303 -8 328 -8 c 0,5,6
 383 -8 383 -8 432.5 9.5 c 128,-1,7
 482 27 482 27 521.5 56.5 c 128,-1,8
 561 86 561 86 587.5 125 c 128,-1,9
 614 164 614 164 623 206 c 0,10,11
 631 242 631 242 628.5 274 c 128,-1,12
 626 306 626 306 612 332 c 128,-1,13
 598 358 598 358 573 376 c 128,-1,14
 548 394 548 394 511 402 c 1,15,-1
 520 404 l 1,16,17
 545 416 545 416 565.5 434.5 c 128,-1,18
 586 453 586 453 601.5 475.5 c 128,-1,19
 617 498 617 498 627.5 522 c 128,-1,20
 638 546 638 546 642 569 c 0,21,22
 651 610 651 610 641.5 645.5 c 128,-1,23
 632 681 632 681 606 707 c 128,-1,24
 580 733 580 733 541 748 c 128,-1,25
 502 763 502 763 454 762 c 0,26,27
 395 763 395 763 342 741.5 c 128,-1,28
 289 720 289 720 245.5 680.5 c 128,-1,29
 202 641 202 641 170.5 586.5 c 128,-1,30
 139 532 139 532 125 467 c 2,31,-1
 -28 -205 l 1,32,-1
 126 -213 l 1,33,34
 143 -112 143 -112 149 -54 c 128,-1,35
 155 4 155 4 154 30 c 1,36,-1
 185 145 l 2,37,38
 198 188 198 188 207 221.5 c 128,-1,39
 216 255 216 255 224.5 288.5 c 128,-1,40
 233 322 233 322 242 361.5 c 128,-1,41
 251 401 251 401 264 456 c 0,42,43
 272 494 272 494 288.5 525.5 c 128,-1,44
 305 557 305 557 327 580 c 128,-1,45
 349 603 349 603 375 615.5 c 128,-1,46
 401 628 401 628 429 628 c 0,47,48
 448 628 448 628 462.5 623 c 128,-1,49
 477 618 477 618 486.5 608.5 c 128,-1,50
 496 599 496 599 499 586 c 128,-1,51
 502 573 502 573 498 557 c 0,52,53
 493 534 493 534 478 514 c 128,-1,54
 463 494 463 494 442 478.5 c 128,-1,55
 421 463 421 463 396 453 c 128,-1,56
 371 443 371 443 344 440 c 1,57,-1
 328 335 l 1,58,59
 332 336 332 336 338.5 337 c 128,-1,60
 345 338 345 338 353 338.5 c 128,-1,61
 361 339 361 339 370 339.5 c 128,-1,62
 379 340 379 340 387 339 c 0,63,64
 416 340 416 340 439 333 c 128,-1,65
 462 326 462 326 477 314 c 128,-1,66
 492 302 492 302 498.5 285 c 128,-1,67
 505 268 505 268 500 248 c 0,68,69
 495 223 495 223 478 200.5 c 128,-1,70
 461 178 461 178 437 161 c 128,-1,71
 413 144 413 144 383.5 134 c 128,-1,72
 354 124 354 124 323 124 c 0,73,74
 307 124 307 124 287.5 127 c 128,-1,75
 268 130 268 130 247.5 135.5 c 128,-1,76
 227 141 227 141 207.5 149.5 c 128,-1,77
 188 158 188 158 173 170 c 1,78,-1
 152 35 l 1,0,1
EndSplineSet
EndChar

StartChar: gamma
Encoding: 947 947 459
Width: 633
GlyphClass: 1
Flags: W
LayerCount: 2
Fore
SplineSet
269 -213 m 1,0,1
 298 -104 298 -104 319.5 9.5 c 128,-1,2
 341 123 341 123 340.5 225 c 128,-1,3
 340 327 340 327 310.5 410.5 c 128,-1,4
 281 494 281 494 209 544 c 1,5,-1
 102 424 l 1,6,7
 136 404 136 404 155 365 c 128,-1,8
 174 326 174 326 181 275 c 128,-1,9
 188 224 188 224 185.5 164 c 128,-1,10
 183 104 183 104 174.5 41.5 c 128,-1,11
 166 -21 166 -21 153 -82.5 c 128,-1,12
 140 -144 140 -144 127 -198 c 1,13,-1
 269 -213 l 1,0,1
305 -9 m 1,14,15
 382 68 382 68 436 132.5 c 128,-1,16
 490 197 490 197 531 258.5 c 128,-1,17
 572 320 572 320 604.5 382.5 c 128,-1,18
 637 445 637 445 670 518 c 1,19,-1
 512 533 l 1,20,21
 495 480 495 480 472 428.5 c 128,-1,22
 449 377 449 377 422.5 331 c 128,-1,23
 396 285 396 285 366.5 245.5 c 128,-1,24
 337 206 337 206 305 175 c 1,25,-1
 305 -9 l 1,14,15
EndSplineSet
EndChar

StartChar: delta
Encoding: 948 948 460
Width: 605
GlyphClass: 1
Flags: W
LayerCount: 2
Fore
SplineSet
252 -8 m 0,0,1
 305 -8 305 -8 354.5 9.5 c 128,-1,2
 404 27 404 27 444.5 59 c 128,-1,3
 485 91 485 91 515 137.5 c 128,-1,4
 545 184 545 184 558 241 c 0,5,6
 571 300 571 300 564 343.5 c 128,-1,7
 557 387 557 387 538.5 419 c 128,-1,8
 520 451 520 451 494 471.5 c 128,-1,9
 468 492 468 492 444 505 c 1,10,11
 427 519 427 519 407.5 532 c 128,-1,12
 388 545 388 545 372 556.5 c 128,-1,13
 356 568 356 568 346 579 c 128,-1,14
 336 590 336 590 338 600 c 0,15,16
 342 618 342 618 360 629.5 c 128,-1,17
 378 641 378 641 407 641 c 0,18,19
 429 641 429 641 452.5 635.5 c 128,-1,20
 476 630 476 630 499.5 619.5 c 128,-1,21
 523 609 523 609 546 594 c 128,-1,22
 569 579 569 579 590 560 c 1,23,-1
 667 662 l 1,24,25
 650 679 650 679 624.5 697 c 128,-1,26
 599 715 599 715 567 729 c 128,-1,27
 535 743 535 743 495.5 752 c 128,-1,28
 456 761 456 761 410 760 c 0,29,30
 324 761 324 761 268 729 c 128,-1,31
 212 697 212 697 198 638 c 0,32,33
 189 599 189 599 199 570 c 128,-1,34
 209 541 209 541 231 518 c 128,-1,35
 253 495 253 495 281.5 477 c 128,-1,36
 310 459 310 459 339 441 c 0,37,38
 363 422 363 422 382.5 404 c 128,-1,39
 402 386 402 386 415.5 366.5 c 128,-1,40
 429 347 429 347 434.5 324.5 c 128,-1,41
 440 302 440 302 434 274 c 0,42,43
 426 240 426 240 408 213 c 128,-1,44
 390 186 390 186 367 168 c 128,-1,45
 344 150 344 150 317.5 140 c 128,-1,46
 291 130 291 130 264 130 c 0,47,48
 239 130 239 130 218.5 138 c 128,-1,49
 198 146 198 146 184 161 c 128,-1,50
 170 176 170 176 165 197 c 128,-1,51
 160 218 160 218 166 243 c 0,52,53
 172 274 172 274 189.5 301.5 c 128,-1,54
 207 329 207 329 231.5 349.5 c 128,-1,55
 256 370 256 370 286 382 c 128,-1,56
 316 394 316 394 347 394 c 0,57,58
 368 394 368 394 392 390 c 128,-1,59
 416 386 416 386 429 371 c 1,60,-1
 380 481 l 1,61,62
 373 485 373 485 351 491 c 128,-1,63
 329 497 329 497 302 497 c 0,64,65
 253 497 253 497 209.5 478 c 128,-1,66
 166 459 166 459 131.5 427.5 c 128,-1,67
 97 396 97 396 73 355 c 128,-1,68
 49 314 49 314 39 269 c 0,69,70
 26 215 26 215 35 165 c 128,-1,71
 44 115 44 115 72 76.5 c 128,-1,72
 100 38 100 38 145.5 15 c 128,-1,73
 191 -8 191 -8 252 -8 c 0,0,1
EndSplineSet
EndChar

StartChar: epsilon
Encoding: 949 949 461
Width: 512
GlyphClass: 1
Flags: W
LayerCount: 2
Fore
SplineSet
414 155 m 1,0,1
 380 147 380 147 337 137 c 128,-1,2
 294 127 294 127 251 127 c 0,3,4
 205 127 205 127 181.5 136 c 128,-1,5
 158 145 158 145 160 160 c 0,6,7
 164 173 164 173 175 182.5 c 128,-1,8
 186 192 186 192 202.5 198.5 c 128,-1,9
 219 205 219 205 238.5 208.5 c 128,-1,10
 258 212 258 212 278 212 c 2,11,-1
 318 212 l 1,12,-1
 341 314 l 1,13,-1
 300 314 l 2,14,15
 281 315 281 315 265.5 317.5 c 128,-1,16
 250 320 250 320 239 323.5 c 128,-1,17
 228 327 228 327 222 332 c 128,-1,18
 216 337 216 337 217 343 c 0,19,20
 220 353 220 353 229 361.5 c 128,-1,21
 238 370 238 370 253.5 377.5 c 128,-1,22
 269 385 269 385 290 389 c 128,-1,23
 311 393 311 393 339 393 c 0,24,25
 356 393 356 393 373 391.5 c 128,-1,26
 390 390 390 390 405 387.5 c 128,-1,27
 420 385 420 385 433.5 381.5 c 128,-1,28
 447 378 447 378 457 373 c 1,29,-1
 521 503 l 1,30,31
 484 522 484 522 442.5 529 c 128,-1,32
 401 536 401 536 362 533 c 0,33,34
 305 534 305 534 259 525 c 128,-1,35
 213 516 213 516 179 497.5 c 128,-1,36
 145 479 145 479 123.5 453 c 128,-1,37
 102 427 102 427 95 395 c 0,38,39
 90 374 90 374 91.5 354 c 128,-1,40
 93 334 93 334 100 317.5 c 128,-1,41
 107 301 107 301 118.5 289.5 c 128,-1,42
 130 278 130 278 146 274 c 1,43,-1
 139 275 l 1,44,45
 117 269 117 269 97.5 257.5 c 128,-1,46
 78 246 78 246 62 230 c 128,-1,47
 46 214 46 214 36 196 c 128,-1,48
 26 178 26 178 22 159 c 0,49,50
 13 122 13 122 25 90 c 128,-1,51
 37 58 37 58 66.5 35.5 c 128,-1,52
 96 13 96 13 139.5 0 c 128,-1,53
 183 -13 183 -13 236 -13 c 0,54,55
 259 -13 259 -13 284 -11 c 128,-1,56
 309 -9 309 -9 334.5 -6 c 128,-1,57
 360 -3 360 -3 383 1.5 c 128,-1,58
 406 6 406 6 425 12 c 1,59,-1
 414 155 l 1,0,1
EndSplineSet
EndChar

StartChar: zeta
Encoding: 950 950 462
Width: 543
GlyphClass: 1
Flags: W
LayerCount: 2
Fore
SplineSet
235 -209 m 0,0,1
 275 -209 275 -209 313 -195.5 c 128,-1,2
 351 -182 351 -182 382.5 -157.5 c 128,-1,3
 414 -133 414 -133 437 -99.5 c 128,-1,4
 460 -66 460 -66 468 -26 c 0,5,6
 477 9 477 9 473 38 c 128,-1,7
 469 67 469 67 454 88 c 128,-1,8
 439 109 439 109 415.5 121 c 128,-1,9
 392 133 392 133 361 133 c 0,10,11
 354 133 354 133 344 132 c 128,-1,12
 334 131 334 131 322 130 c 128,-1,13
 310 129 310 129 296 128 c 128,-1,14
 282 127 282 127 267 127 c 256,15,16
 252 127 252 127 234 128 c 128,-1,17
 216 129 216 129 200.5 135.5 c 128,-1,18
 185 142 185 142 177 157 c 128,-1,19
 169 172 169 172 175 198 c 0,20,21
 183 231 183 231 206 269.5 c 128,-1,22
 229 308 229 308 263 348.5 c 128,-1,23
 297 389 297 389 337.5 429.5 c 128,-1,24
 378 470 378 470 420.5 505 c 128,-1,25
 463 540 463 540 504 569.5 c 128,-1,26
 545 599 545 599 579 616 c 1,27,-1
 596 718 l 1,28,-1
 420 718 l 2,29,30
 412 718 412 718 401 717.5 c 128,-1,31
 390 717 390 717 381 718.5 c 128,-1,32
 372 720 372 720 366.5 725 c 128,-1,33
 361 730 361 730 363 740 c 0,34,35
 366 753 366 753 373.5 768.5 c 128,-1,36
 381 784 381 784 389 794 c 1,37,-1
 277 850 l 1,38,39
 254 821 254 821 243 800.5 c 128,-1,40
 232 780 232 780 226 760 c 0,41,42
 219 725 219 725 226.5 697.5 c 128,-1,43
 234 670 234 670 255 651 c 128,-1,44
 276 632 276 632 308.5 622 c 128,-1,45
 341 612 341 612 382 612 c 2,46,-1
 444 612 l 1,47,-1
 411 665 l 1,48,49
 348 622 348 622 287 568 c 128,-1,50
 226 514 226 514 174.5 454.5 c 128,-1,51
 123 395 123 395 86.5 332.5 c 128,-1,52
 50 270 50 270 36 210 c 0,53,54
 22 149 22 149 33 107 c 128,-1,55
 44 65 44 65 70.5 39.5 c 128,-1,56
 97 14 97 14 134 3 c 128,-1,57
 171 -8 171 -8 210 -8 c 0,58,59
 223 -8 223 -8 239 -7.5 c 128,-1,60
 255 -7 255 -7 271 -6 c 128,-1,61
 287 -5 287 -5 300 -4.5 c 128,-1,62
 313 -4 313 -4 321 -4 c 0,63,64
 335 -4 335 -4 339.5 -8.5 c 128,-1,65
 344 -13 344 -13 341 -18 c 0,66,67
 339 -32 339 -32 329 -43 c 128,-1,68
 319 -54 319 -54 302.5 -62.5 c 128,-1,69
 286 -71 286 -71 265 -76 c 128,-1,70
 244 -81 244 -81 220 -81 c 0,71,72
 202 -81 202 -81 185.5 -78.5 c 128,-1,73
 169 -76 169 -76 157 -76 c 1,74,-1
 138 -198 l 1,75,76
 169 -204 169 -204 193 -207 c 128,-1,77
 217 -210 217 -210 235 -209 c 0,0,1
EndSplineSet
EndChar

StartChar: eta
Encoding: 951 951 463
Width: 631
GlyphClass: 1
Flags: W
LayerCount: 2
Fore
SplineSet
153 -7 m 1,0,1
 185 89 185 89 210 166.5 c 128,-1,2
 235 244 235 244 251 319 c 0,3,4
 261 362 261 362 261 396.5 c 128,-1,5
 261 431 261 431 251 457 c 128,-1,6
 241 483 241 483 221 501.5 c 128,-1,7
 201 520 201 520 171 531 c 1,8,-1
 75 409 l 1,9,10
 89 401 89 401 97 389.5 c 128,-1,11
 105 378 105 378 106.5 361.5 c 128,-1,12
 108 345 108 345 104.5 322 c 128,-1,13
 101 299 101 299 95 271 c 0,14,15
 82 208 82 208 59 141 c 128,-1,16
 36 74 36 74 13 7 c 1,17,-1
 153 -7 l 1,0,1
421 -212 m 1,18,19
 442 -161 442 -161 464.5 -98.5 c 128,-1,20
 487 -36 487 -36 507.5 27 c 128,-1,21
 528 90 528 90 545 149 c 128,-1,22
 562 208 562 208 572 252 c 0,23,24
 605 399 605 399 580 466 c 128,-1,25
 555 533 555 533 467 533 c 0,26,27
 438 533 438 533 408.5 523.5 c 128,-1,28
 379 514 379 514 350 495.5 c 128,-1,29
 321 477 321 477 294.5 449 c 128,-1,30
 268 421 268 421 244 385 c 1,31,-1
 229 238 l 1,32,33
 240 265 240 265 258.5 290.5 c 128,-1,34
 277 316 277 316 299 336.5 c 128,-1,35
 321 357 321 357 345 369.5 c 128,-1,36
 369 382 369 382 390 382 c 0,37,38
 428 382 428 382 436.5 350.5 c 128,-1,39
 445 319 445 319 426 236 c 0,40,41
 417 200 417 200 405 157 c 128,-1,42
 393 114 393 114 374.5 61.5 c 128,-1,43
 356 9 356 9 332 -53.5 c 128,-1,44
 308 -116 308 -116 278 -192 c 1,45,-1
 421 -212 l 1,18,19
EndSplineSet
EndChar

StartChar: theta
Encoding: 952 952 464
Width: 676
GlyphClass: 1
Flags: W
LayerCount: 2
Fore
SplineSet
287 -8 m 0,0,1
 350 -8 350 -8 406 19 c 128,-1,2
 462 46 462 46 508 95 c 128,-1,3
 554 144 554 144 587.5 212.5 c 128,-1,4
 621 281 621 281 640 363 c 0,5,6
 660 454 660 454 657 527.5 c 128,-1,7
 654 601 654 601 628.5 653.5 c 128,-1,8
 603 706 603 706 557.5 734.5 c 128,-1,9
 512 763 512 763 447 762 c 0,10,11
 388 763 388 763 331.5 738 c 128,-1,12
 275 713 275 713 228 665.5 c 128,-1,13
 181 618 181 618 145.5 549 c 128,-1,14
 110 480 110 480 90 392 c 0,15,16
 69 301 69 301 72.5 227 c 128,-1,17
 76 153 76 153 102 101 c 128,-1,18
 128 49 128 49 175 20.5 c 128,-1,19
 222 -8 222 -8 287 -8 c 0,0,1
288 130 m 0,20,21
 258 130 258 130 238.5 148.5 c 128,-1,22
 219 167 219 167 210 199 c 128,-1,23
 201 231 201 231 203 273.5 c 128,-1,24
 205 316 205 316 218 364 c 0,25,26
 234 421 234 421 259 468 c 128,-1,27
 284 515 284 515 313.5 549 c 128,-1,28
 343 583 343 583 376 602 c 128,-1,29
 409 621 409 621 440 621 c 0,30,31
 469 621 469 621 489.5 604.5 c 128,-1,32
 510 588 510 588 519.5 558 c 128,-1,33
 529 528 529 528 527.5 486 c 128,-1,34
 526 444 526 444 512 394 c 0,35,36
 498 340 498 340 474.5 292 c 128,-1,37
 451 244 451 244 420.5 208 c 128,-1,38
 390 172 390 172 356 151 c 128,-1,39
 322 130 322 130 288 130 c 0,20,21
546 325 m 1,40,-1
 572 430 l 1,41,-1
 184 430 l 1,42,-1
 158 325 l 1,43,-1
 546 325 l 1,40,-1
EndSplineSet
EndChar

StartChar: iota
Encoding: 953 953 465
Width: 342
GlyphClass: 1
Flags: W
LayerCount: 2
Fore
SplineSet
151 -8 m 0,0,1
 177 -8 177 -8 204 -5 c 128,-1,2
 231 -2 231 -2 252 7 c 1,3,-1
 254 154 l 1,4,5
 246 150 246 150 231 143.5 c 128,-1,6
 216 137 216 137 203 137 c 0,7,8
 197 137 197 137 193 139 c 128,-1,9
 189 141 189 141 187.5 147 c 128,-1,10
 186 153 186 153 188 165 c 128,-1,11
 190 177 190 177 194 199 c 0,12,13
 200 225 200 225 210.5 264.5 c 128,-1,14
 221 304 221 304 233.5 348.5 c 128,-1,15
 246 393 246 393 258 438 c 128,-1,16
 270 483 270 483 280 518 c 1,17,-1
 129 533 l 1,18,19
 116 480 116 480 104.5 434 c 128,-1,20
 93 388 93 388 83 345.5 c 128,-1,21
 73 303 73 303 64.5 262 c 128,-1,22
 56 221 56 221 46 180 c 0,23,24
 36 134 36 134 38 98.5 c 128,-1,25
 40 63 40 63 53 39.5 c 128,-1,26
 66 16 66 16 91 4 c 128,-1,27
 116 -8 116 -8 151 -8 c 0,0,1
EndSplineSet
EndChar

